<svg width="360" height="300" viewBox="0 0 360 300" fill="none" xmlns="http://www.w3.org/2000/svg">
<g clip-path="url(#clip0)">
<path d="M245.939 -5.15433e-05L0 145.478L7.39644 157.939L253.336 12.4602L245.939 -5.15433e-05Z" fill="#F2F2F2"/>
<path d="M299.394 12.1966L53.4543 157.675L60.8508 170.135L306.79 24.6569L299.394 12.1966Z" fill="#F2F2F2"/>
<path d="M346.739 25.5368L100.799 171.015L108.196 183.475L354.135 37.9971L346.739 25.5368Z" fill="#F2F2F2"/>
<path d="M160.193 170.536C202.719 170.536 237.194 136.122 237.194 93.6702C237.194 51.2184 202.719 16.8045 160.193 16.8045C117.667 16.8045 83.1925 51.2184 83.1925 93.6702C83.1925 136.122 117.667 170.536 160.193 170.536Z" fill="white"/>
<path d="M82.6198 93.6702C82.6198 50.9711 117.419 16.2328 160.193 16.2328C202.967 16.2328 237.767 50.9711 237.767 93.6702C237.767 136.369 202.967 171.108 160.193 171.108C117.419 171.108 82.6198 136.369 82.6198 93.6702ZM83.7652 93.6702C83.7652 135.739 118.051 169.964 160.193 169.964C202.336 169.964 236.621 135.739 236.621 93.6702C236.621 51.6017 202.336 17.3762 160.193 17.3762C118.051 17.3762 83.7652 51.6016 83.7652 93.6702H83.7652Z" fill="#3F3D56"/>
<path d="M146.467 94.0044C146.467 91.2943 147.272 88.6452 148.78 86.3918C150.288 84.1385 152.432 82.3823 154.94 81.3452C157.448 80.3081 160.208 80.0368 162.871 80.5655C165.534 81.0942 167.979 82.3992 169.899 84.3155C171.819 86.2317 173.126 88.6732 173.656 91.3312C174.185 93.9891 173.913 96.7442 172.874 99.2479C171.836 101.752 170.076 103.892 167.819 105.397C165.562 106.903 162.908 107.707 160.193 107.706C156.553 107.706 153.061 106.263 150.487 103.693C147.913 101.124 146.467 97.6384 146.467 94.0044V94.0044ZM160.193 80.9706C156.731 80.9745 153.413 82.3489 150.965 84.7924C148.517 87.2359 147.14 90.5488 147.136 94.0044V94.0044C147.136 96.5822 147.902 99.1022 149.337 101.246C150.772 103.389 152.811 105.059 155.197 106.046C157.582 107.032 160.208 107.291 162.74 106.788C165.273 106.285 167.6 105.043 169.426 103.221C171.252 101.398 172.495 99.0754 172.999 96.5471C173.503 94.0188 173.244 91.3982 172.256 89.0166C171.268 86.635 169.594 84.5994 167.447 83.1672C165.3 81.735 162.775 80.9706 160.193 80.9706V80.9706Z" fill="#3F3D56"/>
<path d="M134.08 94.0044C134.08 88.8487 135.611 83.8088 138.481 79.5221C141.35 75.2353 145.428 71.8942 150.2 69.9212C154.972 67.9482 160.222 67.432 165.288 68.4378C170.353 69.4436 175.006 71.9263 178.658 75.5719C182.31 79.2175 184.797 83.8623 185.805 88.9189C186.812 93.9755 186.295 99.2168 184.319 103.98C182.342 108.743 178.995 112.814 174.701 115.679C170.407 118.543 165.358 120.072 160.193 120.072C156.764 120.072 153.368 119.398 150.2 118.088C147.032 116.778 144.153 114.857 141.728 112.437C139.303 110.016 137.38 107.143 136.068 103.98C134.755 100.817 134.08 97.4276 134.08 94.0044V94.0044ZM160.193 68.6053C155.161 68.6053 150.242 70.0949 146.057 72.8858C141.873 75.6767 138.612 79.6435 136.686 84.2846C134.76 88.9256 134.257 94.0326 135.238 98.9595C136.22 103.886 138.643 108.412 142.202 111.964C145.76 115.516 150.294 117.935 155.229 118.915C160.165 119.895 165.281 119.392 169.93 117.47C174.579 115.548 178.553 112.292 181.349 108.115C184.145 103.939 185.637 99.0279 185.637 94.0044C185.629 87.2705 182.946 80.8145 178.176 76.0529C173.406 71.2913 166.939 68.6129 160.193 68.6053Z" fill="#CCCCCC"/>
<path d="M109.306 94.0044C109.306 83.9575 112.29 74.1361 117.882 65.7824C123.473 57.4287 131.421 50.9178 140.719 47.073C150.018 43.2282 160.25 42.2222 170.121 44.1823C179.992 46.1423 189.059 50.9804 196.176 58.0847C203.293 65.1889 208.139 74.2403 210.103 84.0942C212.066 93.9481 211.058 104.162 207.207 113.444C203.355 122.726 196.833 130.66 188.465 136.242C180.096 141.823 170.258 144.803 160.193 144.803C146.702 144.787 133.767 139.431 124.227 129.907C114.687 120.384 109.321 107.472 109.306 94.0044V94.0044ZM160.193 43.8746C150.261 43.8746 140.552 46.8147 132.294 52.323C124.035 57.8313 117.599 65.6606 113.798 74.8206C109.997 83.9806 109.003 94.06 110.94 103.784C112.878 113.508 117.661 122.441 124.684 129.452C131.707 136.462 140.655 141.237 150.396 143.171C160.137 145.105 170.235 144.113 179.411 140.318C188.587 136.524 196.43 130.099 201.948 121.855C207.466 113.611 210.411 103.919 210.411 94.0044C210.396 80.7138 205.1 67.9718 195.686 58.5739C186.271 49.176 173.507 43.8897 160.193 43.8746V43.8746Z" fill="#CCCCCC"/>
<path d="M160.193 100.02C163.706 100.02 166.554 97.177 166.554 93.6702C166.554 90.1633 163.706 87.3204 160.193 87.3204C156.68 87.3204 153.832 90.1633 153.832 93.6702C153.832 97.177 156.68 100.02 160.193 100.02Z" fill="#F9A826"/>
<path d="M143.789 118.401C147.302 118.401 150.15 115.558 150.15 112.051C150.15 108.544 147.302 105.701 143.789 105.701C140.276 105.701 137.428 108.544 137.428 112.051C137.428 115.558 140.276 118.401 143.789 118.401Z" fill="#F9A826"/>
<path d="M207.788 115.727C211.301 115.727 214.149 112.884 214.149 109.378C214.149 105.871 211.301 103.028 207.788 103.028C204.275 103.028 201.427 105.871 201.427 109.378C201.427 112.884 204.275 115.727 207.788 115.727Z" fill="#F9A826"/>
<path d="M160.193 96.678C161.857 96.678 163.206 95.3313 163.206 93.6702C163.206 92.009 161.857 90.6624 160.193 90.6624C158.529 90.6624 157.18 92.009 157.18 93.6702C157.18 95.3313 158.529 96.678 160.193 96.678Z" fill="#2F2E41"/>
<path d="M207.788 112.385C209.452 112.385 210.801 111.039 210.801 109.378C210.801 107.716 209.452 106.37 207.788 106.37C206.124 106.37 204.775 107.716 204.775 109.378C204.775 111.039 206.124 112.385 207.788 112.385Z" fill="#2F2E41"/>
<path d="M143.789 115.393C145.453 115.393 146.802 114.046 146.802 112.385C146.802 110.724 145.453 109.378 143.789 109.378C142.125 109.378 140.776 110.724 140.776 112.385C140.776 114.046 142.125 115.393 143.789 115.393Z" fill="#2F2E41"/>
<path d="M19.5833 62.9239C21.2473 62.9239 22.5963 61.5773 22.5963 59.9161C22.5963 58.255 21.2473 56.9083 19.5833 56.9083C17.9192 56.9083 16.5702 58.255 16.5702 59.9161C16.5702 61.5773 17.9192 62.9239 19.5833 62.9239Z" fill="#F9A826"/>
<path d="M160.026 60.0835H27.7852V59.415H160.696V93.837H160.026V60.0835Z" fill="#2F2E41"/>
<path d="M10.8787 59.9161C10.8787 58.1976 11.3892 56.5176 12.3456 55.0887C13.3021 53.6597 14.6615 52.546 16.252 51.8884C17.8426 51.2307 19.5927 51.0586 21.2812 51.3939C22.9697 51.7292 24.5207 52.5567 25.738 53.7719C26.9554 54.9871 27.7844 56.5354 28.1203 58.2209C28.4561 59.9065 28.2838 61.6536 27.6249 63.2413C26.9661 64.829 25.8505 66.1861 24.419 67.1409C22.9876 68.0957 21.3047 68.6053 19.5831 68.6053C18.44 68.6053 17.3081 68.3805 16.2521 67.9439C15.196 67.5072 14.2364 66.8672 13.4281 66.0603C12.6199 65.2534 11.9787 64.2955 11.5412 63.2413C11.1038 62.1871 10.8787 61.0572 10.8787 59.9161V59.9161ZM19.5831 51.8953C17.994 51.8953 16.4405 52.3658 15.1192 53.2471C13.7978 54.1284 12.768 55.3811 12.1599 56.8467C11.5517 58.3123 11.3926 59.925 11.7026 61.4809C12.0126 63.0368 12.7779 64.4659 13.9016 65.5877C15.0253 66.7094 16.457 67.4733 18.0156 67.7828C19.5742 68.0923 21.1897 67.9334 22.6579 67.3264C24.1261 66.7193 25.3809 65.6912 26.2638 64.3722C27.1467 63.0532 27.6179 61.5025 27.6179 59.9161C27.6155 57.7896 26.7682 55.7509 25.2619 54.2473C23.7556 52.7436 21.7133 51.8978 19.5831 51.8953V51.8953Z" fill="#2F2E41"/>
<path d="M39.6703 149.481C41.3344 149.481 42.6834 148.135 42.6834 146.474C42.6834 144.812 41.3344 143.466 39.6703 143.466C38.0062 143.466 36.6572 144.812 36.6572 146.474C36.6572 148.135 38.0062 149.481 39.6703 149.481Z" fill="#F9A826"/>
<path d="M30.9659 146.474C30.9659 144.755 31.4764 143.075 32.4329 141.646C33.3894 140.217 34.7488 139.104 36.3393 138.446C37.9298 137.788 39.68 137.616 41.3685 137.951C43.057 138.287 44.608 139.114 45.8253 140.329C47.0426 141.545 47.8717 143.093 48.2075 144.778C48.5434 146.464 48.371 148.211 47.7122 149.799C47.0534 151.387 45.9377 152.744 44.5063 153.698C43.0748 154.653 41.3919 155.163 39.6704 155.163C37.3618 155.163 35.1478 154.247 33.5154 152.618C31.883 150.988 30.9659 148.778 30.9659 146.474V146.474ZM39.6704 138.453C38.0812 138.453 36.5278 138.923 35.2064 139.805C33.8851 140.686 32.8553 141.939 32.2471 143.404C31.639 144.87 31.4799 146.482 31.7899 148.038C32.0999 149.594 32.8652 151.023 33.9888 152.145C35.1125 153.267 36.5442 154.031 38.1028 154.34C39.6614 154.65 41.277 154.491 42.7451 153.884C44.2133 153.277 45.4682 152.249 46.3511 150.93C47.234 149.611 47.7052 148.06 47.7052 146.474C47.7028 144.347 46.8554 142.308 45.3492 140.805C43.8429 139.301 41.8006 138.455 39.6704 138.453Z" fill="#2F2E41"/>
<path d="M301.193 76.9603C302.857 76.9603 304.206 75.6136 304.206 73.9525C304.206 72.2913 302.857 70.9447 301.193 70.9447C299.529 70.9447 298.18 72.2913 298.18 73.9525C298.18 75.6136 299.529 76.9603 301.193 76.9603Z" fill="#F9A826"/>
<path d="M292.489 73.9525C292.489 72.2339 292.999 70.554 293.956 69.125C294.912 67.6961 296.271 66.5824 297.862 65.9247C299.452 65.2671 301.203 65.095 302.891 65.4303C304.58 65.7655 306.131 66.5931 307.348 67.8083C308.565 69.0235 309.394 70.5718 309.73 72.2573C310.066 73.9428 309.894 75.6899 309.235 77.2777C308.576 78.8654 307.46 80.2225 306.029 81.1773C304.597 82.132 302.915 82.6417 301.193 82.6417C300.05 82.6417 298.918 82.4169 297.862 81.9802C296.806 81.5436 295.846 80.9035 295.038 80.0967C294.23 79.2898 293.589 78.3319 293.151 77.2777C292.714 76.2235 292.489 75.0936 292.489 73.9525V73.9525ZM301.193 65.9317C299.063 65.9342 297.02 66.78 295.514 68.2836C294.008 69.7873 293.161 71.826 293.158 73.9525V73.9525C293.158 75.5388 293.629 77.0896 294.512 78.4086C295.395 79.7276 296.65 80.7556 298.118 81.3627C299.586 81.9698 301.202 82.1286 302.761 81.8191C304.319 81.5096 305.751 80.7457 306.875 79.624C307.998 78.5023 308.763 77.0731 309.073 75.5172C309.384 73.9614 309.224 72.3487 308.616 70.883C308.008 69.4174 306.978 68.1648 305.657 67.2834C304.336 66.4021 302.782 65.9317 301.193 65.9317V65.9317Z" fill="#2F2E41"/>
<path d="M207.453 74.9602L292.818 73.6184L292.829 74.2864L208.122 75.6182V109.378H207.453V74.9602Z" fill="#2F2E41"/>
<path d="M48.0403 146.139H143.454V112.385H144.123V146.807H48.0403V146.139Z" fill="#2F2E41"/>
<path d="M37.9963 75.6235H1.16992V77.9629H37.9963V75.6235Z" fill="#CCCCCC"/>
<path d="M37.9963 82.3074H1.16992V84.6468H37.9963V82.3074Z" fill="#CCCCCC"/>
<path d="M37.9963 88.9914H1.16992V91.3308H37.9963V88.9914Z" fill="#CCCCCC"/>
<path d="M58.0835 162.181H21.2571V164.52H58.0835V162.181Z" fill="#CCCCCC"/>
<path d="M58.0835 168.865H21.2571V171.204H58.0835V168.865Z" fill="#CCCCCC"/>
<path d="M58.0835 175.549H21.2571V177.888H58.0835V175.549Z" fill="#CCCCCC"/>
<path d="M319.606 89.994H282.78V92.3334H319.606V89.994Z" fill="#CCCCCC"/>
<path d="M319.606 96.678H282.78V99.0174H319.606V96.678Z" fill="#CCCCCC"/>
<path d="M319.606 103.362H282.78V105.701H319.606V103.362Z" fill="#CCCCCC"/>
<path d="M337.137 289.311L331.9 291.18L322.189 271.904L329.918 269.146L337.137 289.311Z" fill="#FFB8B8"/>
<path d="M323.401 299.927L323.324 299.714C322.704 297.974 322.8 296.059 323.592 294.389C324.383 292.719 325.806 291.431 327.548 290.808L337.862 287.128L340.288 293.903L323.401 299.927Z" fill="#2F2E41"/>
<path d="M303.081 294.483L297.52 294.482L294.874 273.068L303.082 273.068L303.081 294.483Z" fill="#FFB8B8"/>
<path d="M304.5 299.864L286.567 299.864V299.637C286.567 298.722 286.747 297.816 287.098 296.971C287.449 296.125 287.963 295.357 288.611 294.71C289.259 294.063 290.029 293.55 290.876 293.2C291.722 292.85 292.63 292.669 293.547 292.669H293.547L304.5 292.67L304.5 299.864Z" fill="#2F2E41"/>
<path d="M315.756 157.671L313.338 152.9C313.338 152.9 304.327 155.153 303.508 160.366L315.756 157.671Z" fill="#F9A826"/>
<path d="M325.737 212.224L319.159 248.866L336.624 279.699L326.19 283.775L308.498 253.886L306.23 245.735L304.869 288.303L295.459 288.018L291.144 248.27L298.064 211.318L325.737 212.224Z" fill="#2F2E41"/>
<path d="M294.32 218.834C294.116 217.926 293.53 190.226 293.53 190.226C293.53 190.226 303.205 158.522 303.293 158.261L303.328 158.16L310.673 155.411C310.776 155.364 313.223 154.275 315.225 155.182C315.739 155.432 316.192 155.79 316.552 156.233C316.913 156.675 317.172 157.19 317.312 157.743C318.145 158.363 324.149 165.076 324.149 174.182L324.376 195.669L329.409 218.964L329.186 219.012C329.049 219.041 322.914 220.886 313.25 220.886C307.881 220.886 294.32 218.834 294.32 218.834Z" fill="#3F3D56"/>
<path d="M305.825 151.397C311.308 151.397 315.752 146.961 315.752 141.488C315.752 136.015 311.308 131.578 305.825 131.578C300.342 131.578 295.898 136.015 295.898 141.488C295.898 146.961 300.342 151.397 305.825 151.397Z" fill="#FFB8B8"/>
<path opacity="0.2" d="M319.968 185.146L302.601 209.335L300.036 198.039L319.968 185.146Z" fill="black"/>
<path d="M289.144 209.857C289.766 209.832 290.375 209.672 290.929 209.387C291.482 209.101 291.966 208.699 292.347 208.206C292.727 207.714 292.995 207.145 293.131 206.538C293.268 205.932 293.269 205.302 293.135 204.695L306.04 196.793L298.914 193.465L287.752 201.48C286.745 201.771 285.88 202.422 285.322 203.307C284.763 204.193 284.549 205.252 284.72 206.285C284.892 207.318 285.437 208.252 286.252 208.91C287.067 209.568 288.096 209.905 289.144 209.857V209.857Z" fill="#FFB8B8"/>
<path d="M298.064 193.657L293.644 196.748L297.393 203.393L302.601 199.091L298.064 193.657Z" fill="#F9A826"/>
<path d="M295.75 193.852L306.147 181.822L302.163 165.23C301.752 163.515 301.979 161.71 302.803 160.15C303.628 158.591 304.992 157.384 306.643 156.755C308.293 156.127 310.116 156.119 311.771 156.734C313.427 157.349 314.802 158.544 315.639 160.097L315.729 160.265L319.4 184.904L300.957 203.775L295.75 193.852Z" fill="#3F3D56"/>
<path d="M314.281 150.092L306.041 150.387C305.539 150.405 304.176 144.994 303.997 143.871C303.856 143.141 303.454 142.486 302.865 142.03C302.275 141.574 301.54 141.348 300.796 141.393C300.179 141.451 298.624 140.301 297.019 138.939C293.972 136.353 294.131 131.496 297.478 129.311C297.569 129.252 297.659 129.197 297.747 129.148C299.859 127.968 302.329 127.572 304.748 127.542C306.942 127.514 309.197 127.79 311.13 128.826C314.594 130.684 316.438 134.744 316.6 138.667C316.762 142.589 315.502 146.425 314.072 150.082" fill="#2F2E41"/>
<path d="M359.546 300H259.29C259.169 300 259.054 299.952 258.969 299.867C258.884 299.782 258.836 299.667 258.836 299.547C258.836 299.427 258.884 299.312 258.969 299.227C259.054 299.142 259.169 299.094 259.29 299.094H359.546C359.667 299.094 359.782 299.142 359.867 299.227C359.952 299.312 360 299.427 360 299.547C360 299.667 359.952 299.782 359.867 299.867C359.782 299.952 359.667 300 359.546 300Z" fill="#3F3D56"/>
</g>
<defs>
<clipPath id="clip0">
<rect width="360" height="300" fill="white"/>
</clipPath>
</defs>
</svg>
