<svg width="54" height="54" viewBox="0 0 54 54" fill="none" xmlns="http://www.w3.org/2000/svg">
<path d="M53.2752 2.01442C53.2074 1.69881 53.0499 1.40949 52.8216 1.18123C52.5933 0.952971 52.3038 0.795493 51.9881 0.727724C48.5911 0 45.9337 0 43.2857 0C32.3984 0 25.8681 5.82179 20.9952 13.4998H10.0024C9.0636 13.5006 8.14349 13.7623 7.34484 14.2556C6.54619 14.749 5.90046 15.4546 5.47975 16.2936L0.266085 26.7138C0.0735451 27.0998 -0.0171295 27.5286 0.00266685 27.9595C0.0224632 28.3904 0.152074 28.8091 0.379198 29.1758C0.606322 29.5425 0.923424 29.8452 1.30041 30.055C1.67739 30.2648 2.10176 30.3748 2.53322 30.3746H13.4807L11.1101 32.7444C10.4772 33.3773 10.1216 34.2357 10.1216 35.1306C10.1216 36.0256 10.4772 36.8839 11.1101 37.5168L16.4799 42.8862C16.7934 43.1996 17.1656 43.4483 17.5752 43.618C17.9849 43.7876 18.4239 43.8749 18.8673 43.8749C19.3107 43.8749 19.7498 43.7876 20.1594 43.618C20.569 43.4483 20.9412 43.1996 21.2547 42.8862L23.6253 40.5163V51.468C23.6251 51.8992 23.7352 52.3233 23.945 52.7C24.1548 53.0768 24.4574 53.3937 24.8241 53.6207C25.1908 53.8478 25.6094 53.9774 26.0403 53.9973C26.4711 54.0172 26.8999 53.9268 27.286 53.7345L37.6986 48.5255C38.5392 48.1057 39.2461 47.4599 39.74 46.6607C40.2338 45.8614 40.495 44.9404 40.4942 44.0009V32.9891C48.1523 28.106 53.9979 21.5565 53.9979 10.726C54.0084 8.06825 54.0084 5.41047 53.2752 2.01442V2.01442ZM40.5048 17.7185C39.6702 17.7185 38.8543 17.4711 38.1603 17.0075C37.4664 16.544 36.9255 15.8851 36.6061 15.1142C36.2867 14.3434 36.2032 13.4951 36.366 12.6768C36.5288 11.8584 36.9307 11.1067 37.5209 10.5167C38.111 9.92675 38.8629 9.52496 39.6815 9.36218C40.5001 9.1994 41.3486 9.28295 42.1197 9.60225C42.8907 9.92155 43.5498 10.4623 44.0135 11.156C44.4772 11.8498 44.7247 12.6654 44.7247 13.4998C44.7247 14.6187 44.2801 15.6917 43.4887 16.4829C42.6973 17.274 41.624 17.7185 40.5048 17.7185V17.7185Z" fill="#F9A826"/>
</svg>
