<svg width="530" height="443" viewBox="0 0 530 443" fill="none" xmlns="http://www.w3.org/2000/svg">
<path d="M377.388 72.5543H330.439V29.9487L377.388 72.5543Z" fill="#F9A826"/>
<path d="M382.874 71.1595H146.689V396.888H382.874V71.1595Z" fill="#E6E6E6"/>
<path d="M198.039 93.9978H170.253V152.445H198.039V93.9978Z" fill="white"/>
<path d="M241.019 93.9978H213.232V152.445H241.019V93.9978Z" fill="white"/>
<path d="M194.377 176.838H166.591V235.285H194.377V176.838Z" fill="white"/>
<path d="M241.019 176.838H213.232V235.285H241.019V176.838Z" fill="white"/>
<path d="M194.377 253.488H166.591V311.935H194.377V253.488Z" fill="white"/>
<path d="M239.972 252.444H212.186V310.891H239.972V252.444Z" fill="white"/>
<path d="M280.359 338.572H252.572V397.019H280.359V338.572Z" fill="#CCCCCC"/>
<path d="M322.339 252.444H294.553V310.891H322.339V252.444Z" fill="white"/>
<path d="M368.981 252.444H341.194V310.891H368.981V252.444Z" fill="white"/>
<path d="M323.386 176.22H295.599V234.667H323.386V176.22Z" fill="white"/>
<path d="M370.027 176.22H342.241V234.667H370.027V176.22Z" fill="white"/>
<path d="M323.386 93.9978H295.599V152.445H323.386V93.9978Z" fill="white"/>
<path d="M370.027 93.9978H342.241V152.445H370.027V93.9978Z" fill="white"/>
<path d="M382.874 146.447H146.689V155.363H382.874V146.447Z" fill="#F9A826"/>
<path d="M382.874 215.791H146.689V220.744H382.874V215.791Z" fill="#3F3D56"/>
<path d="M382.874 199.941H146.689V204.894H382.874V199.941Z" fill="#F9A826"/>
<path d="M170.01 315.844V276.219H165.048V315.844H170.01Z" fill="#3F3D56"/>
<path d="M197.796 315.844V276.219H192.835V315.844H197.796Z" fill="#3F3D56"/>
<path d="M225.583 315.844V276.219H220.621V315.844H225.583Z" fill="#3F3D56"/>
<path d="M253.369 315.844V276.219H248.407V315.844H253.369Z" fill="#3F3D56"/>
<path d="M281.156 315.844V276.219H276.194V315.844H281.156Z" fill="#3F3D56"/>
<path d="M308.942 315.844V276.219H303.98V315.844H308.942Z" fill="#3F3D56"/>
<path d="M336.729 315.844V276.219H331.767V315.844H336.729Z" fill="#3F3D56"/>
<path d="M364.515 315.844V276.219H359.553V315.844H364.515Z" fill="#3F3D56"/>
<path d="M170.506 240.556V200.931H165.544V240.556H170.506Z" fill="#3F3D56"/>
<path d="M198.293 240.556V200.931H193.331V240.556H198.293Z" fill="#3F3D56"/>
<path d="M226.079 240.556V200.931H221.117V240.556H226.079Z" fill="#3F3D56"/>
<path d="M253.865 240.556V200.932H248.904V240.556H253.865Z" fill="#3F3D56"/>
<path d="M281.652 240.557V200.931H276.69V240.557H281.652Z" fill="#3F3D56"/>
<path d="M309.438 240.556V200.932H304.477V240.556H309.438Z" fill="#3F3D56"/>
<path d="M337.225 240.557V200.931H332.263V240.557H337.225Z" fill="#3F3D56"/>
<path d="M365.011 240.556V200.932H360.049V240.556H365.011Z" fill="#3F3D56"/>
<path d="M170.506 152.391V112.766H165.544V152.391H170.506Z" fill="#3F3D56"/>
<path d="M198.293 152.391V112.766H193.331V152.391H198.293Z" fill="#3F3D56"/>
<path d="M226.079 152.391V112.766H221.117V152.391H226.079Z" fill="#3F3D56"/>
<path d="M253.865 152.391V112.766H248.904V152.391H253.865Z" fill="#3F3D56"/>
<path d="M281.652 152.391V112.766H276.69V152.391H281.652Z" fill="#3F3D56"/>
<path d="M309.438 152.391V112.766H304.477V152.391H309.438Z" fill="#3F3D56"/>
<path d="M337.225 152.391V112.766H332.263V152.391H337.225Z" fill="#3F3D56"/>
<path d="M365.011 152.391V112.766H360.049V152.391H365.011Z" fill="#3F3D56"/>
<path d="M382.874 126.635H146.689V131.588H382.874V126.635Z" fill="#3F3D56"/>
<path d="M382.874 110.785H146.689V115.738H382.874V110.785Z" fill="#F9A826"/>
<path d="M382.874 232.632H146.689V241.547H382.874V232.632Z" fill="#F9A826"/>
<path d="M393.742 67.4945H135.821V80.7802H393.742V67.4945Z" fill="#F9A826"/>
<path d="M198.092 351.21V338.572H182.899V351.21H196.825H198.092Z" fill="white"/>
<path d="M196.825 361.32H182.899V373.959H198.092V361.32H196.825Z" fill="white"/>
<path d="M223.413 338.572H208.22V351.21H223.413V338.572Z" fill="white"/>
<path d="M223.413 361.321H208.22V373.959H223.413V361.321Z" fill="white"/>
<path d="M322.004 351.21V338.572H306.812V351.21H320.738H322.004Z" fill="white"/>
<path d="M320.738 361.32H306.812V373.959H322.004V361.32H320.738Z" fill="white"/>
<path d="M347.325 338.572H332.133V351.21H347.325V338.572Z" fill="white"/>
<path d="M347.325 361.321H332.133V373.959H347.325V361.321Z" fill="white"/>
<path d="M382.874 307.919H146.689V316.835H382.874V307.919Z" fill="#F9A826"/>
<path d="M382.874 292.069H146.689V297.022H382.874V292.069Z" fill="#3F3D56"/>
<path d="M382.874 276.219H146.689V281.172H382.874V276.219Z" fill="#F9A826"/>
<path d="M218.192 392.642C218.193 392.367 218.189 392.092 218.181 391.819C217.969 384.517 210.712 382.536 206.822 385.993C205.594 384.929 204.023 384.343 202.397 384.343C200.771 384.343 199.2 384.929 197.972 385.993C194.065 382.591 186.953 384.43 186.718 391.65C186.709 391.923 186.704 392.197 186.704 392.473C186.715 393.991 186.808 395.508 186.983 397.016H217.917C218.085 395.564 218.177 394.104 218.192 392.642Z" fill="#F9A826"/>
<path d="M341.137 392.642C341.137 392.367 341.134 392.092 341.126 391.819C340.913 384.517 333.657 382.536 329.766 385.993C328.539 384.929 326.967 384.343 325.341 384.343C323.715 384.343 322.144 384.929 320.916 385.993C317.009 382.591 309.897 384.43 309.662 391.65C309.653 391.923 309.649 392.197 309.648 392.473C309.66 393.991 309.753 395.508 309.927 397.016H340.861C341.03 395.564 341.121 394.104 341.137 392.642Z" fill="#F9A826"/>
<path d="M510.791 397.509H506.007L507.602 304.222H509.197L510.791 397.509Z" fill="#E6E6E6"/>
<path d="M514.778 245.49L522.5 233.576C520.21 227.261 517.565 221.08 514.578 215.062L509.584 219.088L513.538 212.988C509.77 205.584 506.805 200.919 506.805 200.919C506.805 200.919 491.317 225.282 486.143 251.077L496.052 266.366L485.082 257.52C484.691 260.525 484.49 263.552 484.48 266.582C484.48 297.132 494.475 321.898 506.805 321.898C519.134 321.898 529.13 297.132 529.13 266.582C529.13 257.111 526.983 247.202 524.022 238.036L514.778 245.49Z" fill="#E6E6E6"/>
<path d="M364.876 427.242H274.326V430.815H364.876V427.242Z" fill="#E6E6E6"/>
<path d="M530 427.242H438.96V430.815H530V427.242Z" fill="#E6E6E6"/>
<path d="M200.36 427.242H109.692V430.815H200.36V427.242Z" fill="#E6E6E6"/>
<path d="M529.628 396.938H0V397.934H529.628V396.938Z" fill="#3F3D56"/>
<path d="M415.399 414.142L426.062 414.148L426.062 412.458L415.4 412.452L415.399 414.142Z" fill="#3F3D56"/>
<path d="M338.305 412.834L340.505 413.342L424.115 413.386L424.867 411.638C426.179 408.638 426.629 405.334 426.167 402.094C425.807 399.679 424.905 397.279 422.855 396.237L419.145 371.568L372.888 371.485L354.991 385.894C354.991 385.894 346.549 385.743 341.962 391.443C340.308 393.562 339.331 396.13 339.159 398.811L338.978 401.776L338.305 412.834Z" fill="#F9A826"/>
<path d="M356.669 422.727C362.371 422.727 366.993 418.113 366.993 412.421C366.993 406.729 362.371 402.115 356.669 402.115C350.967 402.115 346.345 406.729 346.345 412.421C346.345 418.113 350.967 422.727 356.669 422.727Z" fill="#3F3D56"/>
<path d="M356.669 417.845C359.67 417.845 362.103 415.417 362.103 412.421C362.103 409.425 359.67 406.997 356.669 406.997C353.668 406.997 351.235 409.425 351.235 412.421C351.235 415.417 353.668 417.845 356.669 417.845Z" fill="#CCCCCC"/>
<path d="M407.614 422.754C413.316 422.754 417.938 418.14 417.938 412.448C417.938 406.756 413.316 402.142 407.614 402.142C401.912 402.142 397.29 406.756 397.29 412.448C397.29 418.14 401.912 422.754 407.614 422.754Z" fill="#3F3D56"/>
<path d="M407.614 417.873C410.615 417.873 413.048 415.444 413.048 412.448C413.048 409.453 410.615 407.024 407.614 407.024C404.613 407.024 402.18 409.453 402.18 412.448C402.18 415.444 404.613 417.873 407.614 417.873Z" fill="#CCCCCC"/>
<path d="M362.101 384.21L387.077 384.221H390.125L395.273 384.224V383.849L395.276 379.332L395.28 374.258H391.856L388.807 374.254L383.406 374.251H380.358L374.123 374.247L362.101 384.21Z" fill="white"/>
<path d="M399.337 384.228L412.536 384.235L412.539 381.65V377.131L412.543 374.269H410.61L407.562 374.265L399.34 374.261L399.337 384.228Z" fill="white"/>
<path d="M393.573 394.872L395.266 394.873L395.268 391.662L393.575 391.662L393.573 394.872Z" fill="#3F3D56"/>
<path d="M368.87 388.776L368.871 387.087L365.655 387.085L365.654 388.774L368.87 388.776Z" fill="#3F3D56"/>
<path d="M367.684 387.827L367.497 387.827C366.559 387.827 365.66 387.454 364.997 386.792C364.334 386.129 363.962 385.231 363.962 384.294C363.963 383.358 364.336 382.46 364.999 381.798C365.663 381.136 366.563 380.764 367.501 380.765L367.687 380.765L367.684 387.827Z" fill="#3F3D56"/>
<path d="M338.978 401.776C340.258 401.915 341.546 401.599 342.615 400.883C343.684 400.167 344.466 399.097 344.823 397.862C345.179 396.627 345.088 395.306 344.565 394.132C344.041 392.958 343.12 392.005 341.962 391.443C340.308 393.562 339.331 396.13 339.159 398.811L338.978 401.776Z" fill="#3F3D56"/>
<path d="M388.807 374.254L395.273 383.849L395.276 379.332L391.856 374.258L388.807 374.254Z" fill="#F2F2F2"/>
<path d="M407.562 374.265L412.539 381.65V377.131L410.61 374.269L407.562 374.265Z" fill="#F2F2F2"/>
<path d="M380.358 374.251L387.077 384.221H390.125L383.406 374.251H380.358Z" fill="#F2F2F2"/>
<path d="M244.802 0.62412L244.733 0.661636C243.988 1.06845 243.153 1.28307 242.303 1.28605C241.454 1.28902 240.617 1.08024 239.869 0.678662C239.826 0.655452 239.783 0.632532 239.741 0.609905C238.993 0.211371 238.158 0.00429218 237.31 0.00721441C236.462 0.0101366 235.628 0.22297 234.883 0.62665L234.818 0.661636C234.073 1.06845 233.238 1.28307 232.389 1.28605C231.54 1.28902 230.703 1.08024 229.955 0.678662C229.91 0.654567 229.866 0.630784 229.822 0.607311C229.082 0.210604 228.257 0.00225487 227.417 0.000772548C226.578 -0.000709776 225.751 0.204723 225.011 0.598816C222.749 1.81493 219.691 3.89418 219.704 6.24237C219.705 6.33523 219.71 6.428 219.72 6.52032C219.983 8.95892 227.951 9.58028 232.328 8.43104C235.591 9.17423 238.98 9.17423 242.242 8.43104C246.601 9.59868 254.731 8.92972 254.968 6.46314C254.977 6.37072 254.982 6.27791 254.981 6.18507C254.968 3.83561 251.882 1.77815 249.606 0.579154C248.863 0.191321 248.036 -0.00749905 247.198 0.000345514C246.36 0.00819008 245.537 0.222454 244.802 0.62412Z" fill="#E6E6E6"/>
<path d="M464.314 81.1384L464.245 81.1759C463.5 81.5827 462.665 81.7973 461.815 81.8003C460.966 81.8033 460.129 81.5945 459.381 81.1929C459.338 81.1697 459.295 81.1468 459.253 81.1241C458.505 80.7256 457.67 80.5185 456.822 80.5215C455.974 80.5244 455.14 80.7372 454.395 81.1409L454.33 81.1759C453.585 81.5827 452.75 81.7973 451.901 81.8003C451.052 81.8033 450.215 81.5945 449.467 81.1929C449.422 81.1688 449.378 81.145 449.334 81.1216C448.594 80.7249 447.769 80.5165 446.929 80.515C446.09 80.5135 445.264 80.719 444.523 81.1131C442.261 82.3292 439.203 84.4084 439.216 86.7566C439.217 86.8495 439.222 86.9422 439.232 87.0346C439.495 89.4732 447.463 90.0945 451.84 88.9453C455.103 89.6885 458.492 89.6885 461.754 88.9453C466.113 90.113 474.243 89.444 474.48 86.9774C474.489 86.885 474.494 86.7922 474.493 86.6993C474.48 84.3499 471.394 82.2924 469.118 81.0934C468.375 80.7056 467.548 80.5067 466.71 80.5146C465.872 80.5224 465.049 80.7367 464.314 81.1384Z" fill="#E6E6E6"/>
<path d="M79.9114 85.6329L79.8424 85.6703C79.0973 86.0772 78.2621 86.2918 77.4128 86.2948C76.5635 86.2977 75.7269 86.089 74.9789 85.6874C74.9358 85.6642 74.8929 85.6413 74.8503 85.6186C74.1024 85.2201 73.2671 85.013 72.4192 85.0159C71.5714 85.0189 70.7375 85.2317 69.9923 85.6354L69.928 85.6703C69.1828 86.0772 68.3477 86.2918 67.4984 86.2948C66.6491 86.2977 65.8125 86.089 65.0645 85.6874C65.0197 85.6633 64.9752 85.6395 64.931 85.616C64.1919 85.2193 63.366 85.011 62.5268 85.0095C61.6876 85.008 60.861 85.2134 60.1205 85.6075C57.8583 86.8236 54.8001 88.9029 54.8136 91.2511C54.8141 91.3439 54.8194 91.4367 54.8294 91.529C55.0924 93.9676 63.0603 94.589 67.4375 93.4397C70.7004 94.1829 74.089 94.1829 77.3519 93.4397C81.7103 94.6074 89.8403 93.9384 90.078 91.4719C90.0869 91.3794 90.0911 91.2866 90.0906 91.1938C90.0772 88.8443 86.9919 86.7869 84.7156 85.5879C83.9729 85.2 83.1459 85.0012 82.3078 85.0091C81.4697 85.0169 80.6466 85.2312 79.9114 85.6329Z" fill="#E6E6E6"/>
<path d="M65.707 432.701H55.0441V434.39H65.707V432.701Z" fill="#3F3D56"/>
<path d="M142.801 433.079L140.601 433.587L56.9905 433.632L56.2387 431.883C54.9274 428.884 54.4773 425.579 54.9388 422.339C55.2989 419.924 56.2012 417.525 58.2507 416.482L61.9611 391.813L108.218 391.73L126.115 406.14C126.115 406.14 134.557 405.988 139.144 411.688C140.798 413.808 141.775 416.375 141.947 419.057L142.128 422.022L142.801 433.079Z" fill="#F9A826"/>
<path d="M124.437 442.973C130.139 442.973 134.761 438.359 134.761 432.667C134.761 426.975 130.139 422.36 124.437 422.36C118.735 422.36 114.113 426.975 114.113 432.667C114.113 438.359 118.735 442.973 124.437 442.973Z" fill="#3F3D56"/>
<path d="M124.437 438.091C127.438 438.091 129.871 435.662 129.871 432.667C129.871 429.671 127.438 427.242 124.437 427.242C121.436 427.242 119.003 429.671 119.003 432.667C119.003 435.662 121.436 438.091 124.437 438.091Z" fill="#CCCCCC"/>
<path d="M73.4921 443C79.1941 443 83.8165 438.386 83.8165 432.694C83.8165 427.002 79.1941 422.388 73.4921 422.388C67.7901 422.388 63.1677 427.002 63.1677 432.694C63.1677 438.386 67.7901 443 73.4921 443Z" fill="#3F3D56"/>
<path d="M73.4921 438.118C76.4932 438.118 78.926 435.69 78.926 432.694C78.926 429.698 76.4932 427.27 73.4921 427.27C70.4911 427.27 68.0582 429.698 68.0582 432.694C68.0582 435.69 70.4911 438.118 73.4921 438.118Z" fill="#CCCCCC"/>
<path d="M119.005 404.455L94.0293 404.467H90.9806L85.8334 404.47V404.095L85.8298 399.577L85.8262 394.504H89.2507L92.2995 394.5L97.6996 394.496H100.748L106.983 394.492L119.005 404.455Z" fill="white"/>
<path d="M81.7694 404.474L68.5701 404.481L68.5665 401.896V397.377L68.5629 394.514H70.4956L73.5443 394.511L81.7659 394.507L81.7694 404.474Z" fill="white"/>
<path d="M87.5298 411.905H85.8373V415.116H87.5298V411.905Z" fill="#3F3D56"/>
<path d="M115.454 409.018L115.453 407.328L112.237 407.33L112.238 409.02L115.454 409.018Z" fill="#3F3D56"/>
<path d="M113.42 401.01H113.607C114.071 401.01 114.531 401.101 114.96 401.278C115.39 401.456 115.779 401.716 116.108 402.044C116.436 402.372 116.697 402.761 116.875 403.189C117.053 403.618 117.144 404.077 117.144 404.541C117.144 405.477 116.771 406.375 116.108 407.038C115.445 407.7 114.545 408.072 113.607 408.072H113.42V401.01H113.42Z" fill="#3F3D56"/>
<path d="M142.128 422.022C140.848 422.161 139.56 421.844 138.491 421.128C137.422 420.412 136.64 419.342 136.283 418.108C135.927 416.873 136.018 415.552 136.541 414.377C137.065 413.203 137.986 412.251 139.144 411.688C140.798 413.808 141.775 416.375 141.947 419.056L142.128 422.022Z" fill="#3F3D56"/>
<path d="M92.2995 394.5L85.8334 404.095L85.8298 399.577L89.2508 394.504L92.2995 394.5Z" fill="#F2F2F2"/>
<path d="M73.5443 394.511L68.5665 401.896V397.377L70.4956 394.514L73.5443 394.511Z" fill="#F2F2F2"/>
<path d="M100.748 394.496L94.0293 404.467H90.9806L97.6996 394.496H100.748Z" fill="#F2F2F2"/>
</svg>
