<svg width="207" height="149" viewBox="0 0 207 149" fill="none" xmlns="http://www.w3.org/2000/svg">
<g clip-path="url(#clip0)">
<path opacity="0.1" d="M9.60193 59.0999C12.76 67.3542 19.4441 74.4992 30.0086 77.9627C51.9634 85.1559 101.476 81.4459 138.428 77.1875C157.544 74.985 174.342 68.9082 186.546 60.3503L9.60193 59.0999Z" fill="#F9A826"/>
<path opacity="0.1" d="M203.382 20.2132H183.116C182.154 20.2132 181.364 19.7309 181.364 19.1414C181.364 18.552 182.154 18.0697 183.116 18.0697H186.621C185.657 18.0697 184.869 17.5874 184.869 16.9979C184.869 16.4085 185.657 15.9262 186.621 15.9262H184.118C183.154 15.9262 182.366 15.4439 182.366 14.8544C182.366 14.265 183.154 13.7827 184.118 13.7827H194.698C192.35 13.1128 189.613 12.6377 186.441 12.3894C157.581 10.1173 147.277 11.6231 143.643 13.1611C138.927 15.1569 133.935 16.4972 128.818 17.1408C111.007 19.3879 77.7125 22.0941 47.5349 16.2674C32.5362 13.3754 21.3881 18.2626 14.7059 26.4311H206.904C206.653 24.0554 205.902 21.8637 204.523 19.9452C204.172 20.1242 203.78 20.2163 203.382 20.2132V20.2132Z" fill="#F9A826"/>
<path opacity="0.1" d="M7.88111 41.8555C7.10252 46.6604 7.37014 51.5664 8.66736 56.2687L186.683 60.2539C191.611 56.7814 195.786 52.9017 199.051 48.7093L7.88111 41.8555ZM78.2885 52.1371H74.7907C75.7533 52.1371 76.5415 52.6212 76.5415 53.2089C76.5415 53.7966 75.7533 54.2806 74.7907 54.2806H54.5247C53.5602 54.2806 52.7721 53.7983 52.7721 53.2089C52.7721 52.6194 53.5602 52.1371 54.5247 52.1371H58.0281C57.0655 52.1371 56.2755 51.6548 56.2755 51.0654C56.2755 50.4759 57.0655 49.9936 58.0281 49.9936H55.5099C54.5473 49.9936 53.7573 49.5096 53.7573 48.9219C53.7573 48.3342 54.5473 47.8501 55.5099 47.8501H75.7852C76.7498 47.8501 77.5379 48.3324 77.5379 48.9219C77.5379 49.5113 76.7498 49.9936 75.7852 49.9936H78.2885C79.253 49.9936 80.0411 50.4759 80.0411 51.0654C80.0411 51.6548 79.253 52.1371 78.2885 52.1371Z" fill="#F9A826"/>
<path opacity="0.1" d="M206.912 26.5115L12.5611 29.4053C10.1908 33.176 8.61044 37.3481 7.90747 41.6911H203.506C204.757 39.1924 205.702 36.5648 206.321 33.8602C206.912 31.2987 207.145 28.8194 206.912 26.5115ZM47.3679 35.993H43.8627C44.8272 35.993 45.6153 36.477 45.6153 37.0647C45.6153 37.6524 44.8272 38.1365 43.8627 38.1365H23.5967C22.6322 38.1365 21.8441 37.6542 21.8441 37.0647C21.8441 36.4752 22.6322 35.993 23.5967 35.993H27.102C26.1375 35.993 25.3493 35.5107 25.3493 34.9212C25.3493 34.3317 26.1375 33.8495 27.102 33.8495H24.5894C23.6249 33.8495 22.8367 33.3654 22.8367 32.7777C22.8367 32.19 23.6249 31.706 24.5894 31.706H44.8553C45.818 31.706 46.6061 32.1882 46.6061 32.7777C46.6061 33.3672 45.818 33.8495 44.8553 33.8495H47.3586C48.3212 33.8495 49.1093 34.3317 49.1093 34.9212C49.1093 35.5107 48.3325 35.993 47.3679 35.993Z" fill="#F9A826"/>
<path d="M110.018 47.0981H108.973V101.945H110.018V47.0981Z" fill="#535F89"/>
<path d="M111.007 112.203C110.528 112.557 109.94 112.749 109.334 112.749C108.728 112.749 108.139 112.557 107.661 112.203C107.194 109.268 108.38 103.501 108.659 102.2L108.717 101.94H110.069C110.158 102.025 110.229 102.126 110.277 102.238C111.194 104.119 111.007 112.203 111.007 112.203Z" fill="#535F89"/>
<path opacity="0.1" d="M109.785 100.757V101.941H109.222V100.757C109.313 100.742 109.404 100.735 109.496 100.735C109.593 100.735 109.69 100.743 109.785 100.757V100.757Z" fill="black"/>
<path opacity="0.1" d="M110.267 102.243C110.03 102.364 109.764 102.425 109.494 102.422C109.202 102.429 108.913 102.356 108.663 102.211L108.721 101.95H110.069C110.154 102.034 110.222 102.134 110.267 102.243V102.243Z" fill="black"/>
<path d="M109.494 102.215C110.117 102.215 110.622 101.929 110.622 101.577C110.622 101.225 110.117 100.939 109.494 100.939C108.872 100.939 108.367 101.225 108.367 101.577C108.367 101.929 108.872 102.215 109.494 102.215Z" fill="#DCE2ED"/>
<path d="M104.539 38.2631L108.509 36.4537L114.364 37.7862L109.821 34.5174L104.539 38.2631Z" fill="#F9A826"/>
<path d="M105.7 38.842L104.539 38.2632L108.509 36.4537L114.364 37.7863L113.334 38.2632L108.509 37.2325L105.7 38.842Z" fill="#F9A826"/>
<path opacity="0.1" d="M105.7 38.842L104.539 38.2632L108.509 36.4537L114.364 37.7863L113.334 38.2632L108.509 37.2325L105.7 38.842Z" fill="black"/>
<path opacity="0.2" d="M105.543 38.4151L108.738 46.9391H110.322L113.281 37.8864L108.509 36.8307L105.543 38.4151Z" fill="#F9A826"/>
<path d="M111.106 44.5401L110.476 46.4729L110.322 46.9391H108.738L108.62 46.6229L107.873 44.6312L109.072 43.9453L111.106 44.5401Z" fill="#F9A826"/>
<path opacity="0.2" d="M108.509 37.2327L109.266 46.9391H108.738L105.7 38.8421L108.509 37.2327Z" fill="#F9A826"/>
<path opacity="0.1" d="M109.821 34.5174L108.509 36.4537L104.539 38.2631L109.821 34.5174Z" fill="black"/>
<path opacity="0.1" d="M110.476 46.4728L110.324 46.939H108.738L108.62 46.6228C108.754 46.4985 108.913 46.4024 109.088 46.3408C109.264 46.2792 109.451 46.2536 109.637 46.2656C109.932 46.2558 110.223 46.3278 110.476 46.4728V46.4728Z" fill="black"/>
<path opacity="0.1" d="M109.785 47.0981V47.9287C109.736 47.9287 109.688 47.9287 109.637 47.9287C109.497 47.9293 109.357 47.9137 109.22 47.8822V47.0981H109.785Z" fill="black"/>
<path d="M109.635 47.7357C110.258 47.7357 110.763 47.4502 110.763 47.098C110.763 46.7458 110.258 46.4603 109.635 46.4603C109.012 46.4603 108.507 46.7458 108.507 47.098C108.507 47.4502 109.012 47.7357 109.635 47.7357Z" fill="#DCE2ED"/>
<path d="M150.636 73.774H149.946V110.035H150.636V73.774Z" fill="#535F89"/>
<path d="M151.293 116.817C150.977 117.051 150.588 117.178 150.188 117.178C149.788 117.178 149.399 117.051 149.083 116.817C148.773 114.877 149.557 111.062 149.741 110.208C149.766 110.095 149.781 110.029 149.781 110.029H150.664C150.724 110.085 150.771 110.152 150.803 110.226C151.415 111.474 151.293 116.817 151.293 116.817Z" fill="#535F89"/>
<path opacity="0.1" d="M150.482 109.251V110.035H150.107V109.251C150.169 109.24 150.232 109.235 150.295 109.236C150.358 109.237 150.42 109.241 150.482 109.251V109.251Z" fill="black"/>
<path opacity="0.1" d="M150.803 110.224C150.645 110.302 150.469 110.341 150.291 110.338C150.098 110.342 149.907 110.295 149.741 110.201C149.766 110.088 149.781 110.022 149.781 110.022H150.664C150.725 110.08 150.772 110.149 150.803 110.224V110.224Z" fill="black"/>
<path d="M150.291 110.213C150.702 110.213 151.036 110.025 151.036 109.792C151.036 109.559 150.702 109.37 150.291 109.37C149.88 109.37 149.546 109.559 149.546 109.792C149.546 110.025 149.88 110.213 150.291 110.213Z" fill="#DCE2ED"/>
<path d="M147.015 67.9328L149.64 66.736L153.511 67.6184L150.507 65.457L147.015 67.9328Z" fill="#F9A826"/>
<path d="M147.782 68.3152L147.015 67.9329L149.64 66.7361L153.511 67.6185L152.83 67.9329L149.64 67.2523L147.782 68.3152Z" fill="#F9A826"/>
<path opacity="0.1" d="M147.782 68.3152L147.015 67.9329L149.64 66.7361L153.511 67.6185L152.83 67.9329L149.64 67.2523L147.782 68.3152Z" fill="black"/>
<path opacity="0.2" d="M147.677 68.033L149.79 73.6685H150.839L152.794 67.6847L149.64 66.9863L147.677 68.033Z" fill="#F9A826"/>
<path d="M151.357 72.0823L150.94 73.3612L150.839 73.6702H149.79L149.713 73.4612L149.219 72.1448L150.011 71.6911L151.357 72.0823Z" fill="#F9A826"/>
<path opacity="0.2" d="M149.64 67.2523L150.141 73.6685H149.79L147.782 68.3151L149.64 67.2523Z" fill="#F9A826"/>
<path opacity="0.1" d="M150.507 65.457L149.64 66.736L147.015 67.9328L150.507 65.457Z" fill="black"/>
<path opacity="0.1" d="M150.94 73.3612L150.839 73.6685H149.792L149.713 73.4595C149.801 73.3768 149.906 73.3128 150.022 73.2715C150.138 73.2303 150.261 73.2128 150.385 73.2201C150.58 73.2147 150.773 73.2638 150.94 73.3612V73.3612Z" fill="black"/>
<path opacity="0.1" d="M150.482 73.7738V74.3204H150.385C150.293 74.3207 150.201 74.3105 150.111 74.29V73.7667L150.482 73.7738Z" fill="black"/>
<path d="M150.385 74.1954C150.796 74.1954 151.13 74.0067 151.13 73.7739C151.13 73.5411 150.796 73.3524 150.385 73.3524C149.973 73.3524 149.64 73.5411 149.64 73.7739C149.64 74.0067 149.973 74.1954 150.385 74.1954Z" fill="#DCE2ED"/>
<path opacity="0.1" d="M83.5033 149C129.621 149 167.007 145.481 167.007 141.14C167.007 136.8 129.621 133.281 83.5033 133.281C37.3857 133.281 0 136.8 0 141.14C0 145.481 37.3857 149 83.5033 149Z" fill="#F9A826"/>
<path d="M83.8485 122.847C83.8485 122.847 67.1103 122.177 65.3483 90.9803C63.5863 59.7834 81.03 54.4997 81.03 54.4997C81.03 54.4997 86.5563 51.5613 89.0069 51.4399C91.4576 51.3184 99.6484 52.0525 99.6484 52.0525L90.6188 50.3949C90.6188 50.3949 103.324 45.7917 107.132 45.4238L93.396 48.1853C93.396 48.1853 93.2084 40.9421 96.4922 38.5485C96.4922 38.5485 93.6775 38.3484 92.1932 43.5661C91.7707 45.0715 90.9833 46.4617 89.8942 47.625C88.8051 48.7883 87.4446 49.6923 85.922 50.2645C80.8274 52.1562 73.7831 55.1428 72.1787 57.7007C72.1787 57.7007 69.212 60.648 69.6642 52.9743C70.1164 45.3005 72.2425 38.7307 73.0175 38.5467C73.0175 38.5467 79.0785 32.4091 87.5921 32.0412C87.5921 32.0412 82.6269 30.137 74.2428 36.0924C74.2428 36.0924 73.5335 33.0843 76.6935 29.5225C79.8535 25.9608 84.7623 18.4728 90.1065 17.6761C90.1065 17.6761 82.6269 17.2456 76.6935 26.4538C76.6935 26.4538 74.4999 27.8042 74.3066 24.3674C74.1133 20.9307 72.8242 16.6312 72.8242 16.6312C72.8242 16.6312 71.0171 24.5514 74.8226 28.1114C74.8226 28.1114 67.5344 37.1356 67.8571 47.2654C67.8571 47.2654 65.6054 51.8686 64.7628 46.4669C64.7628 46.4669 64.2768 39.0272 63.3067 32.7128C62.9143 30.1694 63.0775 27.5763 63.7859 25.0957C64.4943 22.6151 65.7327 20.3002 67.4237 18.2959C69.0356 16.3864 70.1577 14.5323 69.5347 13.5588L61.0906 23.1349C61.0906 23.1349 53.9881 7.48555 48.8296 4.11667C43.6712 0.747802 43.0257 0.00829315 43.0257 0.00829315L51.3441 9.27716L40.8978 5.76539L51.3441 10.3686C51.3441 10.3686 56.1817 14.1197 58.9551 24.3656C61.7286 34.6116 61.9856 41.001 61.9856 41.001C61.9856 41.001 47.0883 29.7673 44.251 30.1352L53.8905 37.0766C56.5128 38.9639 58.6788 41.3651 60.2421 44.1179C61.8054 46.8708 62.7295 49.911 62.952 53.0332V53.0332C62.952 53.0332 44.3148 48.4908 39.8 47.6316L31.2883 39.3434L37.7378 47.2029L24.4523 47.0242L16.8432 41.8673C16.8432 41.8673 22.8479 46.6563 22.2587 46.9635C21.6695 47.2707 12.9082 47.6387 12.9082 47.6387C12.9082 47.6387 35.2214 47.5155 37.6777 49.0499C40.134 50.5842 45.6096 51.138 45.6096 51.138L29.8096 53.4083L48.642 52.1204C48.642 52.1204 62.8938 54.5747 63.667 58.8117C63.667 58.8117 60.764 66.021 58.8313 68.879C57.225 71.2548 53.9937 78.9464 53.3501 85.7002C52.7064 92.454 51.802 102.827 54.2527 109.15C56.7033 115.473 57.6059 119.096 56.3806 120.998C55.1553 122.901 53.9937 125.357 57.9925 125.848C61.9913 126.339 79.5326 125.603 79.5326 125.603C79.5326 125.603 84.8824 126.604 83.8485 122.847Z" fill="#DEA3A2"/>
<path opacity="0.1" d="M74.4737 119.502C72.7192 118.65 70.7068 118.411 68.7861 118.825C65.5022 119.502 60.4714 119.143 60.0135 119.068" fill="black"/>
<path opacity="0.1" d="M63.9673 82.7409C63.9673 82.7409 63.1679 94.7409 64.5884 97.1077L63.9673 82.7409Z" fill="black"/>
<path opacity="0.1" d="M61.0175 97.1076C61.0175 97.1076 62.042 108.347 62.7513 110.544C63.4606 112.741 61.0175 97.1076 61.0175 97.1076Z" fill="black"/>
<path opacity="0.1" d="M60.0191 69.4726C59.2929 69.7262 56.1855 75.7244 56.8085 77.5017C57.4314 79.279 60.0191 69.4726 60.0191 69.4726Z" fill="black"/>
<path opacity="0.1" d="M67.8966 63.2458C67.5608 63.3905 66.114 66.8469 66.3955 67.8686C66.6769 68.8904 67.8966 63.2458 67.8966 63.2458Z" fill="black"/>
<path opacity="0.1" d="M54.4423 83.3965C54.8025 86.8814 55.0052 89.1625 54.7688 91.9526C54.5759 94.1195 54.6086 96.2992 54.8663 98.4599" fill="black"/>
<path opacity="0.1" d="M93.3492 42.8218C92.912 43.2969 92.7656 43.956 92.745 44.5884C92.7244 45.2207 92.8088 45.853 92.7656 46.4836C92.7187 47.1463 92.3903 47.9251 91.696 48.0126" fill="black"/>
<path opacity="0.1" d="M81.441 22.0459C80.5578 22.88 79.7749 23.805 79.1067 24.8039C78.9123 25.1186 78.6907 25.4173 78.4443 25.697C78.069 26.0864 77.5923 26.3633 77.1645 26.6955C76.1594 27.4727 75.4441 28.5376 75.1248 29.7322" fill="black"/>
<path opacity="0.1" d="M47.7283 4.10838C47.9406 4.50107 48.2203 4.85727 48.5558 5.16227C48.8485 5.42663 49.1825 5.6517 49.4471 5.94107C49.6564 6.19346 49.8446 6.46102 50.0101 6.74131C50.6894 7.77555 51.5432 8.69546 52.3951 9.59931" fill="black"/>
<path opacity="0.1" d="M63.3444 21.8673C62.7814 22.1978 62.6444 22.9051 62.6557 23.5285C62.667 24.1519 62.7795 24.8021 62.5375 25.3809C62.4268 25.6452 62.2466 25.8774 62.1303 26.1382C61.9314 26.5884 61.9314 27.0921 61.9426 27.5815C61.952 28.146 61.9708 28.7122 61.9971 29.2767C62.0271 29.9554 62.0946 30.6949 62.5806 31.1933" fill="black"/>
<path opacity="0.1" d="M62.8808 55.5077C62.5142 55.221 62.1238 54.963 61.7136 54.7361C61.3396 54.5179 60.9362 54.3491 60.5145 54.2341C59.8709 54.0716 59.201 54.0966 58.533 54.0305C57.8649 53.9644 57.1781 53.7894 56.7278 53.316" fill="black"/>
<path opacity="0.1" d="M36.6589 47.7518C37.4433 47.7732 38.2577 47.8 38.9558 48.1412C39.3123 48.3198 39.6219 48.5663 39.9709 48.7521C40.4241 48.9911 40.9334 49.1171 41.4515 49.1183" fill="black"/>
<path opacity="0.1" d="M47.5386 50.835C47.3697 50.7099 47.1145 50.8064 46.9757 50.96C46.8368 51.1136 46.7599 51.3173 46.6154 51.4602C46.3283 51.7549 45.8648 51.7888 45.4388 51.8031" fill="black"/>
<path opacity="0.1" d="M52.0254 34.9677L52.776 35.3446C53.5607 35.7031 54.3068 36.1339 55.0034 36.6307" fill="black"/>
<path opacity="0.1" d="M60.6421 41.9893C61.1375 41.8767 61.5653 42.3805 61.6535 42.8574C61.7417 43.3343 61.6385 43.8381 61.7792 44.3043C61.9368 44.7094 62.1942 45.0727 62.5298 45.3635" fill="black"/>
<path opacity="0.1" d="M69.0301 42.8629C69.4823 44.1454 68.5253 45.5423 68.8049 46.8694C68.8893 47.2731 69.0864 47.6482 69.1802 48.0501C69.441 49.104 68.9925 50.2258 68.2682 51.0635" fill="black"/>
<path d="M42.0688 32.4579H40.7646V100.921H42.0688V32.4579Z" fill="#535F89"/>
<path d="M43.3073 113.727C42.7104 114.169 41.9758 114.409 41.2197 114.409C40.4635 114.409 39.729 114.169 39.1321 113.727C38.5504 110.063 40.0291 102.863 40.3781 101.248L40.4513 100.921H42.1213C42.2324 101.028 42.3209 101.154 42.3822 101.293C43.5381 103.636 43.3073 113.727 43.3073 113.727Z" fill="#535F89"/>
<path opacity="0.1" d="M41.7779 99.4423V100.921H41.0742V99.4405C41.1877 99.4229 41.3026 99.4146 41.4176 99.4155C41.5383 99.4152 41.6588 99.4241 41.7779 99.4423V99.4423Z" fill="black"/>
<path opacity="0.1" d="M42.3821 101.293C42.0848 101.441 41.7531 101.515 41.4176 101.509C41.0521 101.518 40.6915 101.427 40.3781 101.248L40.4512 100.921H42.1213C42.2324 101.028 42.3209 101.154 42.3821 101.293Z" fill="black"/>
<path d="M41.4177 101.257C42.195 101.257 42.8251 100.901 42.8251 100.462C42.8251 100.023 42.195 99.6675 41.4177 99.6675C40.6405 99.6675 40.0104 100.023 40.0104 100.462C40.0104 100.901 40.6405 101.257 41.4177 101.257Z" fill="#DCE2ED"/>
<path d="M35.229 21.4296L40.1867 19.17L47.4955 20.833L41.8229 16.7532L35.229 21.4296Z" fill="#F9A826"/>
<path d="M36.6795 22.1514L35.229 21.4297L40.1867 19.1701L47.4955 20.8331L46.2083 21.4297L40.1867 20.1436L36.6795 22.1514Z" fill="#F9A826"/>
<path opacity="0.1" d="M36.6795 22.1514L35.229 21.4297L40.1867 19.1701L47.4955 20.8331L46.2083 21.4297L40.1867 20.1436L36.6795 22.1514Z" fill="black"/>
<path opacity="0.2" d="M36.4825 21.619L40.4719 32.2579H42.4497L46.1427 20.9599L40.1867 19.6416L36.4825 21.619Z" fill="#F9A826"/>
<path d="M43.4292 29.264L42.6393 31.6773L42.4497 32.2596H40.4719L40.3237 31.8648L39.3929 29.3802L40.8885 28.5228L43.4292 29.264Z" fill="#F9A826"/>
<path opacity="0.2" d="M40.1867 20.1435L41.1306 32.2579H40.4719L36.6796 22.1513L40.1867 20.1435Z" fill="#F9A826"/>
<path opacity="0.1" d="M41.823 16.7532L40.1867 19.17L35.229 21.4296L41.823 16.7532Z" fill="black"/>
<path opacity="0.1" d="M42.6411 31.6772L42.4535 32.2596H40.4719L40.3256 31.8648C40.5489 31.5968 41.0311 31.4111 41.5941 31.4111C41.9627 31.4018 42.3264 31.4942 42.6411 31.6772V31.6772Z" fill="black"/>
<path opacity="0.1" d="M41.7779 32.4579V33.494C41.7178 33.494 41.6559 33.5029 41.5902 33.5029C41.4151 33.5032 41.2406 33.4834 41.0704 33.4439V32.4579H41.7779Z" fill="black"/>
<path d="M41.5922 33.2529C42.3694 33.2529 42.9995 32.8971 42.9995 32.4581C42.9995 32.019 42.3694 31.6632 41.5922 31.6632C40.8149 31.6632 40.1848 32.019 40.1848 32.4581C40.1848 32.8971 40.8149 33.2529 41.5922 33.2529Z" fill="#DCE2ED"/>
<path d="M118.986 97.7616C118.986 97.7616 128.599 97.3758 129.61 79.4597C130.622 61.5436 120.603 58.5069 120.603 58.5069C120.603 58.5069 117.43 56.8189 116.023 56.7493C114.615 56.6796 109.911 57.1065 109.911 57.1065L115.096 56.1545C115.096 56.1545 107.8 53.5108 105.614 53.2964L113.495 54.8826C113.495 54.8826 113.606 50.7225 111.716 49.3453C111.716 49.3453 113.326 49.2309 114.186 52.2265C114.428 53.0914 114.879 53.8902 115.505 54.5585C116.13 55.2268 116.912 55.7459 117.787 56.0741C120.714 57.1619 124.76 58.8767 125.681 60.345C125.681 60.345 127.385 62.0384 127.124 57.6299C126.863 53.2214 125.643 49.4489 125.199 49.3435C125.199 49.3435 121.718 45.8192 116.828 45.6066C116.828 45.6066 119.68 44.5152 124.495 47.9288C124.495 47.9288 124.902 46.2015 123.088 44.1562C121.273 42.1109 118.458 37.8096 115.383 37.3524C115.383 37.3524 119.68 37.1041 123.088 42.3932C123.088 42.3932 124.347 43.1684 124.457 41.1946C124.568 39.2208 125.309 36.7522 125.309 36.7522C125.309 36.7522 126.347 41.3 124.161 43.3452C124.161 43.3452 128.347 48.5254 128.162 54.3468C128.162 54.3468 129.458 56.9904 129.941 53.8877C129.941 53.8877 130.218 49.615 130.776 45.9907C131.001 44.5298 130.907 43.0404 130.5 41.6156C130.093 40.1908 129.382 38.8611 128.411 37.7096C127.486 36.6146 126.841 35.5483 127.199 34.9892L132.052 40.489C132.052 40.489 136.125 31.4988 139.088 29.559C142.051 27.6191 142.423 27.1975 142.423 27.1975L137.653 32.5223L143.658 30.5128L137.653 33.1582C137.653 33.1582 134.876 35.3018 133.283 41.1964C131.689 47.091 131.541 50.751 131.541 50.751C131.541 50.751 140.092 44.3116 141.729 44.5152L136.191 48.5004C134.685 49.5845 133.441 50.9638 132.543 52.5449C131.645 54.1261 131.114 55.8723 130.986 57.6656V57.6656C130.986 57.6656 141.682 55.0559 144.284 54.5629L149.163 49.8025L145.468 54.3146L153.098 54.2092L157.47 51.2476C157.47 51.2476 154.025 53.9984 154.354 54.1753C154.682 54.3521 159.726 54.5629 159.726 54.5629C159.726 54.5629 146.91 54.4932 145.502 55.3739C144.095 56.2545 140.946 56.5724 140.946 56.5724L150.025 57.8871L139.208 57.1458C139.208 57.1458 131.023 58.557 130.577 60.9898C130.577 60.9898 132.245 65.1304 133.356 66.7719C134.277 68.1348 136.133 72.554 136.503 76.432C136.872 80.3099 137.392 86.2689 135.985 89.9003C134.577 93.5318 134.059 95.6163 134.763 96.7059C135.467 97.7956 136.133 99.2067 133.836 99.4907C131.539 99.7747 121.465 99.3496 121.465 99.3496C121.465 99.3496 118.391 99.9194 118.986 97.7616Z" fill="#DEA3A2"/>
<path opacity="0.1" d="M124.369 95.8375C125.376 95.3493 126.531 95.2121 127.632 95.4499C129.509 95.8375 132.408 95.6285 132.671 95.5892" fill="black"/>
<path opacity="0.1" d="M130.404 74.7242C130.404 74.7242 130.862 81.6173 130.047 82.9748L130.404 74.7242Z" fill="black"/>
<path opacity="0.1" d="M132.097 82.9749C132.097 82.9749 131.509 89.4304 131.102 90.6932C130.695 91.9561 132.097 82.9749 132.097 82.9749Z" fill="black"/>
<path opacity="0.1" d="M132.671 67.1041C133.087 67.2506 134.872 70.6962 134.515 71.7144C134.159 72.7326 132.671 67.1041 132.671 67.1041Z" fill="black"/>
<path opacity="0.1" d="M128.147 63.5279C128.334 63.6101 129.171 65.5965 129.004 66.1824C128.837 66.7683 128.147 63.5279 128.147 63.5279Z" fill="black"/>
<path opacity="0.1" d="M135.874 75.1011C135.668 77.1035 135.555 78.4128 135.686 80.0151C135.798 81.2594 135.779 82.5111 135.63 83.7519" fill="black"/>
<path opacity="0.1" d="M113.527 51.7977C113.761 52.0882 113.884 52.4461 113.876 52.8123C113.889 53.1695 113.838 53.5375 113.863 53.9001C113.887 54.2627 114.081 54.7271 114.478 54.7789" fill="black"/>
<path opacity="0.1" d="M120.369 39.8638C120.874 40.3448 121.322 40.878 121.703 41.4535C121.812 41.6354 121.938 41.8081 122.078 41.9698C122.308 42.1786 122.553 42.3702 122.814 42.5431C123.391 42.991 123.802 43.6043 123.985 44.2919" fill="black"/>
<path opacity="0.1" d="M139.73 29.5625C139.608 29.7877 139.447 29.9923 139.255 30.168C139.086 30.3198 138.895 30.4484 138.743 30.6145C138.621 30.7591 138.511 30.9126 138.415 31.0736C138.008 31.6584 137.551 32.2093 137.047 32.7205" fill="black"/>
<path opacity="0.1" d="M130.762 39.7619C131.083 39.9512 131.166 40.3585 131.158 40.7157C131.151 41.073 131.087 41.4481 131.228 41.7875C131.292 41.9393 131.395 42.0733 131.46 42.2233C131.557 42.4888 131.594 42.7704 131.571 43.0504C131.571 43.3755 131.554 43.7006 131.539 44.0239C131.522 44.4151 131.483 44.8384 131.205 45.126" fill="black"/>
<path opacity="0.1" d="M131.027 59.0839C131.238 58.9199 131.462 58.7718 131.697 58.6409C131.912 58.5155 132.145 58.4182 132.387 58.3515C132.763 58.288 133.143 58.2522 133.525 58.2443C133.91 58.2318 134.279 58.0879 134.562 57.8388" fill="black"/>
<path opacity="0.1" d="M146.097 54.6288C145.647 54.6413 145.179 54.6556 144.783 54.8521C144.579 54.9521 144.408 55.0968 144.2 55.2094C143.94 55.3473 143.647 55.4198 143.35 55.4202" fill="black"/>
<path opacity="0.1" d="M139.839 56.399C139.893 56.3715 139.956 56.3636 140.015 56.3768C140.075 56.3899 140.128 56.4232 140.163 56.4704C140.244 56.5579 140.287 56.6722 140.372 56.758C140.535 56.9277 140.803 56.9473 141.045 56.9544" fill="black"/>
<path opacity="0.1" d="M137.263 47.2874L136.829 47.5017C136.379 47.7088 135.952 47.957 135.553 48.243" fill="black"/>
<path opacity="0.1" d="M132.314 51.3172C132.029 51.2529 131.783 51.5422 131.733 51.8173C131.682 52.0924 131.733 52.38 131.659 52.6479C131.57 52.8803 131.424 53.0892 131.233 53.257" fill="black"/>
<path opacity="0.1" d="M127.496 51.8138C127.237 52.5498 127.786 53.3536 127.625 54.1145C127.576 54.3467 127.464 54.5629 127.405 54.7933C127.255 55.3988 127.514 56.0437 127.929 56.5242" fill="black"/>
<path d="M71.5108 66.5897C68.4296 70.5444 65.8926 82.1782 65.1814 85.6846L59.8147 85.4827C60.1525 82.4658 66.6413 70.2836 68.4465 66.9416C69.4129 66.8183 70.4468 66.6933 71.5108 66.5897Z" fill="#F9A826"/>
<path d="M138.561 65.1855H136.182V68.3757H138.561V65.1855Z" fill="#DCE0ED"/>
<path opacity="0.1" d="M138.561 65.1855V66.2234C138.393 66.2687 138.22 66.291 138.045 66.2895L136.184 66.2752V65.1855H138.561Z" fill="black"/>
<path d="M135.178 57.058H137.43C137.967 57.0587 138.491 57.2121 138.936 57.4985C139.381 57.785 139.726 58.1914 139.927 58.6657C140.584 60.2072 141.141 62.658 139.678 65.0963C139.514 65.3696 139.278 65.5965 138.992 65.7535C138.706 65.9105 138.381 65.9919 138.051 65.9894L135.183 65.9662L135.178 57.058Z" fill="#DCE0ED"/>
<path d="M135.178 65.9662C136.506 65.9662 137.583 63.9725 137.583 61.5131C137.583 59.0537 136.506 57.06 135.178 57.06C133.849 57.06 132.772 59.0537 132.772 61.5131C132.772 63.9725 133.849 65.9662 135.178 65.9662Z" fill="#F0F0F4"/>
<path d="M117.432 65.223H115.052V68.0149H117.432V65.223Z" fill="#DCE0ED"/>
<path opacity="0.1" d="M117.432 65.223V66.1161C117.263 66.1616 117.089 66.1838 116.914 66.1822L115.052 66.1661V65.2284L117.432 65.223Z" fill="black"/>
<path d="M114.049 57.0976H116.3C116.837 57.0979 117.362 57.2511 117.807 57.5376C118.252 57.8241 118.596 58.2307 118.796 58.7052C119.455 60.2467 120.012 62.6974 118.548 65.1356C118.385 65.4089 118.148 65.6357 117.861 65.7927C117.575 65.9497 117.25 66.0312 116.92 66.0287L114.054 66.0037L114.049 57.0976Z" fill="#DCE0ED"/>
<path d="M114.049 66.0037C115.377 66.0037 116.454 64.01 116.454 61.5506C116.454 59.0913 115.377 57.0976 114.049 57.0976C112.72 57.0976 111.643 59.0913 111.643 61.5506C111.643 64.01 112.72 66.0037 114.049 66.0037Z" fill="#F0F0F4"/>
<path d="M114.649 58.7249C114.649 58.7249 113.762 58.8606 114.223 59.9752C114.468 60.5164 114.646 61.0829 114.754 61.6632C114.754 61.6632 115.642 62.1026 115.606 60.6504C115.57 59.1982 114.649 58.7249 114.649 58.7249Z" fill="#DCE0ED"/>
<path d="M24.5067 137C32.2576 137 38.5409 130.445 38.5409 122.358C38.5409 114.271 32.2576 107.716 24.5067 107.716C16.7559 107.716 10.4725 114.271 10.4725 122.358C10.4725 130.445 16.7559 137 24.5067 137Z" fill="#636780"/>
<path opacity="0.1" d="M29.7647 108.629C22.4221 109.099 16.605 115.461 16.605 123.242C16.605 129.514 20.3842 134.863 25.6965 136.948C33.0411 136.478 38.8581 130.116 38.8581 122.335C38.8581 116.063 35.077 110.713 29.7647 108.629Z" fill="black"/>
<path d="M134.345 104.494C140.635 104.494 145.735 98.164 145.735 90.3557C145.735 82.5474 140.635 76.2175 134.345 76.2175C128.054 76.2175 122.954 82.5474 122.954 90.3557C122.954 98.164 128.054 104.494 134.345 104.494Z" fill="#636780"/>
<path opacity="0.1" d="M131.162 76.8087C126.437 78.5324 122.988 83.9537 122.988 90.3753C122.988 97.2381 126.929 102.958 132.153 104.244C136.876 102.52 140.327 97.0988 140.327 90.6772C140.327 83.8144 136.386 78.0948 131.162 76.8087Z" fill="black"/>
<path d="M91.5571 87.337L91.7692 82.2051C91.7692 82.2051 90.7108 79.9901 89.6544 79.79C88.5979 79.59 86.166 79.4632 86.166 79.4632C86.166 79.4632 84.2632 86.8333 85.5317 89.0482C86.8002 91.2632 91.5571 87.337 91.5571 87.337Z" fill="#F9A826"/>
<path opacity="0.1" d="M91.5571 87.337L91.7692 82.2051C91.7692 82.2051 90.7108 79.9901 89.6544 79.79C88.5979 79.59 86.166 79.4632 86.166 79.4632C86.166 79.4632 84.2632 86.8333 85.5317 89.0482C86.8002 91.2632 91.5571 87.337 91.5571 87.337Z" fill="black"/>
<path d="M72.0531 86.7831C72.0531 86.7831 71.3982 79.6666 75.5058 79.538C76.0349 79.522 76.5641 79.5095 77.0914 79.4612C79.938 79.1986 87.7048 78.6288 86.774 80.3168C86.774 80.3168 84.9238 86.5062 86.1923 88.0656L72.0531 86.7831Z" fill="#F9A826"/>
<path d="M130.276 99.9781L135.786 100.13C135.786 100.13 136.737 90.4681 137.054 89.7143C137.371 88.9605 137.531 85.3362 136.501 84.8093C135.47 84.2823 132.023 83.6393 132.023 83.6393L129.483 89.1463L129.286 94.1281L130.276 99.9781Z" fill="#F9A826"/>
<path opacity="0.1" d="M130.276 99.9781L135.786 100.13C135.786 100.13 136.737 90.4681 137.054 89.7143C137.371 88.9605 137.531 85.3362 136.501 84.8093C135.47 84.2823 132.023 83.6393 132.023 83.6393L129.483 89.1463L129.286 94.1281L130.276 99.9781Z" fill="black"/>
<path d="M116.955 83.9412L116.931 82.8695C116.929 82.7847 116.945 82.7005 116.979 82.622C117.013 82.5436 117.063 82.4725 117.127 82.4132C117.19 82.354 117.266 82.3078 117.349 82.2775C117.432 82.2472 117.521 82.2335 117.61 82.2372C120.342 82.3461 130.28 82.7998 132.02 83.6447C132.02 83.6447 130.117 97.1166 132.219 100.325L131.505 111.117L107.164 109.381L116.955 83.9412Z" fill="#F9A826"/>
<path opacity="0.1" d="M115.052 66.9272C115.728 66.8629 116.533 66.7951 117.432 66.7272V68.0149H115.052V66.9272Z" fill="black"/>
<path opacity="0.1" d="M138.561 68.2116V68.3741H136.184V67.3952C137.009 67.5721 137.807 67.8463 138.561 68.2116V68.2116Z" fill="black"/>
<path d="M71.4996 83.9983C71.5101 83.9442 71.5424 83.8961 71.5896 83.8644C71.6418 83.8461 71.6981 83.8411 71.7529 83.8501V83.8501C71.7529 83.9072 71.7529 83.9412 71.7529 83.9412C71.6321 84.0441 71.5187 84.1545 71.4133 84.2716C71.447 84.1805 71.4714 84.0894 71.4996 83.9983ZM80.1107 81.594C80.1116 81.5816 80.1116 81.569 80.1107 81.5565C80.2305 81.2705 80.3677 80.9914 80.5217 80.7206C80.3716 80.9957 80.2327 81.2868 80.1107 81.594V81.594ZM81.3942 79.2826C81.1916 79.5702 80.9458 79.9418 80.7037 80.3723C80.8848 79.9828 81.1168 79.6168 81.3942 79.2826V79.2826ZM47.8672 104.279C48.8223 104.315 49.6179 104.299 49.6179 104.299C49.4453 104.374 48.6778 104.34 47.8672 104.279ZM49.6198 104.297C49.6555 104.276 50.0083 104.079 50.832 104.158C50.832 104.151 50.0214 104.124 49.6198 104.297V104.297ZM81.672 90.5574L82.021 84.8414C82.021 84.8414 81.8915 87.7602 81.9347 89.023C81.9507 89.5464 81.8616 90.0678 81.672 90.5592V90.5574Z" fill="url(#paint0_linear)"/>
<path d="M61.7023 101.504C61.7023 101.504 61.6029 101.796 61.4715 102.168C61.2576 102.774 60.9555 103.597 60.8523 103.674C60.7491 103.751 59.9497 103.801 59.079 103.852C57.7292 103.927 56.398 103.525 55.3411 102.722C55.3411 102.722 55.797 102.409 56.2793 102.047C56.7616 101.684 57.2682 101.273 57.3714 101.071C57.5159 100.794 58.3416 100.317 58.8388 100.05C59.0621 99.928 59.2141 99.8494 59.2141 99.8494L61.7023 101.504Z" fill="#F899A5"/>
<path d="M60.6477 104.028C60.6477 104.028 51.8733 103.644 51.3498 103.533C50.8263 103.422 50.7193 102.836 50.7193 102.836C50.5448 102.447 51.4699 102.531 51.4699 102.531C51.5637 102.545 52.5958 102.709 53.5678 102.827C54.3465 102.922 55.084 102.986 55.2566 102.917C55.6488 102.761 56.4313 102.827 56.4313 102.827C55.9866 101.427 54.6393 101.093 54.0632 101.014L54.0988 100.98C54.252 100.845 54.42 100.725 54.5999 100.623C56.3881 100.693 57.3339 103.04 57.3339 103.04H57.3489C57.5515 103.101 59.7076 103.737 60.1355 103.796C60.5821 103.862 60.6477 104.028 60.6477 104.028Z" fill="#F3B4B4"/>
<path d="M56.0599 104.773C56.0261 104.878 55.8722 104.951 55.6208 104.971C55.4846 104.98 55.3479 104.98 55.2117 104.971C54.3776 104.902 53.557 104.727 52.7723 104.449C52.6372 104.405 52.5096 104.365 52.3857 104.331H52.3707C52.0728 104.246 51.7676 104.187 51.4588 104.153C50.6631 104.074 50.3235 104.271 50.2897 104.292C50.2897 104.292 49.5203 104.308 48.6009 104.272C47.8938 104.254 47.1893 104.183 46.4936 104.062V104.062C46.3941 104.042 46.3059 104.019 46.214 103.995C46.0495 103.956 45.8912 103.896 45.743 103.817C44.7747 103.263 48.0361 102.89 48.0361 102.89C48.4087 102.846 48.7557 102.687 49.0231 102.436L49.0569 102.4L49.1394 102.322C49.2656 102.217 49.3977 102.119 49.5354 102.029L49.6555 101.952C50.3047 101.534 51.1792 101.087 51.1792 101.087C51.7875 100.93 52.3436 100.628 52.7948 100.209C52.8778 100.131 52.9532 100.046 53.02 99.955V99.955L54.8233 99.512L56.0655 102.352C56.0655 102.352 56.0749 102.506 56.0843 102.736C56.1049 103.354 56.1406 104.522 56.0599 104.773Z" fill="#F899A5"/>
<path opacity="0.1" d="M55.6206 104.971C55.4845 104.98 55.3477 104.98 55.2116 104.971C54.3775 104.902 53.5569 104.727 52.7721 104.449C52.637 104.405 52.5094 104.365 52.3856 104.331H52.3706C52.0727 104.247 51.7675 104.187 51.4586 104.153C50.663 104.074 50.3233 104.271 50.2896 104.292C50.2896 104.292 49.5202 104.308 48.6007 104.272C47.8937 104.254 47.1891 104.183 46.4935 104.062V104.062C46.394 104.042 46.3058 104.019 46.2139 103.995C46.334 103.981 46.4551 103.977 46.576 103.981V103.981C46.668 103.992 47.7113 104.113 48.6833 104.19C49.4677 104.253 50.207 104.287 50.3721 104.21C50.7568 104.031 51.5412 104.071 51.5412 104.071C51.0345 102.69 49.6647 102.413 49.0924 102.357C49.1036 102.345 49.1168 102.334 49.1262 102.322C49.2723 102.183 49.4326 102.059 49.6047 101.95H49.6422C51.408 101.977 52.4475 104.249 52.4475 104.249H52.4625C52.6671 104.301 54.8513 104.849 55.2772 104.89C55.3956 104.899 55.5116 104.926 55.6206 104.971Z" fill="black"/>
<path d="M55.7239 105.183C55.7239 105.183 46.9401 105.162 46.4128 105.074C45.8855 104.987 45.7504 104.403 45.7504 104.403C45.5628 104.022 46.4804 104.069 46.4804 104.069C46.5723 104.079 47.6062 104.201 48.5876 104.279C49.3701 104.34 50.1113 104.374 50.2765 104.299C50.6518 104.12 51.4455 104.16 51.4455 104.16C50.937 102.779 49.569 102.502 48.9967 102.447L49.0305 102.411C49.1786 102.271 49.3407 102.144 49.5146 102.034C51.3048 102.034 52.3575 104.335 52.3575 104.335H52.3725C52.577 104.385 54.7613 104.933 55.1872 104.974C55.6507 105.019 55.7239 105.183 55.7239 105.183Z" fill="#F3B4B4"/>
<path opacity="0.1" d="M61.7024 101.504C61.7024 101.504 61.6029 101.797 61.4716 102.168C61.419 102.134 59.6908 101.039 59.0322 100.321C58.9549 100.24 58.8881 100.151 58.8333 100.055C59.0566 99.9335 59.2085 99.8549 59.2085 99.8549L61.7024 101.504Z" fill="black"/>
<path d="M66.7576 97.8811L66.4461 98.8403L63.4625 100.387C63.4625 100.387 62.6557 100.932 62.5243 101.189C62.4177 101.361 62.2477 101.488 62.0477 101.547C61.8999 101.722 61.7621 101.904 61.6349 102.093C61.6349 102.093 59.8635 100.975 59.1954 100.246C58.989 100.021 58.8896 99.8317 58.9834 99.7263C59.3737 99.2798 61.7155 97.6757 61.7155 97.6757C61.7155 97.6757 63.1454 95.8895 63.2073 95.9216C63.2693 95.9538 63.988 95.2947 64.4102 94.9213L64.6991 94.6641L66.7576 97.8811Z" fill="#BDD3E8"/>
<path d="M80.9832 78.5699L78.0784 83.4606L77.0125 85.3951L71.3362 84.6074L71.4638 84.3484L71.9442 83.3892L72.1637 82.9498L72.1975 82.8908L72.8261 81.8065L72.8618 81.7619L73.3177 81.1474L74.2353 79.9131C74.3395 79.9063 74.4414 79.8809 74.5356 79.8381C74.6953 79.7601 74.818 79.6273 74.879 79.4666C75.2036 78.702 74.6088 77.2319 74.6088 77.2319C74.6088 77.2319 76.763 72.2304 77.5098 74.9831C78.0615 77.0247 79.6997 78.0108 80.5122 78.3769C80.6648 78.4505 80.8221 78.5149 80.9832 78.5699V78.5699Z" fill="#F899A5"/>
<path d="M71.2255 95.3838V95.8572C71.2255 95.8572 73.1019 97.5666 72.8542 98.9599C72.6066 100.353 73.1301 102.089 73.1301 102.089L75.0178 101.961L74.7326 95.5946L71.2255 95.3838Z" fill="#BDD3E8"/>
<path opacity="0.05" d="M75.0178 101.961L73.1301 102.089C73.1301 102.089 72.6066 100.355 72.8542 98.9599C73.1019 97.5648 71.2255 95.8572 71.2255 95.8572V95.3838L74.7326 95.5946L74.7514 96.009L75.0178 101.961Z" fill="black"/>
<path opacity="0.05" d="M64.5659 95.2C63.9687 95.7282 63.4153 96.2997 62.9109 96.9094C62.2466 97.7508 61.1151 98.9601 61.1151 98.9601L59.7622 99.7228L59.1992 100.243C58.9928 100.018 58.8933 99.8282 58.9872 99.7228C59.3775 99.2762 61.7193 97.6722 61.7193 97.6722C61.7193 97.6722 63.1492 95.8859 63.2111 95.9181C63.2731 95.9502 63.9917 95.2911 64.414 94.9178L64.5659 95.2Z" fill="black"/>
<path opacity="0.1" d="M56.0785 102.736C56.0237 102.781 55.9717 102.829 55.9228 102.879C55.9228 102.879 55.8946 103.719 55.2041 101.747C54.5135 99.7744 52.8003 100.248 52.8003 100.248C52.7942 100.244 52.7896 100.239 52.7872 100.232C52.7848 100.226 52.7848 100.219 52.7872 100.212C52.7872 100.159 52.8866 100.066 53.0124 99.9584L54.8157 99.5154L56.0579 102.356C56.0579 102.356 56.0691 102.506 56.0785 102.736Z" fill="black"/>
<path d="M62.4417 91.5185L61.3909 91.5453L60.6722 92.5188C60.6722 92.5188 59.4844 93.7281 59.126 94.0299C58.7676 94.3318 56.4464 96.4092 55.784 97.4881C55.784 97.4881 55.176 97.7775 55.176 98.0668C55.176 98.3562 54.0163 99.1975 54.0163 99.1975C54.0163 99.1975 52.8004 99.9853 52.9655 100.091C52.9655 100.091 54.6787 99.6173 55.3693 101.589C56.0598 103.561 56.0879 102.72 56.0879 102.72C56.2073 102.595 56.3474 102.49 56.5027 102.409C56.6678 102.352 57.454 101.275 57.6961 101.248C57.8747 101.214 58.0429 101.142 58.1877 101.037L59.5951 99.7227L60.9499 98.9599C60.9499 98.9599 62.0758 97.7507 62.7438 96.9093C63.2492 96.2999 63.8032 95.7284 64.4008 95.1999L62.4417 91.5185Z" fill="#BDD3E8"/>
<path opacity="0.1" d="M57.1932 97.8829C57.1932 97.8829 59.0697 98.7492 58.989 98.9332C58.9083 99.1172 57.1932 97.8829 57.1932 97.8829Z" fill="black"/>
<path opacity="0.1" d="M58.6757 97.6722C58.6757 97.6722 58.822 98.4528 59.5689 98.4171C60.3157 98.3814 58.6757 97.6722 58.6757 97.6722Z" fill="black"/>
<path opacity="0.1" d="M56.0598 99.8639C56.0598 99.8639 56.1705 100.31 56.8611 100.389C57.5516 100.468 56.0598 99.8639 56.0598 99.8639Z" fill="black"/>
<path opacity="0.1" d="M63.0909 97.8829C63.0909 97.8829 64.001 98.2401 64.0836 98.7367C64.1662 99.2333 63.0909 97.8829 63.0909 97.8829Z" fill="black"/>
<path opacity="0.1" d="M60.8523 99.7227C61.2051 99.8673 62.2202 100.952 62.1996 101.069C62.179 101.187 60.8523 99.7227 60.8523 99.7227Z" fill="black"/>
<path opacity="0.1" d="M62.468 98.953C62.5739 98.9172 62.6881 98.9099 62.798 98.932C62.9079 98.9541 63.0093 99.0046 63.091 99.0781C63.3443 99.3281 62.468 98.953 62.468 98.953Z" fill="black"/>
<path d="M69.1614 90.3628C69.1614 90.3628 65.6392 89.2768 65.9094 90.3628C66.1797 91.4488 69.1614 92.0579 69.1614 92.0579V90.3628Z" fill="#F899A5"/>
<path opacity="0.1" d="M80.9832 78.5699L78.0784 83.4607L77.0125 85.3952L71.3362 84.6075L71.4638 84.3485C71.5966 84.1732 71.7481 84.0116 71.916 83.8662C71.9029 83.7067 71.9124 83.5463 71.9442 83.3892C71.9733 83.2024 72.0617 83.0286 72.1975 82.8909L72.22 82.8712C72.4865 82.648 72.7398 82.071 72.8618 81.762C72.9105 81.6387 72.9368 81.5566 72.9368 81.5566L73.3121 81.1475L74.5299 79.8382L74.8733 79.4666L75.1961 79.1201L74.0402 80.6849C74.0402 80.6849 73.4885 81.6316 73.4604 81.7566C73.4322 81.8817 72.5221 83.0445 72.5221 83.0445C72.5221 83.0445 70.9759 84.3342 73.7381 84.3592C76.5003 84.3842 78.1853 81.8227 78.1853 81.8227L80.5159 78.3859C80.6676 78.4563 80.8236 78.5178 80.9832 78.5699V78.5699Z" fill="black"/>
<path opacity="0.1" d="M74.7514 96.0091L73.6687 95.9377L71.2236 95.743V95.3857L74.7327 95.5947L74.7514 96.0091Z" fill="black"/>
<path d="M80.5066 78.1092C80.5066 78.1092 81.0038 78.6344 81.5011 78.6612C81.5011 78.6612 80.5891 79.5811 80.257 80.476C80.257 80.476 78.707 82.9589 79.816 83.8145C80.925 84.6701 81.5686 84.8398 81.5686 84.8398L81.2327 90.5558C81.2327 90.5558 82.0528 94.4856 82.3586 94.7785C82.6645 95.0715 82.5801 95.7252 82.5801 95.7252C82.5801 95.7252 82.3793 96.3826 82.5894 96.6184C82.7996 96.8541 82.8559 98.0652 82.8559 98.0652C82.8559 98.0652 81.6137 97.4597 81.3547 97.4597C81.0958 97.4597 80.4165 96.2236 80.4165 96.2236L73.6612 95.777L70.6907 95.5412L71.1598 87.6817C71.1598 87.6817 69.8069 85.5686 71.6571 83.9431C71.6571 83.9431 71.5858 83.2625 71.9611 82.9482C72.3364 82.6338 72.6798 81.6335 72.6798 81.6335L74.9447 79.197L73.785 80.7671C73.785 80.7671 73.2315 81.7139 73.2052 81.8389C73.1789 81.9639 72.2669 83.1286 72.2669 83.1286C72.2669 83.1286 70.7207 84.4165 73.4829 84.4433C76.2451 84.4701 77.9302 81.8925 77.9302 81.8925L80.5066 78.1092Z" fill="#E6EBEF"/>
<path opacity="0.1" d="M78.296 88.4693C78.296 88.4693 79.2568 89.1391 80.2851 89.1659C81.3134 89.1927 78.296 88.4693 78.296 88.4693Z" fill="black"/>
<path opacity="0.1" d="M79.5383 86.3456C79.5383 86.3456 80.2983 85.9883 80.7262 86.2866C81.154 86.5849 79.5383 86.3456 79.5383 86.3456Z" fill="black"/>
<path opacity="0.1" d="M79.1799 87.5388C79.1799 87.5388 79.2287 87.9604 80.3546 88.0122C81.4805 88.064 79.1799 87.5388 79.1799 87.5388Z" fill="black"/>
<path d="M81.4167 78.661L81.6531 78.7807C82.1318 78.9494 82.6337 79.0511 83.1431 79.0826C84.0963 79.1612 84.9257 80.0293 85.0908 80.8563C85.1321 81.0635 85.1659 81.3404 85.194 81.6369C85.2898 82.7076 85.2722 83.7848 85.1415 84.8521C85.0514 85.6077 84.9539 86.4598 85.0083 86.5848C85.0908 86.8206 84.5523 90.4895 84.5523 90.4895C84.5523 90.4895 84.4284 93.4869 83.6403 93.7637C82.8522 94.0406 78.4612 94.0388 78.4612 94.0388L76.5979 90.9629L80.9476 91.1594C81.329 90.5102 81.5154 89.7735 81.4861 89.0302C81.4448 87.7673 81.5687 84.8486 81.5687 84.8486C81.5687 84.8486 78.9416 84.3127 79.4745 82.3603C80.0075 80.408 81.4167 78.661 81.4167 78.661Z" fill="#F899A5"/>
<path d="M73.1301 102.089C73.1301 102.089 71.3756 102.641 70.6907 102.352C70.0058 102.063 68.5158 100.959 68.5158 100.959C68.5158 100.959 67.5588 100.066 66.6487 99.0672L66.5324 98.9385C65.7443 98.0651 65.0312 97.1523 65.0312 96.7004C65.0357 96.5128 65.0111 96.3256 64.958 96.1449C64.8786 95.8835 64.7516 95.6374 64.5827 95.4179C64.4884 95.2917 64.3802 95.1755 64.26 95.0713L61.3871 91.5471C61.3871 91.5471 62.2165 90.7057 62.2165 90.4753C62.2165 90.2449 63.211 88.9516 64.4814 89.6358C65.0162 89.9216 66.2941 90.988 67.5964 92.1258C69.3884 93.6906 71.2217 95.3928 71.2217 95.3928C71.2217 95.3928 71.3512 95.525 71.5407 95.7304C72.0267 96.2663 72.9049 97.2756 72.9743 97.7864C73.0757 98.4866 73.1301 102.089 73.1301 102.089Z" fill="#BDD3E8"/>
<path opacity="0.05" d="M71.5445 95.7216C70.1841 97.0112 68.1368 98.7403 66.6506 99.0672L66.6112 99.0761L66.5343 98.9386L64.9656 96.1449L64.5677 95.4304L64.5884 95.4108L67.602 92.1115C69.3941 93.6763 71.2274 95.3786 71.2274 95.3786C71.2274 95.3786 71.355 95.5161 71.5445 95.7216Z" fill="black"/>
<path d="M82.5426 98.1383V98.7367C82.5426 98.7367 83.4132 101.663 81.8389 102.488C81.0432 102.908 79.3488 103.008 77.8664 103.004C76.8777 103.007 75.9197 102.678 75.1603 102.075C74.4009 101.473 73.8888 100.635 73.7137 99.7084C73.6551 99.4288 73.6493 99.1415 73.6968 98.86C73.6968 98.86 72.9932 94.0675 72.8261 94.0371C72.8261 94.0371 68.8687 98.3509 66.4461 98.8475L64.4008 95.2071L67.6677 91.6346C67.6677 91.6346 70.0921 87.9674 70.7958 87.6316C71.4995 87.2958 72.205 86.3562 72.205 86.3562C72.205 86.3562 75.0441 84.102 76.9281 87.9085C78.8121 91.715 80.0356 94.7891 80.4934 95.9305C80.4934 95.9305 81.1577 97.2238 81.5705 97.2202H81.5837C81.8382 97.2225 82.0815 97.3202 82.261 97.492C82.4404 97.6639 82.5416 97.896 82.5426 98.1383V98.1383Z" fill="#BDD3E8"/>
<path opacity="0.1" d="M72.7435 93.8335C73.1235 93.434 73.4123 92.9638 73.5917 92.4527C73.9051 91.5846 73.4979 93.3333 72.8261 94.03L72.7435 93.8335Z" fill="black"/>
<path d="M69.0564 72.1287C69.0845 72.3787 69.2815 72.602 69.4842 72.811C69.915 73.2549 70.3778 73.6697 70.869 74.0525C71.0792 74.2186 71.3063 74.3918 71.3757 74.608C71.4123 74.7686 71.4006 74.9357 71.3419 75.0903C71.1668 75.6949 70.92 76.2786 70.6063 76.8301C70.4779 77.0041 70.4066 77.2105 70.4018 77.4231C70.4525 77.8911 71.1524 78.1537 71.6628 78.4627C72.3327 78.8753 72.7192 79.4987 72.6948 80.1204C72.6536 81.0903 71.6872 81.928 71.4601 82.8855C72.0872 82.8792 72.7071 82.7579 73.2859 82.5282C73.8226 82.2871 74.2242 81.8673 74.2017 81.4207C74.1862 81.3512 74.1962 81.2788 74.2298 81.2153C74.3003 81.1463 74.3926 81.1012 74.4925 81.0867C74.9935 80.9706 75.6053 81.0081 75.9731 80.742C76.3409 80.4758 76.2564 80.0078 76.0988 79.6345C75.6709 78.6128 75.0517 77.6303 74.6783 76.5979C74.5281 76.2549 74.4726 75.881 74.5169 75.5118C74.5845 75.1546 74.8153 74.8134 75.0123 74.474C75.4435 73.7369 75.7225 72.9281 75.8342 72.0912C75.8942 71.6196 75.8924 71.1284 75.6315 70.6925C75.3407 70.2013 74.7233 69.8119 73.9934 69.6601C72.5841 69.3653 71.8335 70.0173 70.7321 70.4514C69.912 70.7836 68.9738 71.3784 69.0564 72.1287Z" fill="#4B3648"/>
<path opacity="0.1" d="M71.46 82.8051C71.5745 82.8051 71.6889 82.7926 71.8034 82.7837C72.038 81.8352 72.9893 80.9974 73.0306 80.0418C73.055 79.4202 72.6666 78.7914 71.9986 78.3824C71.4957 78.0734 70.7882 77.8108 70.7376 77.3446C70.7426 77.1314 70.8138 76.9245 70.9421 76.7497C71.2558 76.1982 71.5026 75.6146 71.6777 75.0099C71.7364 74.8554 71.7481 74.6882 71.7115 74.5277C71.642 74.3115 71.415 74.1383 71.2048 73.9739C70.7137 73.5877 70.251 73.17 69.82 72.7235C69.6173 72.5163 69.4203 72.2931 69.3921 72.043C69.3058 71.2928 70.2384 70.6962 71.0678 70.3657C71.9291 70.0192 72.569 69.5512 73.496 69.5047C72.3926 69.4369 71.6964 69.9799 70.7319 70.3657C69.9025 70.6962 68.9699 71.2928 69.0562 72.043C69.0844 72.2931 69.2814 72.5163 69.4841 72.7235C69.9151 73.17 70.3778 73.5877 70.8689 73.9739C71.0791 74.1383 71.3061 74.3115 71.3756 74.5277C71.4122 74.6882 71.4005 74.8554 71.3418 75.0099C71.1667 75.6146 70.9199 76.1982 70.6062 76.7497C70.4779 76.9245 70.4067 77.1314 70.4017 77.3446C70.4523 77.8108 71.1523 78.0734 71.6627 78.3824C72.3326 78.795 72.7191 79.4202 72.6947 80.0418C72.6534 81.0099 71.6871 81.8495 71.46 82.8051Z" fill="black"/>
<path opacity="0.1" d="M74.622 78.4057C77.0595 78.4057 79.0355 76.5247 79.0355 74.2044C79.0355 71.8841 77.0595 70.0031 74.622 70.0031C72.1845 70.0031 70.2085 71.8841 70.2085 74.2044C70.2085 76.5247 72.1845 78.4057 74.622 78.4057Z" fill="black"/>
<path d="M74.7045 78.2484C77.142 78.2484 79.118 76.3675 79.118 74.0472C79.118 71.7269 77.142 69.8459 74.7045 69.8459C72.267 69.8459 70.291 71.7269 70.291 74.0472C70.291 76.3675 72.267 78.2484 74.7045 78.2484Z" fill="#F899A5"/>
<path d="M71.9874 72.077C71.6421 71.9734 71.2799 71.859 71.0491 71.5679C70.8183 71.2767 70.777 70.7516 71.0716 70.5122C71.2361 70.4141 71.4151 70.34 71.6027 70.2925C72.3439 69.9799 72.4696 68.8849 72.9725 68.2008C73.1364 67.9651 73.3642 67.7759 73.6317 67.6533C73.8993 67.5306 74.1967 67.4791 74.4924 67.5042C74.8039 67.5708 75.1104 67.6567 75.41 67.7614C76.1437 67.9507 76.9281 67.8007 77.6731 67.9293C79.1367 68.1847 80.257 69.4958 80.8631 70.9659C81.1427 71.6429 81.3378 72.3592 81.5593 73.0648C81.8943 74.1226 82.2954 75.1604 82.7602 76.1728C82.8553 76.4139 82.9944 76.637 83.1711 76.832C83.6403 77.2874 84.4697 77.2535 84.7586 77.8662C84.9181 78.2056 84.8431 78.6218 84.7905 79.0058C84.6116 80.3023 84.7294 81.6204 85.1358 82.8695C85.4529 83.8269 86.059 84.795 86.9841 84.9326C86.6295 85.4042 85.9352 85.3595 85.4961 85.0219C85.057 84.6843 84.7943 84.1413 84.4997 83.6465C84.251 83.229 83.9667 82.8317 83.6496 82.4586C83.4836 82.2355 83.2626 82.0545 83.006 81.9317C82.3755 81.6888 81.7056 82.1853 81.1427 82.6176C80.6792 82.9749 80.1782 83.3089 79.6246 83.3768C79.3397 83.418 79.0486 83.3619 78.8031 83.2183C78.5575 83.0748 78.3732 82.8531 78.2829 82.5926C78.0709 81.9085 78.4987 80.985 78.0315 80.4884C77.8626 80.3098 77.6149 80.2437 77.4122 80.1061C76.8155 79.7025 76.7423 78.779 76.823 77.9966C76.9037 77.2142 77.0726 76.3747 76.7536 75.687C76.5711 75.343 76.3155 75.0388 76.003 74.7938C74.6662 73.6181 73.1343 72.6609 71.4694 71.9609" fill="#4B3648"/>
<g opacity="0.1">
<path opacity="0.1" d="M80.0994 83.2518C79.8142 83.2935 79.5227 83.2376 79.2767 83.094C79.0307 82.9505 78.8462 82.7285 78.7558 82.4676C78.5438 81.7853 78.9735 80.86 78.5044 80.3635C78.3355 80.1848 78.0878 80.1187 77.887 79.983C77.2884 79.5793 77.2153 78.6558 77.2978 77.8734C77.3804 77.0911 77.5474 76.2497 77.2265 75.562C77.0435 75.2184 76.788 74.9143 76.4759 74.6689C75.1403 73.4875 73.6084 72.5248 71.9423 71.8199L72.464 71.9378C72.1187 71.8342 71.7547 71.7181 71.5258 71.4287C71.2968 71.1393 71.2537 70.6124 71.5502 70.3712C71.7141 70.2737 71.8924 70.2003 72.0793 70.1533C72.8299 69.8407 72.9463 68.7457 73.4492 68.0616C73.6126 67.838 73.8293 67.6543 74.0815 67.5257C73.8532 67.5625 73.6351 67.6427 73.44 67.7614C73.245 67.8802 73.0771 68.0351 72.9463 68.217C72.4434 68.9011 72.3195 70.0033 71.5764 70.3087C71.3889 70.3562 71.2099 70.4303 71.0454 70.5284C70.7508 70.7678 70.7864 71.2947 71.0229 71.5841C71.2593 71.8735 71.6233 71.9896 71.9611 72.0932L71.4413 71.9771C73.1063 72.6805 74.6376 73.6414 75.973 74.8208C76.2855 75.0657 76.5411 75.3699 76.7236 75.7139C77.0445 76.4016 76.8756 77.2411 76.7931 78.0235C76.7105 78.8059 76.793 79.7293 77.3823 80.133C77.5849 80.2706 77.8326 80.3331 78.0015 80.5153C78.4687 81.0136 78.0409 81.9353 78.253 82.6195C78.3432 82.88 78.5275 83.1017 78.7731 83.2452C79.0187 83.3888 79.3097 83.4449 79.5946 83.4036C79.8049 83.3758 80.009 83.3155 80.1989 83.225C80.1663 83.2357 80.1331 83.2446 80.0994 83.2518V83.2518Z" fill="black"/>
<path opacity="0.1" d="M85.969 84.888C85.5299 84.5504 85.2671 84.0074 84.9744 83.5144C84.7263 83.0962 84.4413 82.6989 84.1225 82.3266C83.9575 82.1025 83.7362 81.9214 83.4789 81.7996C83.3165 81.7465 83.1438 81.7282 82.9731 81.7461C82.8025 81.764 82.6381 81.8177 82.4918 81.9032C82.6555 81.8815 82.8223 81.9006 82.976 81.9586C83.2329 82.0809 83.4541 82.262 83.6196 82.4855C83.9367 82.8586 84.221 83.2559 84.4696 83.6734C84.7642 84.1682 85.0326 84.7112 85.4661 85.0488C85.8414 85.331 86.3818 85.406 86.759 85.147C86.4718 85.1521 86.192 85.0603 85.969 84.888V84.888Z" fill="black"/>
</g>
<path d="M150.494 100.319L146.898 100.369L139.471 87.5209L138.231 85.3756L139.182 79.9418L139.914 81.2565L150.494 100.319Z" fill="#DCE0ED"/>
<path d="M117.985 84.52L116.507 86.6331L112.082 80.9385L110.057 78.3306L111.273 76.7712L112.204 77.8465L117.985 84.52Z" fill="#DCE0ED"/>
<path opacity="0.1" d="M112.204 77.8447C112.204 77.9537 112.217 78.0662 112.225 78.1788L112.082 80.9385L110.057 78.3306L111.273 76.7712L112.204 77.8447Z" fill="black"/>
<path opacity="0.1" d="M139.914 81.2565L139.471 87.5209L138.231 85.3756L139.182 79.9418L139.914 81.2565Z" fill="black"/>
<path d="M108.005 81.8532C108.005 81.8532 106.229 69.2334 112.696 67.3453C112.779 67.3224 112.863 67.3056 112.949 67.2953C114.437 67.1256 128.299 65.6038 135.495 67.4114C135.495 67.4114 140.411 68.117 140.359 70.6267L138.178 101.375H134.637L135.799 81.0476C135.799 81.0476 137.488 72.1914 134.69 71.5805C131.892 70.9696 119.149 69.9729 114.657 71.1786C114.657 71.1786 111.378 70.4731 111.908 78.1718L111.696 82.298L108.005 81.8532Z" fill="#DCE0ED"/>
<path d="M118.779 85.6006C118.809 85.2674 118.748 84.9326 118.602 84.6284C118.456 84.3242 118.23 84.0611 117.946 83.8644C116.955 83.1499 113.902 81.6012 113.902 81.6012L112.911 81.6762L109.939 88.6962L110.136 103.602L115.488 109.904L118.779 85.6006Z" fill="#F9A826"/>
<path opacity="0.1" d="M118.779 85.6006C118.809 85.2674 118.748 84.9326 118.602 84.6284C118.456 84.3242 118.23 84.0611 117.946 83.8644C116.955 83.1499 113.902 81.6012 113.902 81.6012L112.911 81.6762L109.939 88.6962L110.136 103.602L115.488 109.904L118.779 85.6006Z" fill="black"/>
<path d="M97.4249 101.225L97.53 85.9275C97.53 85.9275 97.0553 79.99 100.782 79.89C100.782 79.89 109.57 79.9507 113.388 81.1315C113.509 81.1683 113.619 81.2303 113.711 81.3128C113.803 81.3954 113.875 81.4964 113.921 81.6086C113.967 81.7209 113.986 81.8414 113.977 81.9616C113.968 82.0817 113.931 82.1984 113.869 82.3032C113.118 83.5625 111.827 86.8975 111.208 95.45V104.621L97.4249 101.225Z" fill="#F9A826"/>
<path d="M115.964 110.999L99.9731 110.644H99.9581L92.0994 110.471L93.0095 100.469L97.3704 100.621L111.247 103.565L115.488 109.904L115.964 110.999Z" fill="#F9A826"/>
<path opacity="0.1" d="M115.964 110.999L99.9731 110.644H99.9581L92.0994 110.471L93.0095 100.469L97.3704 100.621L111.247 103.565L115.488 109.904L115.964 110.999Z" fill="black"/>
<path d="M115.964 110.999L99.9732 110.644L99.7104 103.942L111.247 103.565L115.488 109.904L115.964 110.999Z" fill="#F9A826"/>
<path opacity="0.1" d="M99.9581 110.644L92.0994 110.465L93.0113 100.462C93.0113 100.462 95.4695 104.199 99.7104 103.935L99.9581 110.644Z" fill="white"/>
<path d="M156.361 118.734C156.044 121.603 153.903 121.149 153.903 121.149L153.503 121.115L149.542 120.772L149.702 116.319C149.702 116.319 151.858 116.18 153.719 116.549C155.205 116.842 156.502 117.46 156.361 118.734Z" fill="#DCE0ED"/>
<path d="M101.335 75.2619C101.335 75.2619 94.0416 78.4289 93.5124 79.3363C92.9832 80.2438 89.3842 84.1592 89.3842 84.1592L90.9435 86.66L98.1586 81.1994L101.335 75.2619Z" fill="#4C4981"/>
<path d="M95.7774 91.4543L92.3997 90.9738L89.9152 93.7639C89.9152 93.7639 86.4531 95.3983 86.0497 96.1128C85.6463 96.8273 84.3871 98.9208 83.8317 98.9369C83.2763 98.9529 82.7565 99.7246 82.7527 100.03C82.749 100.335 80.6379 103.844 80.1144 104.046C79.5909 104.247 78.6826 105.387 78.7052 105.612C78.7277 105.837 76.7349 108.081 76.7349 108.081C76.7349 108.081 73.3572 113.112 72.8543 113.273C72.3514 113.434 70.4055 116.683 69.912 117.069C69.4185 117.455 68.0355 117.801 68.2044 118.114C68.3733 118.427 71.7697 122.846 71.5633 124.098C71.5633 124.098 74.0909 122.194 74.1904 121.608C74.2898 121.022 77.4179 117.932 77.4179 117.932L93.8014 101.734L96.9595 91.5257L95.7774 91.4543Z" fill="#CEDDF9"/>
<path opacity="0.1" d="M104.848 96.6575C104.848 96.6575 105.522 104.02 103.289 105.135C101.056 106.25 99.5359 106.121 99.1062 106.612C98.6765 107.103 96.0588 107.538 95.781 107.984C95.5033 108.431 88.1682 112.334 88.1682 112.334C88.1682 112.334 83.1505 115.149 82.3642 115.761C81.578 116.374 77.2977 118.166 76.5678 119.009C75.8378 119.852 71.2555 122.615 71.2555 122.615C71.2555 122.615 69.9138 118.686 68.3713 118.341C68.3713 118.341 72.0793 117.646 72.2988 117.09C72.5184 116.535 73.6255 115.938 73.6255 115.938C73.6255 115.938 78.904 113.023 79.0673 112.366C79.2305 111.708 80.5309 110.772 80.5309 110.772C80.5309 110.772 82.6269 108.045 83.3982 107.782C84.1694 107.52 88.7424 103.05 88.7424 103.05C88.7424 103.05 91.8517 101.486 92.197 100.971C92.5422 100.457 98.4344 97.5417 98.4344 97.5417L91.7185 89.5982L93.8427 88.9766L100.134 90.5842L101.26 92.5259L104.848 96.6575Z" fill="black"/>
<path d="M105.227 96.7647C105.227 96.7647 105.903 104.128 103.67 105.242C101.437 106.357 99.9169 106.23 99.4853 106.719C99.0537 107.209 96.4379 107.647 96.1602 108.091C95.8825 108.536 88.5492 112.443 88.5492 112.443C88.5492 112.443 83.5315 115.256 82.7434 115.863C81.9553 116.471 77.6769 118.269 76.9469 119.112C76.217 119.956 71.6346 122.717 71.6346 122.717C71.6346 122.717 70.2873 118.798 68.7505 118.441C68.7505 118.441 72.4603 117.748 72.678 117.19C72.8956 116.633 74.0046 116.037 74.0046 116.037C74.0046 116.037 79.2832 113.121 79.4464 112.464C79.6097 111.807 80.9119 110.869 80.9119 110.869C80.9119 110.869 83.008 108.141 83.7792 107.881C84.5504 107.62 89.1215 103.147 89.1215 103.147C89.1215 103.147 92.2309 101.582 92.5761 101.068C92.9214 100.553 89.9115 93.7441 89.9115 93.7441L92.1033 89.6893L94.2274 89.0695L100.519 90.6771L101.645 92.6188L105.227 96.7647Z" fill="#CEDDF9"/>
<path d="M112.696 77.4946L107.564 80.8885C107.564 80.8885 101.362 78.6985 103.811 77.8197C105.417 77.2428 105.995 74.2651 106.201 72.2824C106.31 71.2499 106.316 70.4961 106.316 70.4961C106.316 70.4961 113.313 70.4854 112.026 72.611C111.684 73.1965 111.535 73.8661 111.598 74.533C111.696 76.1067 112.696 77.4946 112.696 77.4946Z" fill="#FEC2BE"/>
<path opacity="0.1" d="M111.587 74.5348C110.553 74.7647 109.469 74.6704 108.496 74.2657C107.524 73.861 106.715 73.1678 106.19 72.2894C106.299 71.257 106.304 70.5032 106.304 70.5032C106.304 70.5032 113.302 70.4924 112.014 72.6181C111.674 73.202 111.525 73.8695 111.587 74.5348V74.5348Z" fill="black"/>
<path d="M115.216 71.1945C114.851 72.3701 114.017 73.3631 112.893 73.9614C111.77 74.5597 110.444 74.7158 109.201 74.3963C107.958 74.0768 106.895 73.307 106.24 72.2515C105.586 71.1961 105.39 69.9386 105.697 68.748C106.003 67.5573 106.786 66.5279 107.879 65.8798C108.972 65.2316 110.288 65.0162 111.546 65.2795C112.803 65.5428 113.903 66.2639 114.61 67.2888C115.316 68.3137 115.573 69.5609 115.327 70.764C115.296 70.9069 115.261 71.0516 115.216 71.1945Z" fill="#FEC2BE"/>
<path opacity="0.1" d="M105.361 75.5904C105.361 75.5904 104.499 75.5904 104.445 76.7568C104.39 77.9233 103.52 77.8375 103.52 77.8375L99.474 81.8369C99.474 81.8369 97.6576 85.9775 97.6726 86.1454C97.6876 86.3133 97.2635 87.0135 97.3592 87.3671C97.4549 87.7208 97.3217 88.7961 96.9839 88.7015C96.6462 88.6068 96.0832 88.9373 96.0907 89.4642C96.0982 89.9911 93.2478 91.6077 93.3642 92.0007C93.4805 92.3936 101.48 96.4395 101.48 96.4395L104.809 98.8956L107.916 93.385L110.506 85.7917L111.945 81.3832L113.137 80.115L112.589 77.1391C112.589 77.1391 112.097 75.8512 111.696 76.0316C111.294 76.212 109.819 77.7286 108.434 77.8607C107.049 77.9929 106.241 78.1537 105.918 77.8607C105.595 77.5678 103.634 77.357 105.361 75.5904Z" fill="black"/>
<path opacity="0.1" d="M105.638 75.203C105.638 75.203 104.614 75.2316 104.557 76.3962C104.501 77.5609 103.632 77.4769 103.632 77.4769L99.5867 81.4763C99.5867 81.4763 97.7702 85.6151 97.7871 85.7847C97.804 85.9544 97.3762 86.6511 97.4719 87.0065C97.5676 87.362 97.4362 88.4355 97.0966 88.3409C96.7569 88.2462 96.194 88.5767 96.2015 89.1036C96.209 89.6305 93.3586 91.2471 93.4768 91.6401C93.5951 92.033 101.591 96.0789 101.591 96.0789L104.921 98.535L108.029 93.0226L110.618 85.4293L112.071 81.0226L113.261 79.7544L112.713 76.7785C112.713 76.7785 112.221 75.4906 111.819 75.671C111.418 75.8514 109.943 77.368 108.56 77.4983C107.177 77.6287 106.366 77.7931 106.044 77.4983C105.721 77.2036 105.914 76.8714 105.638 75.203Z" fill="black"/>
<path d="M105.601 75.3225C105.601 75.3225 104.574 75.3511 104.52 76.5157C104.466 77.6804 103.595 77.5982 103.595 77.5982L99.5491 81.5958C99.5491 81.5958 97.7327 85.7363 97.7496 85.9042C97.7665 86.0721 97.3386 86.7723 97.4343 87.126C97.53 87.4797 97.3987 88.555 97.059 88.4603C96.7194 88.3657 96.1583 88.6961 96.1658 89.2231C96.1733 89.75 93.323 91.3666 93.4412 91.7595C93.5594 92.1525 101.555 96.2002 101.555 96.2002L104.884 98.6545L107.991 93.1439L110.583 85.5506L112.033 81.1421L113.225 79.8739L112.677 76.898C112.677 76.898 112.185 75.6101 111.784 75.7923C111.382 75.9745 109.907 77.4874 108.524 77.6196C107.141 77.7518 106.329 77.9143 106.006 77.6196C105.683 77.3249 105.877 76.9998 105.601 75.3225Z" fill="white"/>
<path opacity="0.1" d="M105.636 75.3173C105.156 75.2722 104.682 75.1836 104.22 75.0529C103.724 74.8743 101.891 75.0137 101.891 75.0137C101.891 75.0137 99.7855 75.1369 99.3971 75.7156C99.0086 76.2944 97.3329 79.4257 96.7587 79.6222C96.1845 79.8187 92.79 85.0202 92.0957 85.4775C91.4014 85.9348 88.4103 91.5133 88.4103 91.5133C88.4103 91.5133 90.6208 90.5201 91.6322 91.9741C91.6585 92.0116 91.6847 92.0491 91.7091 92.0902C92.6811 93.7121 93.5856 92.4618 93.5856 92.4618C93.5856 92.4618 96.8038 89.6716 97.0608 89.1858C97.3179 88.6999 99.2207 85.0452 99.7104 84.036C100.2 83.0268 104.347 78.0413 104.486 77.8199C104.625 77.5984 105.636 75.3173 105.636 75.3173Z" fill="black"/>
<path d="M105.636 75.3172C105.073 75.2435 104.515 75.1313 103.968 74.9814C103.471 74.8028 101.638 74.9421 101.638 74.9421C101.638 74.9421 99.5322 75.0654 99.1438 75.6423C98.7553 76.2193 97.0796 79.3542 96.5054 79.5489C95.9312 79.7436 92.5367 84.9469 91.8424 85.406C91.1481 85.8651 88.157 91.4417 88.157 91.4417C88.157 91.4417 90.3675 90.4486 91.3808 91.9026C91.4052 91.9383 91.4314 91.9776 91.4558 92.0187C92.4279 93.6388 93.3323 92.3902 93.3323 92.3902C93.3323 92.3902 96.5524 89.5983 96.8076 89.1143C97.0628 88.6302 98.9674 84.9737 99.4571 83.9645C99.9469 82.9553 104.094 77.9698 104.233 77.7466C104.372 77.5233 105.636 75.3172 105.636 75.3172Z" fill="#4C4981"/>
<path opacity="0.1" d="M111.797 75.503C111.797 75.503 114.458 77.3411 114.799 77.8984C115.141 78.4557 118.625 80.1991 118.625 80.1991C118.625 80.1991 119.939 82.5069 119.742 83.3375C119.545 84.1681 119.337 84.9594 119.507 85.4024C119.678 85.8454 119.783 85.8418 119.53 86.4259C119.277 87.01 119.365 87.0672 119.717 87.5923C120.07 88.1175 114.463 89.7358 114.463 89.7358C114.463 89.7358 113.713 89.8466 113.632 90.1877C113.551 90.5289 109.252 99.5334 108.631 100.964C108.01 102.395 106.047 108.109 104.4 108.189C102.752 108.27 104.024 108.211 104.024 108.211C104.024 108.211 104.278 103.567 103.265 101.959C102.251 100.351 104.252 94.1478 104.252 94.1478C104.252 94.1478 110.911 75.9067 111.797 75.503Z" fill="black"/>
<path d="M111.797 75.503C111.797 75.503 114.711 77.4143 115.053 77.9698C115.394 78.5254 118.888 80.2705 118.888 80.2705C118.888 80.2705 120.202 82.5784 120.005 83.409C119.808 84.2396 119.599 85.0327 119.77 85.4739C119.941 85.9151 120.046 85.9133 119.793 86.4974C119.539 87.0815 119.626 87.1387 119.98 87.6656C120.335 88.1925 114.726 89.8091 114.726 89.8091C114.726 89.8091 113.975 89.9216 113.895 90.261C113.814 90.6004 109.506 99.6103 108.881 101.039C108.256 102.468 106.297 108.175 104.649 108.259C103.002 108.343 104.274 108.281 104.274 108.281C104.274 108.281 104.527 103.636 103.514 102.029C102.501 100.421 104.518 94.214 104.518 94.214C104.518 94.214 110.911 75.9067 111.797 75.503Z" fill="#4C4981"/>
<path d="M115.178 93.8888C115.178 93.8888 109.275 95.1392 109.091 95.4964C108.907 95.8537 104.025 98.6241 106.586 99.962C109.147 101.3 113.172 98.0775 113.172 98.0775L116.362 96.1395L115.178 93.8888Z" fill="#FEC2BE"/>
<path d="M117.817 86.3972C117.912 86.424 119.969 87.6655 119.969 87.6655C119.969 87.6655 120.937 90.7271 121.149 91.4773C121.361 92.2275 121.9 93.5618 121.864 93.8119C121.829 94.062 122.45 95.4535 121.459 96.0894C120.468 96.7253 119.429 96.6253 118.952 97.0504C118.475 97.4755 115.19 98.8366 114.775 98.9438C114.36 99.051 116.824 94.2799 113.782 93.5458C113.782 93.5458 115.961 93.7405 116.073 93.3779C116.186 93.0153 116.312 92.0685 115.904 91.7238C115.497 91.3791 113.739 89.7304 113.739 89.7304L117.817 86.3972Z" fill="#4C4981"/>
<path opacity="0.1" d="M115.323 70.7642C115.066 70.634 114.86 70.4285 114.735 70.1783C114.535 69.8067 114.334 69.353 113.906 69.2583C113.666 69.203 113.375 69.2708 113.197 69.1083C113.058 68.9797 113.062 68.7707 113.06 68.5867C113.066 68.1669 112.941 67.7547 112.701 67.4024C112.58 67.2286 112.414 67.0869 112.219 66.9904C112.025 66.8939 111.808 66.8458 111.589 66.8504C110.979 66.8897 110.448 67.4185 109.847 67.3131C109.583 67.2666 109.329 67.0969 109.07 67.163C108.969 67.1933 108.876 67.2431 108.796 67.3095C108.236 67.7293 107.804 68.2844 107.545 68.9172C107.297 69.5173 107.214 70.1675 106.918 70.7552C106.8 70.9839 106.573 71.2286 106.317 71.1571C105.92 71.0446 106.13 70.5677 105.908 70.3587C105.818 70.2913 105.709 70.2498 105.595 70.239C105.538 69.572 105.632 68.9012 105.87 68.2717C106.109 67.6423 106.486 67.0687 106.977 66.5898C107.468 66.1109 108.061 65.7378 108.716 65.4955C109.372 65.2532 110.074 65.1474 110.776 65.1853C111.477 65.2232 112.163 65.4039 112.785 65.7151C113.407 66.0264 113.952 66.461 114.383 66.9897C114.814 67.5183 115.121 68.1288 115.283 68.7799C115.445 69.431 115.459 70.1076 115.323 70.7642V70.7642Z" fill="black"/>
<path d="M106.359 71.0356C106.614 71.107 106.841 70.857 106.959 70.6355C107.256 70.0549 107.335 69.3976 107.586 68.7974C107.845 68.1643 108.278 67.6091 108.84 67.1898C108.918 67.1229 109.011 67.0724 109.112 67.0415C109.371 66.9772 109.626 67.1451 109.888 67.1916C110.489 67.2987 111.014 66.7682 111.63 66.7289C111.849 66.7245 112.066 66.7729 112.261 66.8697C112.456 66.9665 112.621 67.1086 112.743 67.2827C112.984 67.6338 113.108 68.0457 113.101 68.4652C113.101 68.6438 113.101 68.8581 113.24 68.9867C113.416 69.1511 113.707 69.0832 113.949 69.1368C114.377 69.2332 114.576 69.6852 114.779 70.0567C114.981 70.4283 115.388 70.8177 115.796 70.6569C115.918 70.6087 116.017 70.514 116.143 70.4783C116.374 70.405 116.649 70.5247 116.856 70.4032C117.119 70.2496 117.043 69.8674 116.873 69.6119C116.702 69.3565 116.497 69.0761 116.604 68.8028C116.673 68.6702 116.77 68.5524 116.888 68.4562C117.189 68.1246 117.346 67.6957 117.326 67.2576C117.305 66.8195 117.11 66.4053 116.779 66.1002C116.612 65.9573 116.417 65.8465 116.253 65.7C115.925 65.4071 115.751 64.9963 115.503 64.6283C115.201 64.1842 114.791 63.8164 114.308 63.5565C114.096 63.4326 113.86 63.354 113.613 63.3261C113.274 63.3011 112.94 63.4226 112.6 63.4547C111.463 63.5637 110.485 62.7081 109.372 62.4651C109.246 62.4259 109.113 62.4132 108.981 62.428C108.849 62.4428 108.722 62.4847 108.609 62.5509C108.387 62.7152 108.34 63.0099 108.233 63.2654C108.01 63.812 107.47 64.1942 106.896 64.405C106.233 64.6461 105.394 64.7765 105.118 65.3964C104.878 65.9323 105.19 66.5467 105.064 67.1112C104.966 67.5524 104.619 67.8971 104.351 68.2687C104.083 68.6402 103.886 69.1404 104.118 69.5333C104.262 69.7445 104.476 69.9036 104.726 69.9853C105.038 70.1067 105.732 70.0424 105.942 70.2389C106.152 70.4354 105.961 70.9266 106.359 71.0356Z" fill="#9A5E7F"/>
<path opacity="0.1" d="M117.475 91.765C117.588 91.7757 119.639 92.1222 120.121 92.7796C120.603 93.4369 117.475 91.765 117.475 91.765Z" fill="black"/>
<path opacity="0.1" d="M116.449 89.6823C116.449 89.6823 118.685 90.1646 118.944 90.37C119.203 90.5754 116.449 89.6823 116.449 89.6823Z" fill="black"/>
<path opacity="0.1" d="M117.184 84.4252C117.184 84.4252 118.83 85.1112 119.018 85.5363C119.205 85.9614 117.184 84.4252 117.184 84.4252Z" fill="black"/>
<path opacity="0.1" d="M96.1526 102.186C96.3233 102.3 100.365 105.155 100.035 105.258C99.7048 105.362 96.1526 102.186 96.1526 102.186Z" fill="black"/>
<path opacity="0.1" d="M96.1227 103.972C96.1227 103.972 98.4908 105.062 98.0948 105.517C97.6989 105.973 96.1227 103.972 96.1227 103.972Z" fill="black"/>
<g opacity="0.1">
<path opacity="0.1" d="M105.15 66.8699C105.257 66.3859 105.043 65.8626 105.132 65.3875C105.132 65.3875 105.132 65.3875 105.132 65.3964C104.895 65.9179 105.194 66.527 105.083 67.0843C105.111 67.0145 105.134 66.9429 105.15 66.8699V66.8699Z" fill="black"/>
<path opacity="0.1" d="M116.679 68.5581C116.662 68.6052 116.654 68.6547 116.653 68.7046C116.724 68.6144 116.802 68.5302 116.888 68.4527C117.088 68.2448 117.224 67.9892 117.284 67.7132C117.212 67.8976 117.103 68.0668 116.963 68.2115C116.845 68.3077 116.748 68.4256 116.679 68.5581V68.5581Z" fill="black"/>
<path opacity="0.1" d="M116.933 70.1586C116.726 70.2801 116.449 70.1586 116.218 70.2336C116.092 70.2747 115.993 70.3676 115.871 70.4122C115.463 70.573 115.054 70.1854 114.854 69.8138C114.653 69.4423 114.452 68.9886 114.024 68.8921C113.784 68.8385 113.491 68.9064 113.315 68.7421C113.176 68.6152 113.18 68.4062 113.176 68.2223C113.183 67.8026 113.059 67.3903 112.819 67.038C112.697 66.8643 112.531 66.7226 112.336 66.6259C112.142 66.5291 111.924 66.4804 111.705 66.4842C111.097 66.5235 110.566 67.054 109.965 66.9486C109.701 66.9004 109.446 66.7325 109.187 66.7968C109.086 66.8284 108.994 66.8788 108.915 66.9451C108.353 67.3644 107.92 67.9196 107.661 68.5527C107.589 68.724 107.527 68.8987 107.473 69.0761C107.505 68.9814 107.539 68.8868 107.578 68.7939C107.837 68.1608 108.27 67.6055 108.832 67.1862C108.911 67.1194 109.004 67.0689 109.104 67.038C109.363 66.9737 109.618 67.1416 109.881 67.188C110.481 67.2952 111.007 66.7647 111.622 66.7254C111.842 66.7209 112.059 66.7693 112.253 66.8661C112.448 66.9629 112.614 67.105 112.735 67.2791C112.976 67.6303 113.101 68.0422 113.093 68.4616C113.093 68.6403 113.093 68.8546 113.232 68.9832C113.409 69.1476 113.7 69.0797 113.942 69.1333C114.369 69.2297 114.568 69.6817 114.771 70.0532C114.974 70.4247 115.381 70.8142 115.788 70.6534C115.91 70.6052 116.009 70.5105 116.135 70.4748C116.366 70.4015 116.642 70.5212 116.848 70.3997C116.904 70.3651 116.949 70.3172 116.978 70.2607C117.008 70.2042 117.021 70.1412 117.017 70.0782C116.994 70.1096 116.966 70.1369 116.933 70.1586V70.1586Z" fill="black"/>
<path opacity="0.1" d="M107.034 70.3906C106.918 70.6192 106.689 70.8622 106.434 70.7907C106.036 70.68 106.246 70.2031 106.027 69.9941C105.807 69.7851 105.122 69.8619 104.811 69.7404C104.561 69.6583 104.347 69.4993 104.203 69.2885C104.099 69.1028 104.071 68.8872 104.124 68.683C104.057 68.8151 104.023 68.9598 104.023 69.1063C104.023 69.2529 104.057 69.3976 104.124 69.5297C104.268 69.7408 104.482 69.8999 104.732 69.9816C105.043 70.103 105.738 70.0387 105.948 70.2352C106.158 70.4317 105.957 70.9211 106.355 71.0318C106.61 71.1033 106.837 70.8532 106.956 70.6317C107.076 70.3831 107.173 70.1249 107.246 69.8601C107.19 70.0417 107.119 70.219 107.034 70.3906Z" fill="black"/>
</g>
<path opacity="0.1" d="M98.6614 79.3755C98.6614 79.3755 97.0458 81.6708 97.2391 82.1513C97.4324 82.6318 98.6614 79.3755 98.6614 79.3755Z" fill="black"/>
<path opacity="0.1" d="M98.8978 86.8545C98.8978 86.8545 99.7554 87.1957 100.069 87.5154C100.382 87.8352 98.8978 86.8545 98.8978 86.8545Z" fill="black"/>
<path opacity="0.1" d="M100.782 89.1947C100.782 89.1947 102.613 89.6162 102.769 89.8895C102.925 90.1628 100.782 89.1947 100.782 89.1947Z" fill="black"/>
<path opacity="0.1" d="M101.101 91.5809C101.101 91.5809 102.758 91.7881 102.946 92.399C103.133 93.0099 101.101 91.5809 101.101 91.5809Z" fill="black"/>
<path d="M95.0981 81.1475C91.4783 81.1475 88.5454 84.9218 88.5454 89.5768C88.5454 94.2318 91.4783 98.0043 95.0981 98.0043C98.7178 98.0043 101.653 94.23 101.653 89.5768C101.653 84.9236 98.7197 81.1475 95.0981 81.1475ZM94.173 96.2431C91.4145 96.2431 89.1797 93.5066 89.1797 90.1288C89.1797 86.751 91.4145 84.0162 94.173 84.0162C96.9314 84.0162 99.1682 86.7528 99.1682 90.1288C99.1682 93.5048 96.9333 96.2431 94.173 96.2431V96.2431Z" fill="#636780"/>
<path d="M95.4151 92.1686L98.4813 95.0356L99.5903 92.4687L95.1505 90.0037L95.4151 92.1686Z" fill="#636780"/>
<path d="M99.9356 63.7817L102.604 64.0907L103.595 65.2107L102.094 71.6412L98.9035 82.0014L96.8094 89.1142L95.3382 93.4334L94.4 99.1494L93.4618 103.079L90.647 105.758L84.9238 99.328L83.9855 97.1845L81.7338 92.8082L87.5508 90.2181L93.9309 89.6823L96.9332 82.3587L99.3727 73.874L99.9356 63.7817Z" fill="#F9A826"/>
<path d="M45.94 94.4319L42.4517 122.308L86.3763 120.547L81.3023 106.861L72.845 101.627L92.1915 101.929L92.2966 94.2818L84.4735 92.6706L68.7224 91.4631L56.8818 90.9612L45.5704 94.4819" fill="#F9A826"/>
<path opacity="0.1" d="M45.94 94.4319L42.4517 122.308L86.3763 120.547L81.3023 106.861L72.845 101.627L92.1915 101.929L92.2966 94.2818L84.4735 92.6706L68.7224 91.4631L56.8818 90.9612L45.5704 94.4819" fill="black"/>
<path d="M105.952 122.212C105.952 129.139 103.533 135.444 96.8244 134.755C88.3634 134.576 87.6991 129.139 87.6991 122.212C87.6991 115.284 91.7842 110.129 96.8244 110.129C101.865 110.129 105.952 115.284 105.952 122.212Z" fill="#636780"/>
<path opacity="0.1" d="M106.004 122.224C106.004 116.865 103.555 112.56 100.11 110.892C95.6853 111.692 92.2852 116.537 92.2852 122.86C92.2852 128.537 92.7318 133.22 97.5506 134.815C103.749 135.024 106.004 128.914 106.004 122.224Z" fill="black"/>
<path d="M114.572 111.341L111.992 114.154L116.636 113.395L120.108 110.358L123.204 104.464L127.567 101.918L138.263 103.302L148.161 103.66L151.815 100.571L147.739 100.043L143.611 99.9533L133.243 99.73L120.905 99.4174L118.372 105.848L116.449 110.269L114.572 111.341Z" fill="#F9A826"/>
<path d="M150.071 122.81C149.859 123.112 142.941 124.119 142.941 124.119L123.801 127.44L90.9286 127.892L87.0705 124.771L85.0439 125.114L84.9614 125.129L57.8875 129.703L57.4466 129.644L50.0682 128.642L11.531 123.414L11.9626 118.089L12.2178 114.945L12.7451 108.42L13.1204 106.709L16.5525 106.409L18.155 106.269L43.1666 104.085L46.4373 103.799L48.2706 103.64L66.1365 101.318L92.1952 101.922L92.3003 94.2729L102.608 64.0854C104.88 64.4426 104.828 65.8966 104.828 65.8966L96.0514 94.3265L95.9444 111.787C114.193 113.541 114.782 109.756 117.668 111.032L121.159 100.416L151.815 100.568C153.04 101.979 150.071 122.81 150.071 122.81Z" fill="#F9A826"/>
<path d="M74.0083 106.961L83.7341 126.836L87.0104 127.842L87.8042 124.621L84.1563 113.602L80.4033 107.213L74.0083 106.961Z" fill="#F9A826"/>
<path opacity="0.15" d="M74.0083 106.961L83.7341 126.836L87.0104 127.842L87.8042 124.621L84.1563 113.602L80.4033 107.213L74.0083 106.961Z" fill="black"/>
<path d="M67.6771 147.868C77.4053 147.868 85.2916 139.352 85.2916 128.848C85.2916 118.343 77.4053 109.828 67.6771 109.828C57.9489 109.828 50.0626 118.343 50.0626 128.848C50.0626 139.352 57.9489 147.868 67.6771 147.868Z" fill="#636780"/>
<path opacity="0.1" d="M73.9614 111.015C64.7441 111.626 57.4484 119.89 57.4484 129.996C57.4484 138.143 62.1921 145.094 68.8592 147.802C78.0765 147.191 85.3723 138.927 85.3723 128.821C85.3723 120.674 80.6285 113.723 73.9614 111.015Z" fill="black"/>
<path d="M20.4629 95.5893L19.5904 99.5066L16.922 111.494L5.45111 110.437C5.45111 110.437 4.76432 108.425 6.56199 107.67C6.56199 107.67 7.1512 100.859 9.27162 98.7135C9.49822 98.4687 9.78333 98.2794 10.1029 98.1615L20.4629 95.5893Z" fill="#F9A826"/>
<path opacity="0.1" d="M19.5904 99.5067L16.922 111.494L5.45111 110.437C5.45111 110.437 4.76432 108.425 6.56199 107.67C6.56199 107.67 7.1512 100.859 9.27162 98.7136L19.5904 99.5067Z" fill="white"/>
<path d="M46.3114 96.6485C47.7901 99.0099 44.2042 120.797 44.2042 120.797L16.0232 116.369L17.0271 97.2987C17.6088 93.8781 19.7236 93.4762 19.7236 93.4762C29.6689 88.6962 52.4944 87.6887 52.4944 87.6887C73.3234 88.4425 92.2964 94.28 92.2964 94.28C68.6171 90.8093 46.3114 96.6485 46.3114 96.6485Z" fill="#F9A826"/>
<path opacity="0.1" d="M44.2042 120.797L16.0232 116.369L17.0271 97.2987C17.6088 93.878 19.7236 93.4761 19.7236 93.4761C19.7236 93.4761 40.2842 91.6131 46.3114 96.6485C47.7901 99.0099 44.2042 120.797 44.2042 120.797Z" fill="black"/>
<path d="M41.2187 119.539L17.6614 115.761L18.4964 99.4905C18.9824 96.5717 20.7482 96.2288 20.7482 96.2288C20.7482 96.2288 37.9405 94.639 42.9788 98.9332C44.2229 100.95 41.2187 119.539 41.2187 119.539Z" fill="#F9A826"/>
<path opacity="0.1" d="M39.2803 111.741C41.0608 111.741 42.5041 109.24 42.5041 106.155C42.5041 103.07 41.0608 100.569 39.2803 100.569C37.4999 100.569 36.0565 103.07 36.0565 106.155C36.0565 109.24 37.4999 111.741 39.2803 111.741Z" fill="black"/>
<path d="M39.2803 111.591C41.0608 111.591 42.5041 109.09 42.5041 106.005C42.5041 102.92 41.0608 100.419 39.2803 100.419C37.4999 100.419 36.0565 102.92 36.0565 106.005C36.0565 109.09 37.4999 111.591 39.2803 111.591Z" fill="#DCE0ED"/>
<path d="M39.7006 101.879C39.7006 101.879 38.3871 102.079 39.0663 103.74C39.7456 105.401 39.8582 106.255 39.8582 106.255C39.8582 106.255 41.1717 106.911 41.1267 104.746C41.0817 102.581 39.7006 101.879 39.7006 101.879Z" fill="#F0F0F4"/>
<path opacity="0.1" d="M21.996 109.161C23.6604 109.161 25.0097 106.824 25.0097 103.942C25.0097 101.059 23.6604 98.7224 21.996 98.7224C20.3317 98.7224 18.9824 101.059 18.9824 103.942C18.9824 106.824 20.3317 109.161 21.996 109.161Z" fill="black"/>
<path d="M21.996 109.009C23.6604 109.009 25.0097 106.673 25.0097 103.79C25.0097 100.907 23.6604 98.5706 21.996 98.5706C20.3317 98.5706 18.9824 100.907 18.9824 103.79C18.9824 106.673 20.3317 109.009 21.996 109.009Z" fill="#DCE0ED"/>
<path d="M22.4184 99.6637C22.4184 99.6637 21.1048 99.8656 21.7841 101.527C22.4634 103.188 22.5779 104.042 22.5779 104.042C22.5779 104.042 23.8914 104.696 23.8464 102.532C23.8013 100.369 22.4184 99.6637 22.4184 99.6637Z" fill="#F0F0F4"/>
<path opacity="0.1" d="M35.5724 101.425C35.3622 103.488 34.3039 118.784 34.3039 118.784L32.51 118.498L31.5136 118.343L30.185 118.13L30.0237 118.105L24.7902 117.274L25.8241 101.05C25.8588 100.529 26.1032 100.04 26.5065 99.6865C26.9099 99.3325 27.441 99.1401 27.9896 99.1494C28.0427 99.1468 28.0959 99.1468 28.1491 99.1494C28.5112 99.1798 28.8997 99.2155 29.3068 99.2584C29.4776 99.2763 29.6521 99.2941 29.8266 99.3156C30.3295 99.3727 30.8493 99.4424 31.3578 99.521C31.6168 99.5639 31.872 99.6085 32.1253 99.655C32.5513 99.7353 32.9641 99.8246 33.345 99.9265C33.6021 99.9943 33.8479 100.068 34.0731 100.148C35.0188 100.473 35.6362 100.893 35.5724 101.425Z" fill="black"/>
<path d="M27.9896 99.1495L26.965 117.369L26.3833 117.319L27.3985 99.2048C27.5918 99.16 27.7908 99.1414 27.9896 99.1495V99.1495Z" fill="#F9A826"/>
<path d="M29.8266 99.3136L28.8677 117.726H27.9689L29.3068 99.2547C29.4776 99.2743 29.6521 99.2922 29.8266 99.3136Z" fill="#F9A826"/>
<path d="M32.1253 99.6531L30.6129 118.13H30.0293V118.105L31.356 99.5281C31.6168 99.562 31.872 99.6067 32.1253 99.6531Z" fill="#F9A826"/>
<path d="M34.0712 100.146L32.5156 118.498V118.534L31.5117 118.432V118.342L33.3357 99.9245C33.6021 99.9924 33.8479 100.066 34.0712 100.146Z" fill="#F9A826"/>
<path opacity="0.1" d="M12.5743 114.358C12.5743 114.358 10.6321 104.81 15.0719 104.319C19.5116 103.828 34.1012 104.855 33.664 108.772C33.2268 112.689 32.7577 118.659 32.7577 118.659L29.7459 118.018C29.7459 118.018 31.9977 109.036 28.4774 108.697C24.9572 108.357 16.3066 107.413 16.3066 107.413C16.3066 107.413 13.9666 107.036 15.3158 114.915L12.5743 114.358Z" fill="black"/>
<path d="M12.5743 115.263C12.5743 115.263 10.6321 105.112 15.0719 104.621C19.5116 104.129 34.1012 105.157 33.664 109.074C33.2268 112.991 32.7577 118.961 32.7577 118.961L29.7459 118.319C29.7459 118.319 31.9977 109.338 28.4774 108.999C24.9572 108.659 16.301 107.723 16.301 107.723C16.301 107.723 13.961 107.95 15.3102 115.838L12.5743 115.263Z" fill="#DCE0ED"/>
<path d="M90.9286 127.892L87.018 127.842C84.1639 115.874 79.4576 108.42 79.4576 108.42C77.8664 107.615 60.5296 107.723 60.5296 107.723C58.7319 108.025 58.2572 113.461 58.2572 113.461C58.2572 113.461 59.7903 114.711 58.3097 115.524C57.6492 115.881 55.4725 115.951 52.9655 115.828C49.8543 115.674 46.229 115.224 44.3562 114.668C40.9786 113.661 43.6676 111.8 43.6676 111.8C43.6676 111.8 44.1442 111.196 44.4613 107.87C44.679 105.931 45.3372 104.06 46.3903 102.388C46.5367 102.158 46.6287 102.031 46.6287 102.031C46.8061 101.869 47.0162 101.744 47.246 101.663C51.727 99.8765 73.6912 101.577 73.6912 101.577L81.8314 104.044C82.0566 104.13 82.4037 104.676 82.8316 105.55C85.4042 110.799 90.9286 127.892 90.9286 127.892Z" fill="#F9A826"/>
<path opacity="0.1" d="M90.9286 127.892L87.018 127.842C84.1639 115.874 79.4576 108.42 79.4576 108.42C77.8664 107.615 60.5296 107.723 60.5296 107.723C58.7319 108.025 58.2572 113.461 58.2572 113.461C58.2572 113.461 59.7903 114.711 58.3097 115.524C57.6492 115.881 55.4725 115.951 52.9655 115.828C49.8543 115.674 46.229 115.224 44.3562 114.668C40.9786 113.661 43.6676 111.8 43.6676 111.8C43.6676 111.8 44.1442 111.196 44.4613 107.87C44.679 105.931 45.3372 104.06 46.3903 102.388C46.5367 102.158 46.6287 102.031 46.6287 102.031C46.8061 101.869 47.0162 101.744 47.246 101.663C51.727 99.8765 73.6912 101.577 73.6912 101.577L81.8314 104.044C82.0566 104.13 82.4037 104.676 82.8316 105.55C85.4042 110.799 90.9286 127.892 90.9286 127.892Z" fill="black"/>
<path d="M82.8315 105.548C75.3256 102.768 54.6092 104.244 54.6092 104.244C52.41 102.457 48.2724 102.336 46.3903 102.384C46.5366 102.154 46.6286 102.027 46.6286 102.027C46.8061 101.866 47.0161 101.741 47.2459 101.659C51.727 99.8727 73.6912 101.573 73.6912 101.573L81.8313 104.04C82.0565 104.128 82.4036 104.674 82.8315 105.548Z" fill="#F9A826"/>
<path d="M55.8252 104.997C55.3504 106.557 53.3989 112.798 53.3989 112.798C53.1947 113.796 53.0512 114.805 52.9692 115.819C49.858 115.665 46.2326 115.215 44.3599 114.659C40.9822 113.652 43.6712 111.791 43.6712 111.791C43.6712 111.791 44.1479 111.187 44.465 107.861C44.6978 105.78 45.4402 103.781 46.6323 102.023C46.8098 101.862 47.0198 101.737 47.2497 101.655C50.1845 102.32 56.1855 103.817 55.8252 104.997Z" fill="#F9A826"/>
<path opacity="0.1" d="M55.8252 104.997C55.3504 106.557 53.3989 112.798 53.3989 112.798C53.1947 113.796 53.0512 114.805 52.9692 115.819C49.858 115.665 46.2326 115.215 44.3599 114.659C40.9822 113.652 43.6712 111.791 43.6712 111.791C43.6712 111.791 44.1479 111.187 44.465 107.861C44.6978 105.78 45.4402 103.781 46.6323 102.023C46.8098 101.862 47.0198 101.737 47.2497 101.655C50.1845 102.32 56.1855 103.817 55.8252 104.997Z" fill="white"/>
<path d="M60.6628 65.3733C58.5611 65.6751 57.6492 69.8264 57.6492 69.8264L51.9409 87.9782L92.2965 94.2801L102.604 64.0925C93.1296 60.0145 60.6628 65.3733 60.6628 65.3733ZM93.1259 84.7701C93.1259 84.7701 92.8876 86.5063 91.3413 86.6582L65.1776 85.6847L59.8109 85.4828L58.0113 85.4167H57.8837C57.8837 85.4167 55.9003 85.7561 56.2174 84.1664C56.2174 84.1664 58.3979 69.0726 62.2447 67.9401C62.2447 67.9401 62.6444 67.8597 63.3443 67.7347C64.4439 67.5364 66.2791 67.2256 68.4408 66.9416C69.4091 66.8148 70.443 66.6933 71.507 66.5843C74.4136 66.3021 77.538 66.1503 80.1238 66.3878C80.1238 66.3878 99.3896 64.6891 98.0028 68.7653C98.0066 68.7707 93.9628 83.5251 93.1296 84.7701H93.1259Z" fill="#F9A826"/>
<path d="M58.0151 85.4166H57.8875C57.8875 85.4166 55.9041 85.756 56.2212 84.1662C56.2212 84.1662 58.4017 69.0724 62.2485 67.9399C62.2485 67.9399 62.6482 67.8595 63.3481 67.7345C61.952 70.3281 57.471 79.2076 58.0151 85.4166Z" fill="#F9A826"/>
<path opacity="0.1" d="M58.0151 85.4166H57.8875C57.8875 85.4166 55.9041 85.756 56.2212 84.1662C56.2212 84.1662 58.4017 69.0724 62.2485 67.9399C62.2485 67.9399 62.6482 67.8595 63.3481 67.7345C61.952 70.3281 57.471 79.2076 58.0151 85.4166Z" fill="black"/>
<path opacity="0.1" d="M61.5672 122.647C61.3376 123.054 60.9909 123.39 60.5678 123.616C60.1447 123.842 59.6628 123.948 59.1785 123.923L58.3697 123.889L50.7493 123.576L48.0022 123.464L45.4652 123.264L11.9625 118.084L12.2177 114.94L16.0701 115.465L17.6651 115.683L41.3182 118.898L44.4312 119.334L45.9418 119.539L52.3387 119.495L59.2629 119.446C59.6123 119.44 59.9595 119.501 60.2837 119.625C60.8784 119.85 61.3591 120.284 61.6254 120.838C61.7672 121.122 61.8358 121.435 61.8257 121.749C61.8156 122.064 61.727 122.372 61.5672 122.647V122.647Z" fill="black"/>
<path d="M61.5673 122.949C61.3376 123.356 60.9909 123.692 60.5679 123.918C60.1448 124.144 59.6629 124.25 59.1785 124.225L48.0022 123.766L45.4652 123.564L9.73707 118.046L6.92235 117.612L5.39865 117.369C2.3869 116.765 3.28573 113.897 3.28573 113.897C3.4959 112.587 8.67686 111.38 10.3676 111.432C11.5047 111.466 11.6623 113.132 11.6436 114.224C11.6436 114.76 11.5835 115.154 11.5835 115.154L13.2555 115.383L45.9419 119.834L59.2649 119.741C59.7586 119.733 60.2443 119.861 60.6635 120.109C61.0827 120.358 61.4174 120.716 61.6273 121.142C61.7685 121.426 61.8367 121.738 61.8262 122.052C61.8158 122.367 61.727 122.674 61.5673 122.949V122.949Z" fill="#DCE0ED"/>
<path opacity="0.1" d="M7.93555 113.25C7.93555 113.25 9.36355 114.91 11.5834 115.161C11.5834 115.161 10.6846 113.3 7.93555 113.25Z" fill="black"/>
<path opacity="0.1" d="M7.56603 117.93C7.56603 117.93 2.86169 117.828 2.86169 120.252C2.86169 122.676 5.82278 123.071 5.82278 123.071L47.8447 130.766L59.7903 130.966C59.7903 130.966 63.9655 127.797 59.6308 126.388L47.5819 126.684L7.51349 119.691C7.51349 119.691 8.56994 118.332 7.56603 117.93Z" fill="black"/>
<path d="M59.7903 131.263L47.8446 131.063L10.4802 124.218L7.74617 123.716L5.82278 123.359C5.82278 123.359 2.86169 122.955 2.86169 120.54C2.86169 118.807 5.2861 118.37 6.65406 118.261C7.19261 118.219 7.56603 118.227 7.56603 118.227C8.56994 118.629 7.51349 119.986 7.51349 119.986L8.97151 120.242L47.5819 126.986L59.6327 126.685C63.9655 128.087 59.7903 131.263 59.7903 131.263Z" fill="#DCE0ED"/>
<path d="M11.1069 115.967L13.5913 114.909L14.8598 114.859L14.7547 125.023L10.8441 124.269L9.20411 123.264L8.41223 119.037C8.41223 119.037 8.72936 117.276 8.88698 117.126C9.0446 116.976 11.1069 115.967 11.1069 115.967Z" fill="#DCE0ED"/>
<path opacity="0.1" d="M11.1069 115.967L13.5913 114.909L14.8598 114.859L14.7547 125.023L10.8441 124.269L9.20411 123.264L8.41223 119.037C8.41223 119.037 8.72936 117.276 8.88698 117.126C9.0446 116.976 11.1069 115.967 11.1069 115.967Z" fill="black"/>
<path opacity="0.1" d="M10.4801 124.218L10.5252 124.269L7.77798 123.766L7.74608 123.716C6.29932 121.492 6.17359 119.691 6.65397 118.262C7.19252 118.221 7.56594 118.228 7.56594 118.228C8.56986 118.63 7.5134 119.988 7.5134 119.988L8.97143 120.243C8.87385 122.237 10.2118 123.903 10.4801 124.218Z" fill="black"/>
<path opacity="0.1" d="M14.5446 114.868C14.0793 115.037 13.6495 115.216 13.2555 115.404C11.4766 116.219 10.3788 117.133 9.73708 118.06L6.92236 117.626C8.1402 115.218 11.0506 114.118 11.0506 114.118L11.6398 114.245L14.5446 114.868Z" fill="black"/>
<path d="M11.3658 114.106C11.3658 114.106 3.64973 117.024 8.08948 123.766L10.8385 124.269C10.8385 124.269 5.39673 118.332 14.8542 114.859L11.3658 114.106Z" fill="#DCE0ED"/>
<path d="M29.7666 117.376L32.6208 117.276L32.1441 128.194L27.5449 127.39L25.5896 126.484L24.6908 124.319L24.0565 122.156L25.5896 120.193L27.3347 119.088L29.7666 117.376Z" fill="#DCE0ED"/>
<path opacity="0.1" d="M29.7666 117.376L32.6208 117.276L32.1441 128.194L27.5449 127.39L25.5896 126.484L24.6908 124.319L24.0565 122.156L25.5896 120.193L27.3347 119.088L29.7666 117.376Z" fill="black"/>
<path d="M29.4494 125.225C30.208 125.225 30.823 124.234 30.823 123.012C30.823 121.79 30.208 120.799 29.4494 120.799C28.6908 120.799 28.0758 121.79 28.0758 123.012C28.0758 124.234 28.6908 125.225 29.4494 125.225Z" fill="#DCE0ED"/>
<path d="M19.4723 129.187C19.0763 127.263 17.5301 126.847 17.5301 126.847C17.5301 126.847 14.5559 126.018 14.4771 129.158C14.4771 129.158 14.5165 131.084 15.8657 131.688L15.9445 133.831C15.9445 133.831 16.0627 135.832 14.873 135.642C13.6833 135.453 13.8428 133.678 13.8428 133.678C13.8428 133.678 13.2086 131.791 11.6624 132.772C11.6624 132.772 11.3058 133.829 12.0996 134.358C12.5612 134.665 12.5781 135.294 12.5124 135.766C12.4662 136.057 12.4866 136.354 12.5721 136.637C12.6576 136.92 12.8062 137.182 13.0078 137.406C13.2359 137.666 13.5329 137.863 13.8681 137.978C14.2033 138.092 14.5645 138.119 14.9143 138.056C15.5544 137.936 16.135 137.618 16.5656 137.152C17.2911 136.402 17.6989 135.422 17.7103 134.403L17.7684 131.641C17.7684 131.641 19.8682 131.112 19.4723 129.187ZM17.0328 131.13C16.6988 131.13 16.3723 131.036 16.0946 130.859C15.8169 130.683 15.6004 130.432 15.4726 130.138C15.3447 129.844 15.3113 129.521 15.3765 129.209C15.4416 128.897 15.6025 128.611 15.8387 128.386C16.0748 128.161 16.3758 128.008 16.7034 127.946C17.031 127.884 17.3705 127.916 17.6791 128.037C17.9877 128.159 18.2515 128.365 18.4371 128.63C18.6226 128.894 18.7217 129.205 18.7217 129.523C18.7197 129.948 18.5411 130.354 18.225 130.654C17.909 130.954 17.481 131.123 17.0347 131.123L17.0328 131.13Z" fill="#DCE0ED"/>
<path d="M16.3423 126.016C16.2462 126.054 16.1595 126.111 16.0878 126.183C16.016 126.255 15.9607 126.34 15.9254 126.433C15.8901 126.527 15.8756 126.626 15.8828 126.725C15.8899 126.824 15.9186 126.92 15.967 127.008C16.2785 127.563 16.6519 128.281 16.6162 128.471C16.5562 128.79 17.3105 128.528 17.4081 128.451C17.5057 128.374 18.8755 128.451 18.9543 127.558C19.0331 126.665 18.2225 126.198 18.2225 126.198L18.5396 124.255L16.6631 124.105L16.6838 125.879L16.3423 126.016Z" fill="#636780"/>
<path opacity="0.1" d="M16.3423 126.016C16.2462 126.054 16.1595 126.111 16.0878 126.183C16.016 126.255 15.9607 126.34 15.9254 126.433C15.8901 126.527 15.8756 126.626 15.8828 126.725C15.8899 126.824 15.9186 126.92 15.967 127.008C16.2785 127.563 16.6519 128.281 16.6162 128.471C16.5562 128.79 17.3105 128.528 17.4081 128.451C17.5057 128.374 18.8755 128.451 18.9543 127.558C19.0331 126.665 18.2225 126.198 18.2225 126.198L18.5396 124.255L16.6631 124.105L16.6838 125.879L16.3423 126.016Z" fill="black"/>
<path opacity="0.1" d="M16.8564 125.98C16.8564 125.98 17.4907 128.056 17.213 128.124C16.9353 128.192 16.8564 125.98 16.8564 125.98Z" fill="black"/>
<path opacity="0.1" d="M17.5695 125.489C17.5695 125.489 18.2037 127.565 17.926 127.633C17.6483 127.701 17.5695 125.489 17.5695 125.489Z" fill="black"/>
<path d="M25.1692 119.238L24.1109 125.477C24.1109 125.477 22.7974 125.307 22.0806 125.159C21.9225 125.138 21.7691 125.093 21.6264 125.025C21.5889 124.989 21.512 124.993 21.4088 125.012C21.056 125.08 20.4293 125.357 20.3073 125.123C20.2985 125.105 20.2864 125.089 20.2716 125.075C20.1478 124.946 19.9076 125.039 19.6749 125.075C19.5482 125.106 19.4137 125.089 19.2996 125.028C19.112 124.903 18.7085 125.103 18.3858 125.17C18.1812 125.212 18.0105 125.203 17.9242 125.028C17.8932 124.972 17.8484 124.922 17.7936 124.885C17.7388 124.848 17.6755 124.824 17.6089 124.814V124.814C17.3049 124.741 16.879 124.791 16.6331 124.741C16.5356 124.723 16.4699 124.687 16.4455 124.625C16.3967 124.489 16.1246 124.425 15.8338 124.371C15.4791 124.307 15.0982 124.259 15.07 124.123C15.07 124.076 15.0269 124.057 14.9743 124.055C14.7778 124.083 14.5843 124.129 14.3964 124.191V124.191C14.2388 124.23 14.1055 124.23 14.068 124.123C14.0305 124.016 13.8447 124.016 13.6364 124.064C13.4694 124.103 13.2836 124.166 13.141 124.198C12.9984 124.23 12.9196 124.23 12.9046 124.171C12.852 123.971 12.1652 124.425 12.0076 124.021C11.85 123.617 9.67703 120.942 12.4918 117.476C12.4918 117.476 13.2423 117.526 13.8278 117.626C14.0219 117.651 14.2114 117.702 14.3907 117.776V117.776C14.5915 117.885 15.0212 117.862 15.4097 117.889C15.605 117.891 15.7974 117.935 15.9726 118.018C16.0423 118.054 16.0982 118.11 16.1321 118.178C16.2203 118.369 16.423 118.409 16.6444 118.398C16.9446 118.38 17.2787 118.273 17.395 118.33H17.4063C17.6277 118.421 18.4571 118.33 18.5978 118.464L18.6091 118.477C18.6691 118.561 18.9844 118.477 19.3259 118.43C19.583 118.398 19.8419 118.394 19.9827 118.528C20.1279 118.638 20.3122 118.69 20.4968 118.673C20.7216 118.658 20.9476 118.666 21.1705 118.698C21.2219 118.713 21.268 118.74 21.3037 118.778C21.4369 118.937 21.7597 118.916 22.0543 118.93C22.2016 118.924 22.3475 118.959 22.4746 119.03C22.5202 119.061 22.572 119.081 22.6266 119.091C23.0319 119.18 23.9007 119.03 23.9007 119.03L25.1692 119.238Z" fill="#636780"/>
<path opacity="0.1" d="M13.6364 124.06C13.4694 124.1 13.2837 124.162 13.141 124.194C10.9943 121.024 12.8014 118.616 13.8184 117.626C14.0125 117.651 14.202 117.702 14.3814 117.776C12.2216 120.145 13.2236 123.103 13.6364 124.06Z" fill="black"/>
<path opacity="0.1" d="M14.9762 124.051C14.7796 124.08 14.5862 124.125 14.3983 124.187C12.5612 121.095 14.4508 118.782 15.4059 117.891C15.6013 117.893 15.7936 117.937 15.9689 118.019C13.9141 120.159 14.524 122.822 14.9762 124.051Z" fill="black"/>
<path opacity="0.1" d="M16.6332 124.737C16.5356 124.719 16.4699 124.684 16.4455 124.621C16.3967 124.485 16.1246 124.421 15.8338 124.368C14.2219 121.567 15.663 119.414 16.6407 118.4C16.9409 118.382 17.2749 118.275 17.3912 118.332H17.4025C15.1357 120.763 16.2335 123.835 16.6332 124.737Z" fill="black"/>
<path opacity="0.1" d="M18.3877 125.166C18.1831 125.209 18.0124 125.2 17.9261 125.025C17.8951 124.968 17.8503 124.919 17.7955 124.882C17.7407 124.845 17.6774 124.82 17.6108 124.811V124.811C15.7343 121.69 17.6483 119.357 18.6035 118.469L18.6147 118.482C18.6748 118.566 18.99 118.482 19.3315 118.435C16.6594 121.002 18.033 124.411 18.3877 125.166Z" fill="black"/>
<path opacity="0.1" d="M20.2679 125.073C20.144 124.944 19.9038 125.037 19.6711 125.073C17.7121 121.976 19.5116 119.636 20.5024 118.68C20.7273 118.665 20.9532 118.673 21.1761 118.705C18.8887 121.047 19.8325 124.032 20.2679 125.073Z" fill="black"/>
<path opacity="0.1" d="M22.0806 125.159C21.9226 125.138 21.7692 125.093 21.6265 125.025C21.589 124.989 21.512 124.993 21.4088 125.012C19.6731 122.183 21.0579 119.998 22.0543 118.939C22.2016 118.933 22.3476 118.968 22.4747 119.039C22.5203 119.069 22.5721 119.09 22.6267 119.1C20.7277 121.429 21.6865 124.237 22.0806 125.159Z" fill="black"/>
<path d="M73.3216 141.83C78.0795 141.83 81.9365 136.424 81.9365 129.755C81.9365 123.086 78.0795 117.68 73.3216 117.68C68.5637 117.68 64.7067 123.086 64.7067 129.755C64.7067 136.424 68.5637 141.83 73.3216 141.83Z" fill="#636780"/>
<path opacity="0.1" d="M73.0306 139.717C76.49 139.717 79.2943 135.335 79.2943 129.93C79.2943 124.525 76.49 120.143 73.0306 120.143C69.5713 120.143 66.767 124.525 66.767 129.93C66.767 135.335 69.5713 139.717 73.0306 139.717Z" fill="black"/>
<path d="M73.0306 139.415C76.49 139.415 79.2943 135.033 79.2943 129.628C79.2943 124.223 76.49 119.841 73.0306 119.841C69.5713 119.841 66.767 124.223 66.767 129.628C66.767 135.033 69.5713 139.415 73.0306 139.415Z" fill="#F0F0F4"/>
<path d="M74.1658 124.269C74.5742 124.269 74.9052 123.729 74.9052 123.062C74.9052 122.395 74.5742 121.854 74.1658 121.854C73.7575 121.854 73.4265 122.395 73.4265 123.062C73.4265 123.729 73.7575 124.269 74.1658 124.269Z" fill="#636780"/>
<path d="M77.127 134.837C77.5354 134.837 77.8664 134.296 77.8664 133.629C77.8664 132.963 77.5354 132.422 77.127 132.422C76.7187 132.422 76.3877 132.963 76.3877 133.629C76.3877 134.296 76.7187 134.837 77.127 134.837Z" fill="#636780"/>
<path d="M69.1445 129.805C69.5528 129.805 69.8838 129.264 69.8838 128.597C69.8838 127.931 69.5528 127.39 69.1445 127.39C68.7362 127.39 68.4052 127.931 68.4052 128.597C68.4052 129.264 68.7362 129.805 69.1445 129.805Z" fill="#636780"/>
<path d="M71.3118 136.848C71.7202 136.848 72.0512 136.307 72.0512 135.641C72.0512 134.974 71.7202 134.433 71.3118 134.433C70.9035 134.433 70.5725 134.974 70.5725 135.641C70.5725 136.307 70.9035 136.848 71.3118 136.848Z" fill="#636780"/>
<path d="M136.381 107.412C136.381 107.412 142.573 123.112 142.248 124.093C142.248 124.093 144.864 125.602 145.498 125.225C146.133 124.848 145.579 117.901 145.579 117.901L144.389 111.789L143.04 108.166L136.381 107.412Z" fill="#F9A826"/>
<path opacity="0.15" d="M136.381 107.412C136.381 107.412 142.573 123.112 142.248 124.093C142.248 124.093 144.864 125.602 145.498 125.225C146.133 124.848 145.579 117.901 145.579 117.901L144.389 111.789L143.04 108.166L136.381 107.412Z" fill="black"/>
<path d="M78.1835 128.296C78.5919 128.296 78.9229 127.755 78.9229 127.088C78.9229 126.421 78.5919 125.881 78.1835 125.881C77.7752 125.881 77.4442 126.421 77.4442 127.088C77.4442 127.755 77.7752 128.296 78.1835 128.296Z" fill="#636780"/>
<path d="M74.166 132.874C75.363 132.874 76.3333 131.589 76.3333 130.005C76.3333 128.421 75.363 127.136 74.166 127.136C72.969 127.136 71.9987 128.421 71.9987 130.005C71.9987 131.589 72.969 132.874 74.166 132.874Z" fill="#636780"/>
<path d="M143.282 128.396C143.282 137.482 140.111 145.754 131.31 144.849C120.211 144.622 119.339 137.482 119.339 128.396C119.339 119.309 124.694 112.546 131.307 112.546C137.919 112.546 143.282 119.307 143.282 128.396Z" fill="#636780"/>
<path opacity="0.1" d="M143.348 128.41C143.348 121.376 140.135 115.727 135.615 113.545C129.811 114.595 125.351 120.95 125.351 129.24C125.351 136.687 125.938 142.816 132.258 144.924C140.389 145.202 143.348 137.196 143.348 128.41Z" fill="black"/>
<path opacity="0.1" d="M147.957 124.546C147.957 124.546 146.371 125.829 145.498 124.923C145.498 124.923 143.357 108.62 140.663 108.545L131.385 108.47C131.385 108.47 130.276 108.922 129.8 110.885L123.795 127.14L90.9286 127.59L88.4178 122.588L115.614 122.663V122.653C115.76 122.151 120.305 106.705 123.358 104.79C123.461 104.723 123.575 104.671 123.694 104.635C123.694 104.635 135.031 103.206 138.758 104.181C138.758 104.181 142.642 105.012 143.594 106.146C143.721 106.273 145.193 107.85 145.649 112.398L147.957 124.546Z" fill="black"/>
<path d="M147.957 124.848C147.957 124.848 146.371 126.131 145.498 125.225C145.498 125.225 143.357 108.922 140.663 108.847L131.385 108.772C131.385 108.772 130.276 109.224 129.8 111.187L123.795 127.442L90.9286 127.892L88.4178 122.89L115.614 122.966V122.955C115.76 122.453 120.305 107.007 123.358 105.092C123.461 105.025 123.575 104.973 123.694 104.937C123.694 104.937 135.031 103.508 138.758 104.483C138.758 104.483 142.642 105.314 143.594 106.448V106.457C143.721 106.584 145.193 108.161 145.649 112.709L147.957 124.848Z" fill="#F9A826"/>
<path opacity="0.1" d="M147.957 124.848C147.957 124.848 146.371 126.131 145.498 125.225C145.498 125.225 143.357 108.922 140.663 108.847L131.385 108.772C131.385 108.772 130.276 109.224 129.8 111.187L123.795 127.442L90.9286 127.892L88.4178 122.89L115.614 122.966V122.955C115.76 122.453 120.305 107.007 123.358 105.092C123.461 105.025 123.575 104.973 123.694 104.937C123.694 104.937 135.031 103.508 138.758 104.483C138.758 104.483 142.642 105.314 143.594 106.448V106.457C143.721 106.584 145.193 108.161 145.649 112.709L147.957 124.848Z" fill="black"/>
<path d="M127.818 107.036C127.025 108.465 120.207 126.131 120.207 126.131L115.608 122.96V122.949C115.754 122.447 120.299 106.986 123.356 105.087C125.345 105.401 128.357 106.062 127.818 107.036Z" fill="#F9A826"/>
<path d="M118.939 98.9601L115.212 110.581L95.7867 110.046L95.9444 111.782C95.9444 111.782 111.168 113.895 117.668 111.026L121.159 100.411L151.815 100.561L145.975 99.2531L118.939 98.9601Z" fill="#F9A826"/>
<path opacity="0.1" d="M118.939 98.9601L115.212 110.581L95.7867 110.046L95.9444 111.782C95.9444 111.782 111.168 113.895 117.668 111.026L121.159 100.411L151.815 100.561L145.975 99.2531L118.939 98.9601Z" fill="white"/>
<path opacity="0.1" d="M27.8639 117.274C27.8639 117.274 17.4513 122.256 25.1674 126.936L27.2315 127.388C27.2315 127.388 19.673 122.208 32.298 117.274H27.8639Z" fill="black"/>
<path d="M28.181 117.274C28.181 117.274 17.7684 122.256 25.4845 126.936L27.5486 127.388C27.5486 127.388 19.9902 122.208 32.6151 117.274H28.181Z" fill="#DCE0ED"/>
<path d="M135.904 139.113C139.1 139.113 141.691 134.889 141.691 129.678C141.691 124.467 139.1 120.243 135.904 120.243C132.708 120.243 130.117 124.467 130.117 129.678C130.117 134.889 132.708 139.113 135.904 139.113Z" fill="#636780"/>
<path opacity="0.1" d="M135.709 137.527C138.032 137.527 139.916 134.104 139.916 129.882C139.916 125.66 138.032 122.237 135.709 122.237C133.385 122.237 131.502 125.66 131.502 129.882C131.502 134.104 133.385 137.527 135.709 137.527Z" fill="black"/>
<path d="M135.709 137.225C138.032 137.225 139.916 133.802 139.916 129.58C139.916 125.358 138.032 121.935 135.709 121.935C133.385 121.935 131.502 125.358 131.502 129.58C131.502 133.802 133.385 137.225 135.709 137.225Z" fill="#F0F0F4"/>
<path d="M136.473 125.393C136.747 125.393 136.97 124.971 136.97 124.45C136.97 123.929 136.747 123.507 136.473 123.507C136.198 123.507 135.975 123.929 135.975 124.45C135.975 124.971 136.198 125.393 136.473 125.393Z" fill="#636780"/>
<path d="M138.462 133.649C138.736 133.649 138.959 133.227 138.959 132.706C138.959 132.185 138.736 131.763 138.462 131.763C138.187 131.763 137.964 132.185 137.964 132.706C137.964 133.227 138.187 133.649 138.462 133.649Z" fill="#636780"/>
<path d="M133.099 129.717C133.373 129.717 133.596 129.295 133.596 128.774C133.596 128.253 133.373 127.831 133.099 127.831C132.824 127.831 132.601 128.253 132.601 128.774C132.601 129.295 132.824 129.717 133.099 129.717Z" fill="#636780"/>
<path d="M134.555 135.221C134.829 135.221 135.052 134.799 135.052 134.278C135.052 133.757 134.829 133.335 134.555 133.335C134.28 133.335 134.057 133.757 134.057 134.278C134.057 134.799 134.28 135.221 134.555 135.221Z" fill="#636780"/>
<path d="M139.171 128.538C139.445 128.538 139.668 128.116 139.668 127.595C139.668 127.074 139.445 126.652 139.171 126.652C138.896 126.652 138.674 127.074 138.674 127.595C138.674 128.116 138.896 128.538 139.171 128.538Z" fill="#636780"/>
<path d="M136.473 132.114C137.277 132.114 137.929 131.112 137.929 129.875C137.929 128.637 137.277 127.635 136.473 127.635C135.668 127.635 135.016 128.637 135.016 129.875C135.016 131.112 135.668 132.114 136.473 132.114Z" fill="#636780"/>
<path opacity="0.1" d="M51.8602 87.7174C51.8602 87.7174 69.4635 88.3212 92.2965 94.2837L51.8602 87.7174Z" fill="black"/>
<path d="M135.842 58.3818C135.842 58.3818 134.887 58.5283 135.384 59.7287C135.881 60.929 135.964 61.5488 135.964 61.5488C135.964 61.5488 136.921 62.0222 136.882 60.4557C136.842 58.8891 135.842 58.3818 135.842 58.3818Z" fill="#DCE0ED"/>
<path d="M89.0221 82.7158L89.0108 82.7301C88.8106 82.9677 88.681 83.2521 88.6355 83.5535C88.4816 84.5074 88.3353 86.4616 89.7933 86.1382C90.6136 85.9641 91.3663 85.5749 91.9663 85.0147C92.1312 84.8481 92.2589 84.6514 92.3418 84.4365C92.4247 84.2216 92.461 83.9929 92.4485 83.7643V83.7643C92.4502 83.5495 92.396 83.3377 92.291 83.1476C92.1859 82.9575 92.0331 82.795 91.8462 82.6747L91.3039 82.3782C91.1509 82.2916 90.9751 82.2482 90.7972 82.2532L89.859 82.2853C89.6956 82.2973 89.5367 82.3418 89.3925 82.416C89.2484 82.4902 89.1222 82.5923 89.0221 82.7158Z" fill="#FEC2BE"/>
<path d="M99.5603 66.3717L96.7587 79.6222L94.7753 83.6091L96.0888 85.9312L98.9973 79.4114C98.9973 79.4114 102.187 69.8549 102.187 69.587C102.187 69.3191 99.5603 66.3717 99.5603 66.3717Z" fill="#F9A826"/>
</g>
<defs>
<linearGradient id="paint0_linear" x1="64.9431" y1="104.342" x2="64.9431" y2="79.2826" gradientUnits="userSpaceOnUse">
<stop stop-color="#808080" stop-opacity="0.25"/>
<stop offset="0.54" stop-color="#808080" stop-opacity="0.12"/>
<stop offset="1" stop-color="#808080" stop-opacity="0.1"/>
</linearGradient>
<clipPath id="clip0">
<rect width="207" height="149" fill="white"/>
</clipPath>
</defs>
</svg>
