<svg width="275" height="242" viewBox="0 0 275 242" fill="none" xmlns="http://www.w3.org/2000/svg">
<g clip-path="url(#clip0)">
<path d="M137.987 241.86C137.92 241.75 136.335 239.108 135.786 233.621C135.282 228.587 135.606 220.102 140.012 208.267C148.361 185.844 138.089 167.753 137.984 167.573L138.49 167.279C138.517 167.325 141.168 171.937 142.733 179.282C144.802 189.02 144.049 199.145 140.562 208.471C132.228 230.854 138.424 241.451 138.487 241.555L137.987 241.86Z" fill="#3F3D56"/>
<path d="M134.723 166.256C136.825 166.256 138.53 164.554 138.53 162.454C138.53 160.355 136.825 158.653 134.723 158.653C132.62 158.653 130.916 160.355 130.916 162.454C130.916 164.554 132.62 166.256 134.723 166.256Z" fill="#F9A826"/>
<path d="M146.73 180.294C148.832 180.294 150.537 178.592 150.537 176.492C150.537 174.392 148.832 172.69 146.73 172.69C144.627 172.69 142.923 174.392 142.923 176.492C142.923 178.592 144.627 180.294 146.73 180.294Z" fill="#3F3D56"/>
<path d="M138.53 189.652C140.632 189.652 142.337 187.95 142.337 185.85C142.337 183.75 140.632 182.048 138.53 182.048C136.427 182.048 134.723 183.75 134.723 185.85C134.723 187.95 136.427 189.652 138.53 189.652Z" fill="#F9A826"/>
<path d="M148.487 197.548C150.59 197.548 152.294 195.846 152.294 193.746C152.294 191.647 150.59 189.944 148.487 189.944C146.384 189.944 144.68 191.647 144.68 193.746C144.68 195.846 146.384 197.548 148.487 197.548Z" fill="#F9A826"/>
<path d="M135.601 209.831C137.704 209.831 139.408 208.129 139.408 206.029C139.408 203.929 137.704 202.227 135.601 202.227C133.499 202.227 131.794 203.929 131.794 206.029C131.794 208.129 133.499 209.831 135.601 209.831Z" fill="#3F3D56"/>
<path d="M140.287 242C140.287 242 136.48 232.642 147.901 225.623L140.287 242Z" fill="#3F3D56"/>
<path d="M135.605 241.83C135.605 241.83 133.872 231.878 120.462 231.964L135.605 241.83Z" fill="#3F3D56"/>
<path d="M48.3308 133.806H47.7451V207.187H48.3308V133.806Z" fill="#3F3D56"/>
<path d="M66.1948 122.515H65.6091V218.479H66.1948V122.515Z" fill="#3F3D56"/>
<path d="M84.059 119.318H83.4733V221.675H84.059V119.318Z" fill="#3F3D56"/>
<path d="M101.923 122.515H101.337V218.479H101.923V122.515Z" fill="#3F3D56"/>
<path d="M119.787 133.806H119.202V207.187H119.787V133.806Z" fill="#3F3D56"/>
<path d="M128.895 145.931H38.6373V146.516H128.895V145.931Z" fill="#3F3D56"/>
<path d="M135.016 170.204H32.5166V170.789H135.016V170.204Z" fill="#3F3D56"/>
<path d="M128.895 194.477H38.6373V195.062H128.895V194.477Z" fill="#3F3D56"/>
<path d="M223.75 146.516C252.055 146.516 275 123.603 275 95.3378C275 67.0728 252.055 44.1595 223.75 44.1595C195.446 44.1595 172.501 67.0728 172.501 95.3378C172.501 123.603 195.446 146.516 223.75 146.516Z" fill="#F9A826"/>
<path d="M137.066 85.26H136.48V158.641H137.066V85.26Z" fill="#3F3D56"/>
<path d="M154.93 73.9688H154.344V169.932H154.93V73.9688Z" fill="#3F3D56"/>
<path d="M172.794 70.7722H172.208V173.129H172.794V70.7722Z" fill="#3F3D56"/>
<path d="M190.658 73.9688H190.072V169.932H190.658V73.9688Z" fill="#3F3D56"/>
<path d="M208.522 85.26H207.936V158.641H208.522V85.26Z" fill="#3F3D56"/>
<path d="M217.63 97.3849H127.372V97.9698H217.63V97.3849Z" fill="#3F3D56"/>
<path d="M223.75 121.658H121.251V122.243H223.75V121.658Z" fill="#3F3D56"/>
<path d="M217.63 145.931H127.372V146.516H217.63V145.931Z" fill="#3F3D56"/>
<path d="M212.114 9.67358H212.114C198.016 9.67358 186.588 22.3391 186.588 37.9629V57.813H192.701L196.241 50.4584L195.356 57.813H234.651L237.869 51.127L237.064 57.813H241.488V42.2271C241.488 24.2483 228.337 9.67358 212.114 9.67358Z" fill="#2F2E41"/>
<path d="M199.792 45.3508C199.792 45.3508 207.76 63.9154 197.137 67.6284L207.76 102.636L225.819 101.575L230.6 89.9059L229.537 72.4021L227.944 60.7329C227.944 60.7329 216.79 63.385 217.852 43.7595L199.792 45.3508Z" fill="#FFB8B8"/>
<path d="M195.543 67.098C195.543 67.098 178.015 65.5067 179.609 78.2367C181.202 90.9668 182.796 93.6189 182.796 93.6189L184.389 112.714L174.828 118.549H165.798C165.798 118.549 138.178 124.914 151.988 131.809C165.798 138.704 170.579 126.505 170.579 126.505C170.579 126.505 196.074 126.505 197.668 122.261C199.261 118.018 195.543 67.098 195.543 67.098Z" fill="#FFB8B8"/>
<path d="M229.537 61.7938C229.537 61.7938 246.003 55.9592 247.065 68.6892C248.128 81.4193 248.128 82.4801 248.128 82.4801L251.315 100.514C251.315 100.514 257.689 116.427 257.689 121.201C257.689 125.974 262.469 140.826 262.469 140.826C262.469 140.826 268.843 161.513 261.938 160.982C255.033 160.452 253.971 138.705 253.971 138.705L239.629 110.062L235.38 92.5581L229.537 61.7938Z" fill="#FFB8B8"/>
<path d="M198.199 64.9762H193.95L193.419 87.2538C193.419 87.2538 186.514 96.8013 195.012 105.288L197.137 119.079L235.911 117.488L238.567 103.166C238.567 103.166 243.879 91.4971 236.442 80.8888L229.537 59.1416H225.819C225.819 59.1416 234.431 90.849 216.258 91.4971C201.386 92.0275 198.199 64.9762 198.199 64.9762Z" fill="white"/>
<path d="M259.88 196.694C247.904 210.149 233.321 221.039 217.012 228.708C217.006 202.166 217.319 180.607 217.319 180.607C217.319 180.607 215.064 203.388 212.2 230.852C195.838 237.75 178.254 241.292 160.494 241.269C160.178 241.269 159.861 241.269 159.545 241.263C174.159 188.827 195.475 128.729 196.064 127.071C196.069 127.06 196.072 127.048 196.076 127.036L197.361 122.755L197.909 120.933L198.483 119.023L199.262 116.426L233.787 115.367L234.753 117.534L238.036 124.913C238.322 124.996 238.594 125.123 238.841 125.29C245.056 129.364 252.889 160.457 259.88 196.694Z" fill="#2F2E41"/>
<path d="M237.505 111.123L195.543 112.714C195.543 112.714 193.628 127.035 195.543 127.035C196.074 127.035 239.629 130.748 239.098 124.383C238.567 118.018 237.505 111.123 237.505 111.123Z" fill="#3F3D56"/>
<path d="M208.002 51.4259C216.244 51.4259 222.926 44.7533 222.926 36.5223C222.926 28.2913 216.244 21.6188 208.002 21.6188C199.759 21.6188 193.078 28.2913 193.078 36.5223C193.078 44.7533 199.759 51.4259 208.002 51.4259Z" fill="#FFB8B8"/>
<path d="M219.371 17.4663C216.808 14.1707 213.028 12.0834 208.808 12.0834H208.307C198.644 12.0834 190.811 20.8148 190.811 31.5857V31.5857H194.048L194.571 27.6112L195.338 31.5857H214.541L216.15 28.2232L215.747 31.5857H219.525C221.288 40.3281 218.755 49.0706 211.926 57.813H218.362L221.579 51.088L220.775 57.813H233.042L235.455 42.3456C235.455 30.7619 228.715 20.9392 219.371 17.4663Z" fill="#2F2E41"/>
<path d="M222.898 19.0951C228.178 19.0951 232.459 14.8205 232.459 9.54753C232.459 4.27458 228.178 0 222.898 0C217.618 0 213.337 4.27458 213.337 9.54753C213.337 14.8205 217.618 19.0951 222.898 19.0951Z" fill="#2F2E41"/>
<path d="M153.051 126.715C155.706 126.715 157.858 124.566 157.858 121.915C157.858 119.264 155.706 117.115 153.051 117.115C150.397 117.115 148.245 119.264 148.245 121.915C148.245 124.566 150.397 126.715 153.051 126.715Z" fill="#F9A826"/>
<path d="M153.052 121.915H48.2632V79.6743H135.427L153.052 121.915Z" fill="#EFEFEF"/>
<path d="M153.53 122.235H35.4452V70.394H132.116L132.198 70.592L153.53 122.235ZM36.0861 121.595H152.573L131.687 71.0341H36.0861V121.595Z" fill="#3F3D56"/>
<path d="M117.802 86.3944H65.5677V91.1945H117.802V86.3944Z" fill="#3F3D56"/>
<path d="M117.802 96.3146H65.5677V101.115H117.802V96.3146Z" fill="#3F3D56"/>
<path d="M117.802 106.235H65.5677V111.035H117.802V106.235Z" fill="#3F3D56"/>
<path d="M3.51425 171.475C2.8192 171.475 2.13976 171.269 1.56184 170.884C0.983925 170.498 0.533495 169.95 0.26751 169.309C0.00152433 168.668 -0.0680718 167.962 0.0675264 167.281C0.203125 166.6 0.537827 165.975 1.0293 165.484C1.52078 164.994 2.14696 164.659 2.82866 164.524C3.51036 164.389 4.21696 164.458 4.8591 164.724C5.50125 164.989 6.0501 165.439 6.43625 166.016C6.8224 166.593 7.0285 167.272 7.0285 167.966C7.02744 168.896 6.65685 169.788 5.99803 170.446C5.33921 171.104 4.44596 171.474 3.51425 171.475V171.475ZM3.51425 165.041C2.93504 165.041 2.36884 165.213 1.88724 165.534C1.40565 165.856 1.03029 166.312 0.808635 166.847C0.586981 167.381 0.528985 167.969 0.641983 168.536C0.754982 169.104 1.0339 169.625 1.44346 170.034C1.85303 170.443 2.37484 170.721 2.94292 170.834C3.51101 170.947 4.09984 170.889 4.63496 170.668C5.17008 170.446 5.62746 170.072 5.94925 169.591C6.27104 169.11 6.4428 168.544 6.4428 167.966C6.44193 167.191 6.13311 166.447 5.58409 165.899C5.03507 165.351 4.29069 165.042 3.51425 165.041V165.041Z" fill="#2F2E41"/>
<path d="M127.048 39.3739H121.267V33.6007H127.048V39.3739ZM121.712 38.9298H126.604V34.0448H121.712V38.9298Z" fill="#3F3D56"/>
<path d="M17.7094 40.5671L13.7661 36.3453L17.9938 32.4075L21.9371 36.6293L17.7094 40.5671ZM14.3946 36.3671L17.7313 39.9395L21.3086 36.6075L17.9719 33.0351L14.3946 36.3671Z" fill="#2F2E41"/>
</g>
<defs>
<clipPath id="clip0">
<rect width="275" height="242" fill="white"/>
</clipPath>
</defs>
</svg>
