<svg width="266" height="245" viewBox="0 0 266 245" fill="none" xmlns="http://www.w3.org/2000/svg">
<g clip-path="url(#clip0)">
<path d="M122.14 134.796C122.093 134.796 122.063 134.795 122.052 134.794L116.365 134.795V133.956H122.073C122.205 133.961 124.902 134.037 127.386 131.023C131.088 126.531 134.129 115.409 127.588 87.9405C118.793 51.0047 126.128 18.3739 129.69 6.05913C129.866 5.44987 129.897 4.80814 129.782 4.18466C129.667 3.56118 129.408 2.97302 129.027 2.46666C128.645 1.9603 128.151 1.54961 127.583 1.26705C127.016 0.984482 126.39 0.83778 125.756 0.838534H40.8155C40.1698 0.8394 39.5333 0.992507 38.9578 1.28543C38.3823 1.57835 37.8839 2.00283 37.5032 2.52442C35.9943 4.59989 33.9236 8.58705 32.6278 15.7965L31.8025 15.6483C33.1263 8.28221 35.2644 4.17775 36.8249 2.03145C37.2835 1.40296 37.8839 0.891469 38.5773 0.538502C39.2706 0.185534 40.0375 0.00103669 40.8155 -5.34772e-06H125.756C126.52 -0.000740551 127.274 0.176208 127.958 0.516859C128.642 0.85751 129.237 1.35253 129.697 1.96281C130.157 2.57309 130.468 3.28192 130.607 4.03328C130.745 4.78463 130.707 5.55795 130.496 6.29211C126.952 18.543 119.655 51.0045 128.404 87.7464C135.036 115.602 131.848 126.964 128.005 131.59C125.47 134.642 122.678 134.796 122.14 134.796Z" fill="#E6E6E6"/>
<path d="M106.836 150.099C106.788 150.099 106.758 150.098 106.748 150.098L101.06 150.098V149.26H106.769C106.901 149.264 109.597 149.341 112.081 146.326C115.784 141.834 118.824 130.713 112.283 103.244C103.488 66.308 110.824 33.6773 114.386 21.3625C114.561 20.7532 114.593 20.1115 114.477 19.488C114.362 18.8645 114.104 18.2764 113.722 17.77C113.34 17.2636 112.846 16.853 112.279 16.5704C111.711 16.2878 111.085 16.1411 110.451 16.1419H25.511C24.8652 16.1427 24.2288 16.2958 23.6533 16.5888C23.0777 16.8817 22.5794 17.3062 22.1987 17.8278C20.6898 19.9032 18.6191 23.8904 17.3233 31.0998L16.4979 30.9516C17.8218 23.5855 19.9599 19.4811 21.5204 17.3348C21.979 16.7063 22.5794 16.1948 23.2727 15.8418C23.9661 15.4889 24.733 15.3044 25.511 15.3033H110.451C111.215 15.3026 111.969 15.4795 112.653 15.8202C113.337 16.1608 113.933 16.6559 114.392 17.2661C114.852 17.8764 115.164 18.5853 115.302 19.3366C115.441 20.088 115.403 20.8613 115.191 21.5955C111.648 33.8464 104.35 66.3078 113.099 103.05C119.732 130.905 116.543 142.267 112.701 146.894C110.166 149.945 107.373 150.099 106.836 150.099Z" fill="#CCCCCC"/>
<path d="M91.5312 165.403C91.4837 165.403 91.4538 165.402 91.4434 165.401L7.81225 165.402C7.00707 165.403 6.21393 165.206 5.50223 164.83C4.79054 164.453 4.18197 163.908 3.72981 163.242C3.27764 162.575 2.99566 161.809 2.90852 161.008C2.82138 160.208 2.93175 159.398 3.22997 158.65C6.26438 151.07 10.3501 132.883 3.62056 96.2467C-4.32581 52.9864 2.7883 37.352 6.21576 32.6381C6.67438 32.0096 7.27476 31.4981 7.96815 31.1452C8.66155 30.7922 9.42842 30.6077 10.2065 30.6067H95.1468C95.9109 30.6059 96.6647 30.7829 97.3486 31.1235C98.0326 31.4642 98.628 31.9592 99.0877 32.5695C99.5474 33.1798 99.8589 33.8886 99.9976 34.6399C100.136 35.3913 100.098 36.1646 99.8867 36.8988C96.3432 49.1497 89.0458 81.6112 97.7946 118.353C104.427 146.208 101.239 157.57 97.396 162.197C94.8614 165.248 92.0686 165.403 91.5312 165.403ZM10.2065 31.4452C9.5607 31.4461 8.92421 31.5992 8.34867 31.8921C7.77314 32.185 7.27478 32.6095 6.89405 33.1311C3.53017 37.7576 -3.44237 53.1543 4.44533 96.0952C10.874 131.093 7.75614 149.6 4.00847 158.962C3.75589 159.58 3.66109 160.251 3.73261 160.914C3.80413 161.578 4.03973 162.213 4.41815 162.763C4.79337 163.317 5.29905 163.772 5.89081 164.086C6.48258 164.4 7.14235 164.564 7.81223 164.563H91.4639C91.596 164.569 94.2925 164.644 96.7769 161.63C100.479 157.137 103.519 146.016 96.9787 118.547C88.1838 81.6114 95.5191 48.9806 99.0811 36.6658C99.2566 36.0565 99.288 35.4148 99.1728 34.7913C99.0576 34.1679 98.799 33.5797 98.4174 33.0733C98.0358 32.567 97.5417 32.1563 96.974 31.8737C96.4064 31.5912 95.7808 31.4445 95.1467 31.4452H10.2065Z" fill="#3F3D56"/>
<path d="M80.6992 68.3409H14.0302C13.1406 68.3409 12.2873 67.9875 11.6583 67.3585C11.0292 66.7295 10.6758 65.8764 10.6758 64.9868C10.6758 64.0972 11.0292 63.244 11.6583 62.615C12.2873 61.986 13.1406 61.6326 14.0302 61.6326H80.6992C81.5889 61.6326 82.4421 61.986 83.0712 62.615C83.7002 63.244 84.0536 64.0972 84.0536 64.9868C84.0536 65.8764 83.7002 66.7295 83.0712 67.3585C82.4421 67.9875 81.5889 68.3409 80.6992 68.3409Z" fill="#F9A826"/>
<path d="M80.6992 82.5961H14.0302C13.1406 82.5961 12.2873 82.2427 11.6583 81.6137C11.0292 80.9847 10.6758 80.1315 10.6758 79.2419C10.6758 78.3524 11.0292 77.4992 11.6583 76.8702C12.2873 76.2412 13.1406 75.8878 14.0302 75.8878H80.6992C81.5889 75.8878 82.4421 76.2412 83.0712 76.8702C83.7002 77.4992 84.0536 78.3524 84.0536 79.2419C84.0536 80.1315 83.7002 80.9847 83.0712 81.6137C82.4421 82.2427 81.5889 82.5961 80.6992 82.5961Z" fill="#CCCCCC"/>
<path d="M80.6992 96.8512H14.0302C13.1406 96.8512 12.2873 96.4979 11.6583 95.8688C11.0292 95.2398 10.6758 94.3867 10.6758 93.4971C10.6758 92.6075 11.0292 91.7544 11.6583 91.1253C12.2873 90.4963 13.1406 90.1429 14.0302 90.1429H80.6992C81.5889 90.1429 82.4421 90.4963 83.0712 91.1253C83.7002 91.7544 84.0536 92.6075 84.0536 93.4971C84.0536 94.3867 83.7002 95.2398 83.0712 95.8688C82.4421 96.4979 81.5889 96.8512 80.6992 96.8512Z" fill="#CCCCCC"/>
<path d="M85.7309 111.106H19.0618C18.1722 111.106 17.319 110.753 16.6899 110.124C16.0608 109.495 15.7074 108.642 15.7074 107.752C15.7074 106.863 16.0608 106.01 16.6899 105.381C17.319 104.751 18.1722 104.398 19.0618 104.398H85.7309C86.6205 104.398 87.4737 104.751 88.1028 105.381C88.7319 106.01 89.0853 106.863 89.0853 107.752C89.0853 108.642 88.7319 109.495 88.1028 110.124C87.4737 110.753 86.6205 111.106 85.7309 111.106Z" fill="#CCCCCC"/>
<path d="M85.7309 125.362H19.0618C18.1722 125.362 17.319 125.008 16.6899 124.379C16.0608 123.75 15.7074 122.897 15.7074 122.007C15.7074 121.118 16.0608 120.265 16.6899 119.636C17.319 119.007 18.1722 118.653 19.0618 118.653H85.7309C86.6205 118.653 87.4737 119.007 88.1028 119.636C88.7319 120.265 89.0853 121.118 89.0853 122.007C89.0853 122.897 88.7319 123.75 88.1028 124.379C87.4737 125.008 86.6205 125.362 85.7309 125.362Z" fill="#CCCCCC"/>
<path d="M45.4779 54.0858H14.0302C13.1406 54.0858 12.2873 53.7324 11.6583 53.1033C11.0292 52.4743 10.6758 51.6212 10.6758 50.7316C10.6758 49.842 11.0292 48.9889 11.6583 48.3598C12.2873 47.7308 13.1406 47.3774 14.0302 47.3774H45.4779C46.3675 47.3774 47.2207 47.7308 47.8498 48.3598C48.4789 48.9889 48.8323 49.842 48.8323 50.7316C48.8323 51.6212 48.4789 52.4743 47.8498 53.1033C47.2207 53.7324 46.3675 54.0858 45.4779 54.0858Z" fill="#F9A826"/>
<path d="M41.4173 148.347C42.0941 145.481 45.274 144.542 47.8739 144.647C49.5165 144.758 51.1458 145.015 52.7423 145.417C54.4129 145.791 56.0672 146.233 57.7131 146.703C60.7315 147.563 63.7187 148.604 66.7867 149.277C69.3409 149.837 72.1166 150.166 74.6637 149.392C77.1122 148.649 79.1894 146.824 79.8556 144.301C80.4834 141.923 79.6215 139.323 77.3171 138.236C75.2156 137.245 72.5611 137.749 71.5196 139.99C70.3452 142.517 71.5186 145.273 73.3781 147.101C74.435 148.093 75.5927 148.973 76.8322 149.724C78.0904 150.582 79.4907 151.209 80.9681 151.577C83.3938 152.095 86.2833 151.331 87.5342 149.014C87.8123 148.49 87.9795 147.913 88.0256 147.322C88.0996 146.516 86.8412 146.521 86.7677 147.322C86.5556 149.629 83.8532 150.71 81.8323 150.456C80.4682 150.23 79.1655 149.725 78.006 148.972C76.887 148.319 75.8267 147.571 74.8369 146.736C73.1228 145.252 71.5161 142.812 72.6673 140.497C73.6047 138.613 76.0482 138.631 77.5344 139.847C79.3343 141.319 79.0134 143.99 77.8263 145.738C76.5118 147.674 74.1294 148.485 71.8831 148.573C69.4423 148.668 67.0219 148.108 64.6892 147.445C61.7908 146.622 58.9212 145.701 56.0088 144.926C54.3554 144.486 52.6892 144.089 51.006 143.781C49.4144 143.43 47.7796 143.317 46.1549 143.445C43.5301 143.748 40.8507 145.276 40.2044 148.012C40.0185 148.799 41.2311 149.135 41.4173 148.347L41.4173 148.347Z" fill="#3F3D56"/>
<path d="M169.933 219.463C170.006 227.718 170.61 235.961 171.744 244.138C171.783 244.426 171.827 244.713 171.866 245L249.187 244.568C249.414 244.283 249.637 243.994 249.854 243.702C250.576 242.735 251.252 241.741 251.873 240.713C254.858 235.758 256.225 229.957 254.856 225.955L254.831 225.893C254.535 225.017 254.07 224.207 253.46 223.511C250.338 219.997 244.024 220.583 238.295 223.419C243.434 217.795 247.526 210.698 247.837 204.362C248.141 198.183 244.91 193.769 241.405 190.017C241.29 189.893 241.175 189.773 241.06 189.652C241.005 189.59 240.945 189.532 240.89 189.47C238.155 186.611 234.967 183.793 230.353 184.134C225.292 184.508 219.681 188.747 215.747 193.686C211.813 198.622 209.199 204.229 206.549 209.701C203.896 215.169 201.025 220.778 196.767 225.452C202.534 218.158 207.184 209.86 208.901 201.789C210.619 193.718 209.107 185.966 203.968 182.165C202.407 181.047 200.602 180.318 198.702 180.041C198.48 180.004 198.255 179.974 198.026 179.948C193.269 179.406 187.588 181.052 182.755 184.985C177.432 189.315 173.742 195.735 171.906 201.829C170.07 207.924 169.874 213.791 169.933 219.463Z" fill="#F2F2F2"/>
<path d="M220.521 244.728L221.999 244.72C222.469 244.426 222.94 244.136 223.414 243.85C223.708 243.665 224.004 243.486 224.301 243.305C229.206 240.31 234.14 237.437 239.106 234.686C244.067 231.933 249.053 229.307 254.064 226.808C254.197 226.75 254.305 226.648 254.37 226.518C254.435 226.389 254.453 226.241 254.42 226.1C254.415 226.081 254.407 226.064 254.396 226.048C254.326 225.917 254.17 225.862 253.942 225.974C253.327 226.282 252.709 226.59 252.094 226.905C247.069 229.448 242.066 232.116 237.085 234.912C232.107 237.707 227.157 240.625 222.236 243.666C222.132 243.729 222.029 243.795 221.925 243.858C221.456 244.148 220.99 244.438 220.521 244.728Z" fill="white"/>
<path d="M201.457 244.835L202.371 244.83C202.578 244.541 202.78 244.252 202.986 243.964C207.831 237.171 212.675 230.377 217.518 223.584C225.448 212.462 233.377 201.341 241.302 190.219C241.349 190.159 241.384 190.091 241.405 190.017C241.473 189.771 241.292 189.627 241.06 189.652C240.963 189.666 240.869 189.701 240.786 189.754C240.702 189.807 240.631 189.877 240.577 189.96C236.131 196.197 231.686 202.432 227.242 208.664C219.352 219.73 211.464 230.795 203.577 241.859C203.076 242.561 202.574 243.267 202.072 243.969C201.866 244.258 201.66 244.546 201.457 244.835Z" fill="white"/>
<path d="M181.089 239.526C181.136 241.066 181.238 242.583 181.371 244.085C181.397 244.372 181.423 244.659 181.448 244.946L182.408 244.941C182.378 244.654 182.349 244.367 182.323 244.079C182.121 241.909 181.977 239.715 181.957 237.461C181.932 231.211 182.541 224.975 183.775 218.848C185.087 212.252 186.971 205.782 189.405 199.512C191.96 192.899 195.041 186.502 198.617 180.381C198.685 180.281 198.715 180.161 198.702 180.041C198.663 179.767 198.299 179.686 198.026 179.948C197.973 179.999 197.926 180.057 197.889 180.122C197.446 180.882 197.012 181.645 196.586 182.411C193.141 188.566 190.193 194.986 187.769 201.609C185.46 207.9 183.703 214.379 182.52 220.975C181.411 227.093 180.931 233.309 181.089 239.526Z" fill="white"/>
<path d="M87.6361 148.645C87.4771 148.512 87.3608 148.336 87.302 148.137C87.2431 147.939 87.2443 147.728 87.3054 147.53C87.3664 147.332 87.4847 147.157 87.6452 147.026C87.8057 146.896 88.0013 146.816 88.2073 146.796C90.4942 146.575 92.8023 146.812 94.9969 147.492L117.352 154.395C117.642 154.485 117.91 154.63 118.144 154.823C118.377 155.017 118.57 155.254 118.711 155.522C118.852 155.789 118.94 156.083 118.968 156.384C118.996 156.686 118.964 156.99 118.875 157.279C118.786 157.568 118.64 157.837 118.447 158.07C118.254 158.303 118.016 158.496 117.749 158.638C117.481 158.779 117.188 158.866 116.886 158.895C116.585 158.923 116.281 158.891 115.991 158.802L93.6359 151.898C91.4399 151.223 89.4003 150.117 87.6361 148.645Z" fill="#3F3D56"/>
<path d="M179.273 177.323C178.666 177.068 178.122 176.683 177.68 176.195C177.237 175.708 176.907 175.129 176.712 174.5C176.518 173.871 176.463 173.207 176.553 172.555C176.643 171.902 176.875 171.278 177.232 170.725L173.4 150.687L183.167 149.926L183.756 169.525C184.645 170.187 185.261 171.152 185.486 172.238C185.712 173.323 185.531 174.454 184.978 175.415C184.426 176.376 183.54 177.101 182.488 177.453C181.437 177.804 180.293 177.758 179.273 177.323Z" fill="#FFB8B8"/>
<path d="M172.798 166.981L162.851 120.659C162.442 118.757 162.806 116.77 163.863 115.136C164.919 113.501 166.582 112.354 168.485 111.945C170.387 111.537 172.374 111.901 174.009 112.958C175.643 114.014 176.791 115.676 177.199 117.579L187.146 163.9C187.251 164.39 187.157 164.9 186.885 165.32C186.614 165.74 186.187 166.036 185.698 166.141L175.039 168.43C174.796 168.482 174.546 168.486 174.302 168.441C174.059 168.396 173.826 168.304 173.618 168.17C173.41 168.035 173.23 167.861 173.09 167.657C172.949 167.453 172.85 167.223 172.798 166.981Z" fill="#F9A826"/>
<path d="M156.471 239.849H151.331L148.885 220.023L156.472 220.023L156.471 239.849Z" fill="#FFB8B8"/>
<path d="M147.659 238.38H157.573V244.622H141.417C141.417 243.802 141.578 242.99 141.892 242.233C142.205 241.476 142.665 240.788 143.245 240.208C143.825 239.629 144.513 239.169 145.27 238.855C146.027 238.542 146.839 238.38 147.659 238.38Z" fill="#2F2E41"/>
<path d="M173.662 239.43H168.522L166.076 219.603L173.664 219.604L173.662 239.43Z" fill="#FFB8B8"/>
<path d="M164.85 237.961H174.764V244.202H158.608C158.608 243.383 158.769 242.571 159.083 241.814C159.397 241.057 159.857 240.369 160.436 239.789C161.016 239.209 161.704 238.75 162.461 238.436C163.219 238.122 164.03 237.961 164.85 237.961Z" fill="#2F2E41"/>
<path d="M150.312 236.151C150.119 235.993 149.96 235.797 149.844 235.577C149.727 235.357 149.656 235.115 149.634 234.867L143.658 169.134C143.635 168.879 143.664 168.622 143.744 168.378C143.823 168.134 143.951 167.91 144.121 167.717C144.29 167.525 144.496 167.369 144.728 167.259C144.959 167.149 145.211 167.087 145.467 167.078L175.438 165.954C175.698 165.944 175.956 165.988 176.198 166.083C176.439 166.178 176.659 166.321 176.843 166.505C177.026 166.688 177.17 166.908 177.265 167.149C177.36 167.391 177.404 167.649 177.395 167.908L174.999 233.389C174.981 233.847 174.798 234.283 174.482 234.616C174.167 234.949 173.741 235.156 173.284 235.198L167.241 235.748C166.99 235.771 166.737 235.743 166.498 235.667C166.258 235.59 166.036 235.467 165.844 235.304C165.653 235.14 165.496 234.94 165.384 234.715C165.271 234.49 165.204 234.245 165.187 233.994L162.414 192.396C162.412 192.316 162.394 192.237 162.361 192.164C162.329 192.091 162.282 192.025 162.223 191.971C162.165 191.916 162.096 191.874 162.021 191.846C161.946 191.818 161.866 191.806 161.787 191.809H161.784C161.704 191.806 161.624 191.819 161.549 191.847C161.474 191.875 161.405 191.918 161.347 191.973C161.288 192.028 161.242 192.094 161.209 192.168C161.177 192.241 161.16 192.32 161.158 192.401L158.676 234.28C158.652 234.728 158.467 235.153 158.156 235.477C157.845 235.8 157.428 236.002 156.981 236.045L151.701 236.573C151.453 236.599 151.203 236.575 150.964 236.502C150.726 236.429 150.504 236.31 150.312 236.151H150.312Z" fill="#2F2E41"/>
<path d="M161.841 102.102C167.529 102.102 172.139 97.4915 172.139 91.8043C172.139 86.117 167.529 81.5066 161.841 81.5066C156.153 81.5066 151.542 86.117 151.542 91.8043C151.542 97.4915 156.153 102.102 161.841 102.102Z" fill="#FFB8B8"/>
<path d="M142.009 169.579C141.825 169.371 141.691 169.124 141.614 168.858C141.538 168.591 141.522 168.31 141.567 168.037C143.469 156.481 142.397 139.495 141.163 127.281C140.841 124.041 141.379 120.773 142.721 117.806C144.064 114.84 146.165 112.28 148.812 110.383L154.19 105.774C154.548 105.471 155.004 105.31 155.472 105.32L168.834 105.702C169.315 105.715 169.774 105.913 170.114 106.254L172.179 110.826L172.2 110.842C174.66 112.65 176.634 115.04 177.945 117.797C179.256 120.555 179.863 123.594 179.712 126.644L177.745 167.287C177.72 167.759 177.519 168.205 177.182 168.537C176.844 168.869 176.395 169.063 175.922 169.081L143.49 170.221C143.469 170.221 143.448 170.221 143.428 170.221C143.159 170.222 142.893 170.165 142.649 170.054C142.404 169.943 142.186 169.781 142.009 169.579Z" fill="#F9A826"/>
<path d="M103.108 152.619C103.091 151.961 103.22 151.307 103.484 150.704C103.748 150.1 104.14 149.562 104.635 149.127C105.129 148.692 105.713 148.371 106.345 148.186C106.977 148.001 107.642 147.957 108.293 148.056L125.008 136.359L129.7 144.958L112.057 153.517C111.817 154.6 111.188 155.557 110.29 156.206C109.392 156.856 108.286 157.154 107.183 157.043C106.08 156.932 105.056 156.421 104.305 155.606C103.554 154.79 103.128 153.728 103.108 152.619L103.108 152.619Z" fill="#FFB8B8"/>
<path d="M117.175 154.652C116.929 154.615 116.694 154.53 116.482 154.402C116.27 154.273 116.086 154.104 115.94 153.904L109.489 145.116C109.193 144.712 109.07 144.208 109.146 143.714C109.222 143.219 109.491 142.775 109.893 142.478L148.09 114.445C149.659 113.293 151.621 112.812 153.544 113.107C154.497 113.253 155.411 113.586 156.235 114.085C157.059 114.584 157.777 115.241 158.347 116.018C158.917 116.795 159.329 117.676 159.558 118.612C159.788 119.548 159.831 120.52 159.685 121.472C159.538 122.425 159.206 123.339 158.707 124.163C158.207 124.987 157.55 125.705 156.773 126.275L118.577 154.308C118.255 154.546 117.865 154.674 117.465 154.674C117.368 154.674 117.271 154.667 117.175 154.652Z" fill="#F9A826"/>
<path d="M162.368 100.971C163.734 99.297 163.584 96.7465 162.488 94.8844C161.392 93.0224 159.531 91.7399 157.617 90.7382C155.702 89.7366 153.668 88.9489 151.866 87.7562C150.064 86.5635 150.143 81.5143 149.663 79.4076L150.807 79.7887C150.368 79.2261 150.227 77.5637 149.787 77.0011C151.08 77.1289 152.074 78.3564 153.367 78.4842L152.621 76.4815C157.055 76.2082 159.811 79.289 164.245 79.0157C166.442 78.8803 168.828 78.7946 170.634 80.0526C172.203 81.1458 172.998 83.0379 173.519 84.878C174.638 88.8289 174.812 93.2545 172.879 96.8774C170.946 100.5 166.49 102.942 162.598 101.633L162.368 100.971Z" fill="#CCCCCC"/>
<path d="M105.827 244.853H265.581C265.692 244.853 265.799 244.809 265.877 244.731C265.956 244.652 266 244.545 266 244.434C266 244.323 265.956 244.216 265.877 244.138C265.799 244.059 265.692 244.015 265.581 244.015H105.827C105.715 244.015 105.609 244.059 105.53 244.138C105.452 244.216 105.407 244.323 105.407 244.434C105.407 244.545 105.452 244.652 105.53 244.731C105.609 244.809 105.715 244.853 105.827 244.853Z" fill="#3F3D56"/>
</g>
<defs>
<clipPath id="clip0">
<rect width="266" height="245" fill="white"/>
</clipPath>
</defs>
</svg>
