<svg width="468" height="384" viewBox="0 0 468 384" fill="none" xmlns="http://www.w3.org/2000/svg">
<path d="M83.8014 142.84C111.107 142.84 133.243 120.87 133.243 93.7672C133.243 66.6648 111.107 44.694 83.8014 44.694C56.4957 44.694 34.36 66.6648 34.36 93.7672C34.36 120.87 56.4957 142.84 83.8014 142.84Z" fill="#F0F0F0"/>
<path d="M403.477 142.84C430.783 142.84 452.919 120.87 452.919 93.7672C452.919 66.6648 430.783 44.694 403.477 44.694C376.171 44.694 354.036 66.6648 354.036 93.7672C354.036 120.87 376.171 142.84 403.477 142.84Z" fill="#F0F0F0"/>
<path d="M234.157 142.84C261.463 142.84 283.599 120.87 283.599 93.7672C283.599 66.6648 261.463 44.694 234.157 44.694C206.851 44.694 184.716 66.6648 184.716 93.7672C184.716 120.87 206.851 142.84 234.157 142.84Z" fill="#F0F0F0"/>
<path d="M427.507 115.036C423.611 112.998 419.544 111.3 415.352 109.959L414.817 104.091L393.141 101.773L390.386 109.274L382.607 112.171C382.328 112.276 382.063 112.413 381.817 112.579H381.808C380.535 112.686 379.308 113.107 378.24 113.804C377.515 114.263 376.871 114.836 376.332 115.501C377.385 116.293 378.478 117.028 379.605 117.73L379.654 117.754C379.975 117.95 380.304 118.146 380.632 118.334C381.225 118.685 381.833 119.019 382.442 119.338L382.829 119.534C383.716 119.991 384.621 120.423 385.55 120.823C385.739 120.905 385.945 120.986 386.134 121.068C386.151 121.076 386.159 121.076 386.175 121.084C386.611 121.264 387.047 121.435 387.491 121.599C388.95 122.151 390.438 122.626 391.948 123.019C395.803 124.038 399.776 124.554 403.765 124.553C405.221 124.553 406.66 124.488 408.083 124.349C411.333 124.051 414.542 123.408 417.655 122.431C417.662 122.431 417.671 122.423 417.679 122.423C419.645 121.801 421.566 121.046 423.428 120.162C423.435 120.154 423.452 120.154 423.461 120.146C423.88 119.95 424.283 119.738 424.694 119.534L424.891 119.436C425.22 119.264 425.549 119.093 425.879 118.913C426.701 118.464 427.507 117.991 428.304 117.485C428.526 117.354 428.74 117.215 428.962 117.069C429.274 116.864 429.587 116.652 429.891 116.432C429.126 115.942 428.329 115.477 427.507 115.036Z" fill="#F9A826"/>
<path d="M403.128 98.0623C411.75 98.0623 418.74 91.1247 418.74 82.5667C418.74 74.0087 411.75 67.071 403.128 67.071C394.506 67.071 387.516 74.0087 387.516 82.5667C387.516 91.1247 394.506 98.0623 403.128 98.0623Z" fill="#A0616A"/>
<path d="M392.647 75.019C394.263 76.9173 396.998 77.4529 399.521 77.6726C404.644 78.1186 412.095 77.3951 417.102 76.2476C417.46 79.6857 416.485 83.3927 418.525 86.2208C419.482 82.7969 420.038 79.2752 420.183 75.725C420.335 74.2018 420.135 72.6643 419.597 71.2297C419.31 70.5108 418.825 69.8863 418.197 69.4273C417.57 68.9683 416.826 68.6931 416.049 68.6331C417.212 67.7573 418.574 67.1792 420.016 66.9498L415.059 64.4772L416.332 63.18L407.357 62.6349L409.956 60.9959C406.044 60.4623 402.086 60.3383 398.148 60.6259C396.319 60.7596 394.407 61.0151 392.925 62.0668C391.443 63.1186 390.587 65.2089 391.507 66.7531C390.355 66.9408 389.271 67.4172 388.357 68.1372C387.442 68.8573 386.728 69.7971 386.282 70.8676C385.719 72.5691 385.582 74.3817 385.886 76.1475C386.224 78.9805 386.887 81.7659 387.863 84.4494L392.647 75.019Z" fill="#2F2E41"/>
<path d="M237.033 102.627C247.742 102.627 256.424 94.0097 256.424 83.3801C256.424 72.7506 247.742 64.1337 237.033 64.1337C226.324 64.1337 217.642 72.7506 217.642 83.3801C217.642 94.0097 226.324 102.627 237.033 102.627Z" fill="#2F2E41"/>
<path d="M219.782 72.7833C223.124 69.0536 227.794 66.7583 232.808 66.3817C237.822 66.0052 242.787 67.5768 246.656 70.7649C246.498 70.6151 246.339 70.4644 246.176 70.3192C242.345 66.9133 237.309 65.1571 232.174 65.4371C227.038 65.7171 222.226 68.0103 218.794 71.8123C215.363 75.6143 213.593 80.6135 213.876 85.7103C214.158 90.8071 216.468 95.584 220.299 98.9899C220.335 99.0227 220.372 99.0552 220.409 99.0877C220.574 99.2329 220.743 99.3702 220.911 99.5091C217.268 96.0692 215.114 91.359 214.904 86.3726C214.693 81.3862 216.443 76.5136 219.783 72.7833H219.782Z" fill="#2F2E41"/>
<path d="M236.868 102.463C243.766 102.463 249.357 96.9137 249.357 90.0677C249.357 83.2218 243.766 77.672 236.868 77.672C229.971 77.672 224.38 83.2218 224.38 90.0677C224.38 96.9137 229.971 102.463 236.868 102.463Z" fill="#A0616A"/>
<path d="M259.217 122.365V126.524C258.45 127.01 257.675 127.466 256.884 127.897C256.568 128.07 256.252 128.235 255.936 128.399L255.746 128.494C255.35 128.69 254.963 128.894 254.56 129.082C254.552 129.09 254.536 129.09 254.528 129.098C252.738 129.948 250.892 130.674 249.001 131.272C248.994 131.272 248.986 131.279 248.978 131.279C245.986 132.219 242.9 132.837 239.775 133.124C238.407 133.257 237.024 133.32 235.624 133.32C231.789 133.321 227.969 132.825 224.263 131.844C222.372 131.351 220.518 130.73 218.713 129.985C218.697 129.977 218.689 129.977 218.673 129.969C218.491 129.89 218.294 129.812 218.112 129.733C217.219 129.349 216.349 128.933 215.495 128.494L215.123 128.305C214.214 127.827 213.321 127.324 212.443 126.783L212.396 126.759C211.044 125.924 209.74 125.015 208.49 124.036C207.85 123.55 207.233 123.04 206.632 122.506C206.316 122.239 206 121.957 205.699 121.682C204.544 120.623 203.449 119.502 202.418 118.323C202.555 117.506 202.756 116.701 203.019 115.914L203.027 115.906C203.074 115.772 203.129 115.641 203.193 115.514C203.236 115.401 203.286 115.291 203.343 115.184C204.758 112.556 207.32 111.904 210.498 111.763C212.293 111.685 214.277 111.771 216.373 111.747C217.479 111.739 218.626 111.7 219.772 111.598C227.006 110.947 225.694 106.709 226.018 104.426C226.342 102.213 228.351 104.128 228.485 104.253L228.493 104.261C232.586 106.163 237.116 106.951 241.617 106.545C242.392 106.45 243.167 106.395 243.942 106.372C245.981 106.348 245.539 106.929 244.835 107.408C244.494 107.631 244.137 107.83 243.768 108.004C243.768 108.004 243.444 109.966 243.112 112.901C242.795 115.71 252.765 116.683 254.718 117.295H254.726C255.841 117.702 256.835 118.379 257.619 119.264C258.404 120.15 258.953 121.215 259.217 122.365V122.365Z" fill="#F9A826"/>
<path d="M224.215 89.2524C224.76 89.2524 225.201 88.4492 225.201 87.4585C225.201 86.4677 224.76 85.6646 224.215 85.6646C223.671 85.6646 223.229 86.4677 223.229 87.4585C223.229 88.4492 223.671 89.2524 224.215 89.2524Z" fill="#A0616A"/>
<path d="M249.522 89.2524C250.067 89.2524 250.508 88.4492 250.508 87.4585C250.508 86.4677 250.067 85.6646 249.522 85.6646C248.978 85.6646 248.536 86.4677 248.536 87.4585C248.536 88.4492 248.978 89.2524 249.522 89.2524Z" fill="#A0616A"/>
<path d="M67.9833 97.2036L70.3558 105.361L100.675 104.83L100.409 89.8838C100.199 78.0531 91.7751 67.8495 79.856 68.0582C67.9369 68.2669 60.3581 78.2685 60.5684 90.0991L62.2999 105.502L67.2432 105.416L67.9833 97.2036Z" fill="#2F2E41"/>
<path d="M81.2109 102.908C88.7239 102.908 94.8143 96.8628 94.8143 89.4058C94.8143 81.9488 88.7239 75.9037 81.2109 75.9037C73.698 75.9037 67.6075 81.9488 67.6075 89.4058C67.6075 96.8628 73.698 102.908 81.2109 102.908Z" fill="#FFB6B6"/>
<path d="M96.1025 79.9248C96.0844 78.891 95.7584 77.8855 95.1655 77.0353C95.1029 76.9479 95.0399 76.8668 94.977 76.7857C94.473 76.1472 93.827 75.633 93.0897 75.2833C92.3523 74.9337 91.5435 74.7579 90.7263 74.7699L80.949 74.9446L71.1779 75.1131C69.7781 75.1409 68.4464 75.718 67.4742 76.718C66.502 77.718 65.9686 79.0596 65.9905 80.4491L68.3171 85.0985L69.6563 87.7697L69.8764 87.6448C78.3332 82.9267 81.7915 82.8643 92.9838 87.2517L93.2101 87.339L94.0968 85.0861L96.1087 79.9748L96.1025 79.9248Z" fill="#2F2E41"/>
<path d="M108.288 110.462C105.37 107.572 95.4988 108.72 95.4988 108.72L69.4428 110.349C63.664 110.774 58.4577 115.367 56.5715 117.227C56.873 117.52 57.1815 117.807 57.4962 118.082C63.2865 123.19 70.5651 126.335 78.2773 127.062C85.9894 127.789 93.7345 126.06 100.39 122.126C103.182 120.472 106.754 118.489 108.993 116.174C109.879 115.262 110.589 115.281 111.375 114.282C110.786 112.712 109.704 111.373 108.288 110.462V110.462Z" fill="#F9A826"/>
<path d="M83.8014 277.96C111.107 277.96 133.243 255.989 133.243 228.887C133.243 201.784 111.107 179.813 83.8014 179.813C56.4957 179.813 34.36 201.784 34.36 228.887C34.36 255.989 56.4957 277.96 83.8014 277.96Z" fill="#F0F0F0"/>
<path d="M403.477 277.96C430.783 277.96 452.919 255.989 452.919 228.887C452.919 201.784 430.783 179.813 403.477 179.813C376.171 179.813 354.036 201.784 354.036 228.887C354.036 255.989 376.171 277.96 403.477 277.96Z" fill="#F0F0F0"/>
<path d="M234.157 277.96C261.463 277.96 283.599 255.989 283.599 228.887C283.599 201.784 261.463 179.813 234.157 179.813C206.851 179.813 184.716 201.784 184.716 228.887C184.716 255.989 206.851 277.96 234.157 277.96Z" fill="#F0F0F0"/>
<path d="M82.9919 235.926C90.5408 235.926 96.6604 229.852 96.6604 222.359C96.6604 214.866 90.5408 208.792 82.9919 208.792C75.4431 208.792 69.3235 214.866 69.3235 222.359C69.3235 229.852 75.4431 235.926 82.9919 235.926Z" fill="#FFB8B8"/>
<path d="M70.0608 226.604C70.0608 226.604 71.2221 224.579 70.9521 217.817C70.6821 211.054 81.0569 214.879 89.7261 214.234C98.3954 213.589 96.5602 225.524 96.5602 225.524C96.5602 225.524 97.1857 224.815 98.5247 219.054C99.8638 213.294 96.8234 207.554 96.8234 207.554C95.928 201.501 91.1022 203.441 91.1022 203.441C93.4262 204.339 92.9799 206.259 92.9799 206.259C91.0127 202.836 86.187 204.776 86.187 204.776C79.7508 200.767 73.2279 206.046 73.2279 206.046C65.4527 207.797 70.0126 213.935 70.0126 213.935C62.1933 217.857 70.0608 226.604 70.0608 226.604Z" fill="#2F2E41"/>
<path d="M105.799 244.199C101.903 242.162 97.8362 240.463 93.6445 239.123L93.1095 233.254L71.4328 230.936L68.678 238.437L60.8988 241.335C60.6203 241.439 60.3552 241.576 60.1089 241.743H60.1005C58.8269 241.85 57.6003 242.27 56.5319 242.967C55.8073 243.426 55.1629 243.999 54.6244 244.665C55.6769 245.456 56.7701 246.191 57.8968 246.893L57.9465 246.917C58.2672 247.113 58.5963 247.309 58.9248 247.497C59.5172 247.848 60.1257 248.183 60.7342 248.501L61.1208 248.697C62.0087 249.154 62.9134 249.586 63.8427 249.986C64.0318 250.068 64.2376 250.15 64.4267 250.231C64.4428 250.239 64.4512 250.239 64.4673 250.248C64.9036 250.427 65.3391 250.599 65.7831 250.762C67.2419 251.315 68.7298 251.789 70.2403 252.182C74.0952 253.202 78.0678 253.718 82.0572 253.717C83.5131 253.717 84.9521 253.651 86.375 253.512C89.6256 253.215 92.8346 252.572 95.9469 251.594C95.9547 251.594 95.9637 251.586 95.9715 251.586C97.9377 250.965 99.8584 250.209 101.72 249.325C101.728 249.317 101.744 249.317 101.753 249.309C102.172 249.113 102.575 248.901 102.986 248.697L103.183 248.599C103.513 248.427 103.842 248.256 104.171 248.076C104.993 247.628 105.799 247.154 106.596 246.648C106.818 246.517 107.032 246.379 107.254 246.232C107.566 246.028 107.879 245.816 108.183 245.595C107.419 245.105 106.621 244.64 105.799 244.199Z" fill="#F9A826"/>
<path d="M252.956 241.329L244.727 240.587L239.803 237.018C239.803 237.011 239.801 237.004 239.796 236.999L239.784 237.005L239.587 236.86L239.561 237.087L231.251 240.259L222.711 238.304L219.757 241.476L206.599 245.809C205.966 246.227 205.409 246.749 204.953 247.353L204.954 247.362C205.506 247.791 206.074 248.214 206.649 248.615C207.954 249.55 209.309 250.413 210.709 251.2C214.117 253.129 217.76 254.615 221.549 255.621C221.892 255.716 222.235 255.804 222.578 255.886C223.175 256.031 223.779 256.17 224.382 256.283C225.602 256.536 226.837 256.733 228.087 256.876C229.923 257.097 231.771 257.207 233.621 257.204C234.885 257.204 236.137 257.156 237.376 257.059C239.552 256.885 241.713 256.558 243.843 256.081C243.92 256.063 243.996 256.05 244.072 256.025C247.335 255.282 250.505 254.187 253.526 252.758C253.99 252.537 254.454 252.31 254.911 252.077C256.036 251.503 257.129 250.885 258.19 250.223C258.991 249.731 259.772 249.208 260.534 248.665C261.005 248.331 261.468 247.99 261.926 247.637L261.876 247.533C261.064 245.816 259.814 244.34 258.249 243.252C256.684 242.163 254.859 241.501 252.956 241.329Z" fill="#F9A826"/>
<path d="M245.095 210.567C244.135 209.623 243.052 208.811 241.874 208.152C234.599 204.166 226.651 204.097 220.068 207.956C218.432 208.913 216.937 210.091 215.627 211.456C211.934 215.282 209.866 220.372 209.852 225.671V241.386H251.265V224.063C251.265 219.421 248.691 214.048 245.095 210.567Z" fill="#2F2E41"/>
<path d="M229.74 240.957C238 240.957 244.697 234.31 244.697 226.111C244.697 217.912 238 211.266 229.74 211.266C221.479 211.266 214.783 217.912 214.783 226.111C214.783 234.31 221.479 240.957 229.74 240.957Z" fill="#FFB8B8"/>
<path d="M245.082 212.635C245.052 212.32 244.939 212.017 244.755 211.757C244.572 211.497 244.323 211.29 244.034 211.154C234.675 206.815 225.183 206.928 215.837 211.494H215.665L215.608 211.727C213.765 225.816 214.026 226.125 214.14 226.251C214.321 226.455 214.544 226.616 214.795 226.724C215.025 226.825 215.274 226.876 215.525 226.875H236.861L236.912 226.635C237.159 225.374 237.478 224.128 237.865 222.902C238.715 224.133 239.498 225.409 240.209 226.724L240.298 226.875H244.447C244.526 226.875 244.605 226.869 244.682 226.856C245.111 226.805 245.506 226.601 245.794 226.282C245.908 226.163 246.175 225.872 245.082 212.635Z" fill="#2F2E41"/>
<path d="M414.661 239.424L414.122 233.487L392.164 231.139L389.384 238.736L381.501 241.667C381.215 241.772 380.943 241.91 380.69 242.079C379.116 242.221 377.62 242.824 376.393 243.812C376.572 243.96 376.752 244.101 376.931 244.243C376.969 244.279 377.012 244.31 377.049 244.341C377.551 244.728 378.065 245.109 378.585 245.472C378.721 245.57 378.857 245.668 379 245.761C380.141 246.563 381.324 247.308 382.542 247.992C383.706 248.649 384.901 249.256 386.127 249.811C388.379 250.833 390.713 251.665 393.106 252.3C393.44 252.392 393.774 252.478 394.109 252.558C394.691 252.7 395.279 252.835 395.867 252.945C397.056 253.191 398.26 253.384 399.477 253.523C401.267 253.739 403.068 253.845 404.871 253.843C406.103 253.843 407.323 253.796 408.531 253.701C410.652 253.532 412.758 253.214 414.834 252.749C414.909 252.73 414.983 252.718 415.057 252.693C418.237 251.97 421.327 250.902 424.271 249.51C424.723 249.295 425.175 249.073 425.621 248.846C426.717 248.287 427.783 247.684 428.816 247.039C429.188 246.812 429.553 246.578 429.919 246.332C424.302 242.583 416.147 239.897 414.661 239.424Z" fill="#F9A826"/>
<path d="M402.285 237.379C411.018 237.379 418.097 230.352 418.097 221.685C418.097 213.017 411.018 205.991 402.285 205.991C393.553 205.991 386.473 213.017 386.473 221.685C386.473 230.352 393.553 237.379 402.285 237.379Z" fill="#A0616A"/>
<path d="M391.672 214.039C393.309 215.961 396.079 216.504 398.634 216.724C403.824 217.176 411.369 216.443 416.441 215.281C416.805 218.763 415.816 222.518 417.882 225.382C418.851 221.915 419.414 218.348 419.561 214.752C419.715 213.209 419.512 211.652 418.968 210.199C418.676 209.471 418.185 208.838 417.55 208.373C416.915 207.909 416.161 207.63 415.374 207.569C415.547 207.392 415.667 207.169 415.718 206.926C415.769 206.684 415.75 206.432 415.663 206.2C415.472 205.381 415.052 204.632 414.45 204.041C413.848 203.449 413.09 203.038 412.263 202.857L406.571 201.495C406.571 201.495 401.23 199.17 397.24 199.462C395.387 199.597 393.451 199.856 391.95 200.921C390.449 201.987 389.582 204.103 390.514 205.667C389.348 205.857 388.249 206.34 387.323 207.069C386.398 207.798 385.674 208.75 385.223 209.834C384.652 211.558 384.514 213.394 384.821 215.182C385.164 218.051 385.835 220.873 386.823 223.59L391.672 214.039Z" fill="#2F2E41"/>
<path d="M250.36 80.5819C249.881 79.0567 248.811 77.7826 247.386 77.0391C245.972 76.3109 244.462 75.7839 242.9 75.4738C240.169 74.694 237.34 74.3096 234.499 74.3325C231.665 74.4707 228.768 75.4414 226.843 77.5097C224.918 79.578 224.205 82.8618 225.607 85.3095L225.452 85.9422C227.7 86.2076 229.977 85.8205 232.007 84.8277C234.038 83.835 235.735 82.2792 236.893 80.3488C237.956 82.0146 239.465 83.3535 241.252 84.2152C243.039 85.0768 245.032 85.4272 247.008 85.2269C247.639 85.1764 248.253 85.0011 248.815 84.7112C249.481 84.2749 249.989 83.6396 250.267 82.8972C250.545 82.1548 250.578 81.3439 250.36 80.5819V80.5819Z" fill="#2F2E41"/>
</svg>
