<svg width="54" height="54" viewBox="0 0 54 54" fill="none" xmlns="http://www.w3.org/2000/svg">
<path d="M53.2657 18.4359L49.0892 14.2599C48.0978 13.2687 46.4948 13.2687 45.5139 14.2599L20.2548 39.516L8.50585 27.7579C7.51446 26.7667 5.91138 26.7667 4.93054 27.7579L0.743536 31.9444C-0.247845 32.9357 -0.247845 34.5386 0.743536 35.5299L18.4619 53.2566C19.4532 54.2478 21.0563 54.2478 22.0372 53.2566L53.2551 22.0213C54.2465 21.0195 54.2465 19.4166 53.2657 18.4359ZM19.063 29.6139C19.7169 30.2783 20.7927 30.2783 21.4465 29.6139L43.3835 7.65855C44.0374 6.99419 44.0374 5.92911 43.3835 5.2753L38.6164 0.498267C37.9625 -0.166089 36.8868 -0.166089 36.2329 0.498267L20.2548 16.4744L14.412 10.6218C13.7581 9.95743 12.6823 9.95743 12.0284 10.6218L7.2508 15.3988C6.59691 16.0632 6.59691 17.1283 7.2508 17.7821L19.063 29.6139Z" fill="#F9A826"/>
</svg>
