<svg width="54" height="54" viewBox="0 0 54 54" fill="none" xmlns="http://www.w3.org/2000/svg">
<path d="M53.6738 24.9469C48.5897 10.0673 38.5247 0 27 0C15.4753 0 5.40746 10.0744 0.326199 24.9483C0.111738 25.5846 0 26.2877 0 27.0007C0 27.7137 0.111738 28.4168 0.326199 29.0531C5.41027 43.9327 15.4753 54 27 54C38.5247 54 48.5925 43.9256 53.6738 29.0517C53.8883 28.4154 54 27.7123 54 26.9993C54 26.2863 53.8883 25.5832 53.6738 24.9469V24.9469ZM27 47.25C24.3299 47.25 21.7199 46.0624 19.4998 43.8373C17.2797 41.6122 15.5494 38.4495 14.5276 34.7493C13.5058 31.0491 13.2385 26.9775 13.7594 23.0494C14.2803 19.1213 15.566 15.5131 17.454 12.6811C19.3421 9.84907 21.7475 7.92045 24.3663 7.1391C26.985 6.35775 29.6994 6.75877 32.1662 8.29144C34.633 9.82411 36.7415 12.4196 38.2249 15.7497C39.7083 19.0798 40.5 22.9949 40.5 27C40.5009 29.6596 40.1523 32.2934 39.4742 34.7509C38.796 37.2083 37.8016 39.4412 36.5479 41.3218C35.2941 43.2024 33.8055 44.694 32.1673 45.7112C30.529 46.7284 28.7731 47.2513 27 47.25V47.25ZM27 13.5C26.1967 13.5168 25.3986 13.6961 24.6272 14.033C25.263 15.3291 25.5681 16.9241 25.4872 18.5287C25.4063 20.1333 24.9447 21.6413 24.1861 22.7791C23.4275 23.917 22.4222 24.6094 21.3524 24.7308C20.2827 24.8522 19.2194 24.3945 18.3553 23.4408C17.8633 26.1599 17.9521 29.042 18.6092 31.6814C19.2664 34.3208 20.4588 36.5847 22.0187 38.1543C23.5785 39.7239 25.4273 40.5203 27.3047 40.4314C29.1821 40.3424 30.9936 39.3726 32.4843 37.6584C33.975 35.9442 35.0697 33.572 35.6145 30.8756C36.1593 28.1792 36.1267 25.2945 35.5212 22.6274C34.9158 19.9603 33.768 17.6451 32.2394 16.0078C30.7107 14.3704 28.8783 13.4934 27 13.5V13.5Z" fill="#F9A826"/>
</svg>
