<svg width="207" height="149" viewBox="0 0 207 149" fill="none" xmlns="http://www.w3.org/2000/svg">
<g clip-path="url(#clip0)">
<path d="M28.0135 0C27.6934 0 27.3864 0.26296 27.1601 0.731002C26.9338 1.19904 26.8066 1.83383 26.8066 2.49574C26.8066 3.15765 26.9338 3.79245 27.1601 4.2605C27.3864 4.72854 27.6934 4.99148 28.0135 4.99148H52.4945C52.8146 4.99148 53.1215 4.72854 53.3479 4.2605C53.5742 3.79245 53.7013 3.15765 53.7013 2.49574C53.7013 1.83383 53.5742 1.19904 53.3479 0.731002C53.1215 0.26296 52.8146 0 52.4945 0H28.0135Z" fill="#F9A826"/>
<path d="M28.0135 14.704C27.6937 14.7051 27.3873 14.9685 27.1614 15.4365C26.9355 15.9044 26.8086 16.5386 26.8086 17.1998C26.8086 17.861 26.9355 18.4952 27.1614 18.9631C27.3873 19.431 27.6937 19.6945 28.0135 19.6955H52.4945C52.8142 19.6945 53.1207 19.431 53.3466 18.9631C53.5725 18.4952 53.6994 17.861 53.6994 17.1998C53.6994 16.5386 53.5725 15.9044 53.3466 15.4365C53.1207 14.9685 52.8142 14.7051 52.4945 14.704H28.0135Z" fill="#F9A826"/>
<path d="M40.2542 61.338C38.7518 61.338 37.2832 60.4167 36.034 58.6906C34.7848 56.9645 33.8112 54.5111 33.2362 51.6407C32.6613 48.7703 32.5108 45.6117 32.8039 42.5645C33.097 39.5172 33.8204 36.7181 34.8827 34.5212C35.945 32.3242 37.2985 30.828 38.772 30.2217C40.2455 29.6155 41.7728 29.9265 43.1609 31.1154C44.5489 32.3043 45.7353 34.3176 46.57 36.9009C47.4047 39.4841 47.8503 42.5212 47.8504 45.6282V45.6282C47.8481 49.7931 47.0471 53.7862 45.623 56.7313C44.199 59.6764 42.2681 61.3332 40.2542 61.338V61.338Z" fill="#2F2E41"/>
<path d="M154.506 0C154.186 0 153.879 0.26296 153.653 0.731002C153.426 1.19904 153.299 1.83383 153.299 2.49574C153.299 3.15765 153.426 3.79245 153.653 4.2605C153.879 4.72854 154.186 4.99148 154.506 4.99148H178.987C179.307 4.99148 179.614 4.72854 179.84 4.2605C180.067 3.79245 180.194 3.15765 180.194 2.49574C180.194 1.83383 180.067 1.19904 179.84 0.731002C179.614 0.26296 179.307 0 178.987 0H154.506Z" fill="#E8270D"/>
<path d="M154.506 14.704C154.186 14.7051 153.88 14.9685 153.654 15.4365C153.428 15.9044 153.301 16.5386 153.301 17.1998C153.301 17.861 153.428 18.4952 153.654 18.9631C153.88 19.431 154.186 19.6945 154.506 19.6955H178.987C179.307 19.6945 179.613 19.431 179.839 18.9631C180.065 18.4952 180.192 17.861 180.192 17.1998C180.192 16.5386 180.065 15.9044 179.839 15.4365C179.613 14.9685 179.307 14.7051 178.987 14.704H154.506Z" fill="#E8270D"/>
<path d="M166.747 61.338C165.244 61.338 163.776 60.4167 162.526 58.6906C161.277 56.9645 160.304 54.5111 159.729 51.6407C159.154 48.7703 159.003 45.6117 159.296 42.5645C159.589 39.5172 160.313 36.7181 161.375 34.5212C162.437 32.3242 163.791 30.828 165.264 30.2217C166.738 29.6155 168.265 29.9265 169.653 31.1154C171.041 32.3043 172.228 34.3176 173.062 36.9009C173.897 39.4841 174.343 42.5212 174.343 45.6282V45.6282C174.341 49.7931 173.54 53.7862 172.115 56.7313C170.691 59.6764 168.761 61.3332 166.747 61.338V61.338Z" fill="#2F2E41"/>
<path d="M73.4255 97.7684C73.9681 95.4026 71.4539 90.5874 67.8098 87.0132C64.1658 83.4391 60.7719 82.4594 60.2294 84.8252C59.6868 87.1909 62.201 92.0062 65.845 95.5804C69.4891 99.1545 72.883 100.134 73.4255 97.7684Z" fill="#2F2E41"/>
<path d="M103.5 122.135C104.471 120.454 103.159 113.907 100.57 107.512C97.9807 101.117 95.0948 97.2959 94.1241 98.9768C93.1533 100.658 94.4652 107.204 97.0543 113.599C99.6434 119.994 102.529 123.816 103.5 122.135Z" fill="#2F2E41"/>
<path d="M83.2776 135.515C91.3438 135.515 97.8828 121.993 97.8828 105.312C97.8828 88.6305 91.3438 75.1078 83.2776 75.1078C75.2114 75.1078 68.6725 88.6305 68.6725 105.312C68.6725 121.993 75.2114 135.515 83.2776 135.515Z" fill="#2F2E41"/>
<path d="M89.4594 129.016H85.0225V145.456H89.4594V129.016Z" fill="#2F2E41"/>
<path d="M80.5856 129.016H76.1486V145.456H80.5856V129.016Z" fill="#2F2E41"/>
<path d="M85.7621 148.514C87.8042 148.514 89.4596 147.23 89.4596 145.647C89.4596 144.063 87.8042 142.779 85.7621 142.779C83.72 142.779 82.0646 144.063 82.0646 145.647C82.0646 147.23 83.72 148.514 85.7621 148.514Z" fill="#2F2E41"/>
<path d="M76.8881 148.132C78.9301 148.132 80.5856 146.848 80.5856 145.265C80.5856 143.681 78.9301 142.397 76.8881 142.397C74.846 142.397 73.1906 143.681 73.1906 145.265C73.1906 146.848 74.846 148.132 76.8881 148.132Z" fill="#2F2E41"/>
<path d="M78.6918 67.3446C79.9959 56.4833 85.7525 50.0917 91.5496 53.0685C97.3466 56.0453 100.989 67.2633 99.6847 78.1246C98.3806 88.9859 94.0539 89.0209 88.2569 86.0441C82.4598 83.0673 77.3876 78.2059 78.6918 67.3446Z" fill="#F9A826"/>
<path d="M81.0942 109.008C83.7835 109.008 85.9636 104.5 85.9636 98.9384C85.9636 93.377 83.7835 88.8685 81.0942 88.8685C78.4049 88.8685 76.2249 93.377 76.2249 98.9384C76.2249 104.5 78.4049 109.008 81.0942 109.008Z" fill="white"/>
<path d="M79.093 98.6854C79.9894 98.6854 80.7161 97.1826 80.7161 95.3288C80.7161 93.475 79.9894 91.9722 79.093 91.9722C78.1965 91.9722 77.4698 93.475 77.4698 95.3288C77.4698 97.1826 78.1965 98.6854 79.093 98.6854Z" fill="#3F3D56"/>
<path d="M84.1489 119.918C84.3023 121.669 84.1133 123.475 83.6233 124.938C83.1334 126.401 82.3827 127.402 81.5361 127.72C80.6895 128.039 79.8163 127.65 79.1085 126.638C78.4007 125.625 77.9162 124.074 77.7614 122.323V122.323L77.7602 122.31C77.4409 118.662 78.8049 117.371 80.569 116.71C82.3332 116.05 83.8295 116.27 84.1489 119.918Z" fill="white"/>
<path d="M141.155 95.5803C144.799 92.0062 147.313 87.1909 146.771 84.8252C146.228 82.4594 142.834 83.439 139.19 87.0132C135.546 90.5874 133.032 95.4026 133.574 97.7684C134.117 100.134 137.511 99.1545 141.155 95.5803Z" fill="#2F2E41"/>
<path d="M109.946 113.599C112.535 107.204 113.847 100.658 112.876 98.9768C111.905 97.296 109.019 101.117 106.43 107.512C103.841 113.907 102.529 120.454 103.5 122.135C104.471 123.816 107.357 119.994 109.946 113.599Z" fill="#2F2E41"/>
<path d="M123.722 135.515C131.788 135.515 138.327 121.993 138.327 105.312C138.327 88.6305 131.788 75.1078 123.722 75.1078C115.656 75.1078 109.117 88.6305 109.117 105.312C109.117 121.993 115.656 135.515 123.722 135.515Z" fill="#2F2E41"/>
<path d="M121.978 129.016H117.541V145.456H121.978V129.016Z" fill="#2F2E41"/>
<path d="M130.851 129.016H126.414V145.456H130.851V129.016Z" fill="#2F2E41"/>
<path d="M121.238 148.514C123.28 148.514 124.936 147.23 124.936 145.647C124.936 144.063 123.28 142.779 121.238 142.779C119.196 142.779 117.541 144.063 117.541 145.647C117.541 147.23 119.196 148.514 121.238 148.514Z" fill="#2F2E41"/>
<path d="M130.112 148.132C132.154 148.132 133.809 146.848 133.809 145.265C133.809 143.681 132.154 142.397 130.112 142.397C128.07 142.397 126.414 143.681 126.414 145.265C126.414 146.848 128.07 148.132 130.112 148.132Z" fill="#2F2E41"/>
<path d="M128.308 67.3446C127.004 56.4833 121.247 50.0917 115.45 53.0685C109.653 56.0453 106.011 67.2633 107.315 78.1246C108.619 88.9859 112.946 89.0209 118.743 86.0441C124.54 83.0673 129.612 78.2059 128.308 67.3446Z" fill="#F9A826"/>
<path d="M125.906 109.008C128.595 109.008 130.775 104.5 130.775 98.9384C130.775 93.377 128.595 88.8685 125.906 88.8685C123.216 88.8685 121.036 93.377 121.036 98.9384C121.036 104.5 123.216 109.008 125.906 109.008Z" fill="white"/>
<path d="M127.907 98.6854C128.803 98.6854 129.53 97.1826 129.53 95.3288C129.53 93.475 128.803 91.9722 127.907 91.9722C127.011 91.9722 126.284 93.475 126.284 95.3288C126.284 97.1826 127.011 98.6854 127.907 98.6854Z" fill="#3F3D56"/>
<path d="M122.851 119.918C122.698 121.669 122.887 123.475 123.377 124.938C123.867 126.401 124.617 127.402 125.464 127.72C126.311 128.039 127.184 127.65 127.891 126.638C128.599 125.625 129.084 124.074 129.239 122.323V122.323L129.24 122.31C129.559 118.662 128.195 117.371 126.431 116.71C124.667 116.05 123.17 116.27 122.851 119.918Z" fill="white"/>
<path d="M206.621 149H0.379495C0.279069 148.999 0.182852 148.917 0.111943 148.769C0.0410329 148.622 0.0012207 148.423 0.0012207 148.215C0.0012207 148.008 0.0410329 147.809 0.111943 147.662C0.182852 147.514 0.279069 147.432 0.379495 147.431H206.621C206.721 147.431 206.818 147.514 206.889 147.661C206.96 147.808 207 148.007 207 148.215C207 148.424 206.96 148.623 206.889 148.77C206.818 148.917 206.721 149 206.621 149V149Z" fill="#3F3D56"/>
</g>
<defs>
<clipPath id="clip0">
<rect width="207" height="149" fill="white"/>
</clipPath>
</defs>
</svg>
